<svg xmlns="http://www.w3.org/2000/svg" version="1.1" xmlns:xlink="http://www.w3.org/1999/xlink" xmlns:svgjs="http://svgjs.com/svgjs" width="1920" height="1080" preserveAspectRatio="none" viewBox="0 0 1920 1080"><g mask="url(&quot;#SvgjsMask1482&quot;)" fill="none"><rect width="1920" height="1080" x="0" y="0" fill="#0e2a47"></rect><path d="M89 1080L1169 0L1881.5 0L801.5 1080z" fill="url(#SvgjsLinearGradient1483)"></path><path d="M685.6 1080L1765.6 0L2497.6 0L1417.6 1080z" fill="url(#SvgjsLinearGradient1483)"></path><path d="M1918 1080L838 0L170.5 0L1250.5 1080z" fill="url(#SvgjsLinearGradient1484)"></path><path d="M1163.4 1080L83.40000000000009 0L-356.0999999999999 0L723.9000000000001 1080z" fill="url(#SvgjsLinearGradient1484)"></path><path d="M918.8050198925872 1080L1920 78.80501989258721L1920 1080z" fill="url(#SvgjsLinearGradient1483)"></path><path d="M0 1080L1001.1949801074128 1080L 0 78.80501989258721z" fill="url(#SvgjsLinearGradient1484)"></path></g><defs><mask id="SvgjsMask1482"><rect width="1920" height="1080" fill="#ffffff"></rect></mask><linearGradient x1="0%" y1="100%" x2="100%" y2="0%" id="SvgjsLinearGradient1483"><stop stop-color="rgba(15, 70, 185, 0.2)" offset="0"></stop><stop stop-opacity="0" stop-color="rgba(15, 70, 185, 0.2)" offset="0.66"></stop></linearGradient><linearGradient x1="100%" y1="100%" x2="0%" y2="0%" id="SvgjsLinearGradient1484"><stop stop-color="rgba(15, 70, 185, 0.2)" offset="0"></stop><stop stop-opacity="0" stop-color="rgba(15, 70, 185, 0.2)" offset="0.66"></stop></linearGradient></defs></svg>