<?xml version="1.0" encoding="utf-8" standalone="no"?>
<!DOCTYPE svg PUBLIC "-//W3C//DTD SVG 1.1//EN"
  "http://www.w3.org/Graphics/SVG/1.1/DTD/svg11.dtd">
<svg height="720pt" version="1.1" viewBox="0 0 1800 720" width="1800pt" xmlns="http://www.w3.org/2000/svg" xmlns:xlink="http://www.w3.org/1999/xlink">
 <metadata>
  <rdf:RDF xmlns:cc="http://creativecommons.org/ns#" xmlns:dc="http://purl.org/dc/elements/1.1/" xmlns:rdf="http://www.w3.org/1999/02/22-rdf-syntax-ns#">
   <cc:Work>
    <dc:type rdf:resource="http://purl.org/dc/dcmitype/StillImage"/>
    <dc:date>2022-03-10T09:39:42.766946</dc:date>
    <dc:format>image/svg+xml</dc:format>
    <dc:creator>
     <cc:Agent>
      <dc:title>Matplotlib v3.4.3, https://matplotlib.org/</dc:title>
     </cc:Agent>
    </dc:creator>
   </cc:Work>
  </rdf:RDF>
 </metadata>
 <defs>
  <style type="text/css">*{stroke-linecap:butt;stroke-linejoin:round;}</style>
 </defs>
 <g id="figure_1">
  <g id="patch_1">
   <path d="M 0 720 
L 1800 720 
L 1800 0 
L 0 0 
z
" style="fill:#ffffff;"/>
  </g>
  <g id="axes_1">
   <g id="matplotlib.axis_1"/>
   <g id="matplotlib.axis_2"/>
   <g id="patch_2">
    <path d="M 473.041102 123.858337 
C 461.367423 117.910301 448.626715 114.342383 435.561727 113.362585 
C 422.49674 112.382787 409.366388 114.010526 396.936137 118.150908 
C 384.505886 122.29129 373.022072 128.862263 363.154171 137.480757 
C 353.286271 146.099252 345.229841 156.59447 339.45455 168.354569 
C 333.679259 180.114668 330.29956 192.906591 329.512479 205.984604 
C 328.725398 219.062616 330.546533 232.167544 334.869718 244.535405 
C 339.192903 256.903266 345.932462 268.288959 354.695498 278.028729 
C 363.458533 287.768499 374.071383 295.669328 385.915346 301.270617 
L 428.170332 211.922182 
L 473.041102 123.858337 
z
" style="fill:#161c24;opacity:0.5;stroke:#161c24;stroke-linejoin:miter;"/>
   </g>
   <g id="patch_3">
    <path d="M 385.915346 301.270617 
C 409.375216 312.365344 436.285982 313.785921 460.783559 305.222794 
C 485.281136 296.659666 505.446741 278.783544 516.886117 255.489786 
C 528.325493 232.196029 530.142645 205.30913 521.941601 180.687974 
C 513.740557 156.066818 496.163667 135.639867 473.041085 123.858329 
L 428.170332 211.922182 
L 385.915346 301.270617 
z
" style="fill:#2f323b;opacity:0.5;stroke:#2f323b;stroke-linejoin:miter;"/>
   </g>
   <g id="patch_4">
    <path d="M 475.017829 121.88161 
C 463.34415 115.933573 450.603443 112.365656 437.538455 111.385858 
C 424.473467 110.40606 411.343115 112.033798 398.912864 116.17418 
C 386.482613 120.314562 374.998799 126.885536 365.130898 135.50403 
C 355.262998 144.122525 347.206568 154.617743 341.431277 166.377842 
C 335.655987 178.137941 332.276287 190.929864 331.489206 204.007876 
C 330.702125 217.085889 332.523261 230.190817 336.846445 242.558678 
C 341.16963 254.926538 347.90919 266.312232 356.672225 276.052002 
C 365.43526 285.791772 376.04811 293.6926 387.892073 299.29389 
L 430.147059 209.945455 
L 475.017829 121.88161 
z
" style="fill:#495d77;stroke:#ffffff;stroke-linejoin:miter;"/>
   </g>
   <g id="patch_5">
    <path d="M 387.892073 299.29389 
C 411.351943 310.388617 438.262709 311.809194 462.760286 303.246066 
C 487.257864 294.682939 507.423469 276.806816 518.862844 253.513059 
C 530.30222 230.219302 532.119373 203.332403 523.918329 178.711247 
C 515.717285 154.09009 498.140394 133.66314 475.017812 121.881601 
L 430.147059 209.945455 
L 387.892073 299.29389 
z
" style="fill:#9da5c5;stroke:#ffffff;stroke-linejoin:miter;"/>
   </g>
   <g id="text_1">
    <!-- Male -->
    <g style="fill:#262626;" transform="translate(300.049543 165.898815)scale(0.15 -0.15)">
     <defs>
      <path d="M 475 0 
L 475 4581 
L 1388 4581 
L 2472 1338 
Q 2622 884 2691 659 
Q 2769 909 2934 1394 
L 4031 4581 
L 4847 4581 
L 4847 0 
L 4263 0 
L 4263 3834 
L 2931 0 
L 2384 0 
L 1059 3900 
L 1059 0 
L 475 0 
z
" id="ArialMT-4d" transform="scale(0.015625)"/>
      <path d="M 2588 409 
Q 2275 144 1986 34 
Q 1697 -75 1366 -75 
Q 819 -75 525 192 
Q 231 459 231 875 
Q 231 1119 342 1320 
Q 453 1522 633 1644 
Q 813 1766 1038 1828 
Q 1203 1872 1538 1913 
Q 2219 1994 2541 2106 
Q 2544 2222 2544 2253 
Q 2544 2597 2384 2738 
Q 2169 2928 1744 2928 
Q 1347 2928 1158 2789 
Q 969 2650 878 2297 
L 328 2372 
Q 403 2725 575 2942 
Q 747 3159 1072 3276 
Q 1397 3394 1825 3394 
Q 2250 3394 2515 3294 
Q 2781 3194 2906 3042 
Q 3031 2891 3081 2659 
Q 3109 2516 3109 2141 
L 3109 1391 
Q 3109 606 3145 398 
Q 3181 191 3288 0 
L 2700 0 
Q 2613 175 2588 409 
z
M 2541 1666 
Q 2234 1541 1622 1453 
Q 1275 1403 1131 1340 
Q 988 1278 909 1158 
Q 831 1038 831 891 
Q 831 666 1001 516 
Q 1172 366 1500 366 
Q 1825 366 2078 508 
Q 2331 650 2450 897 
Q 2541 1088 2541 1459 
L 2541 1666 
z
" id="ArialMT-61" transform="scale(0.015625)"/>
      <path d="M 409 0 
L 409 4581 
L 972 4581 
L 972 0 
L 409 0 
z
" id="ArialMT-6c" transform="scale(0.015625)"/>
      <path d="M 2694 1069 
L 3275 997 
Q 3138 488 2766 206 
Q 2394 -75 1816 -75 
Q 1088 -75 661 373 
Q 234 822 234 1631 
Q 234 2469 665 2931 
Q 1097 3394 1784 3394 
Q 2450 3394 2872 2941 
Q 3294 2488 3294 1666 
Q 3294 1616 3291 1516 
L 816 1516 
Q 847 969 1125 678 
Q 1403 388 1819 388 
Q 2128 388 2347 550 
Q 2566 713 2694 1069 
z
M 847 1978 
L 2700 1978 
Q 2663 2397 2488 2606 
Q 2219 2931 1791 2931 
Q 1403 2931 1139 2672 
Q 875 2413 847 1978 
z
" id="ArialMT-65" transform="scale(0.015625)"/>
     </defs>
     <use xlink:href="#ArialMT-4d"/>
     <use x="83.300781" xlink:href="#ArialMT-61"/>
     <use x="138.916016" xlink:href="#ArialMT-6c"/>
     <use x="161.132812" xlink:href="#ArialMT-65"/>
    </g>
   </g>
   <g id="text_2">
    <!-- 50.47% -->
    <g style="fill:#262626;" transform="translate(351.482043 187.682621)scale(0.15 -0.15)">
     <defs>
      <path d="M 266 1200 
L 856 1250 
Q 922 819 1161 601 
Q 1400 384 1738 384 
Q 2144 384 2425 690 
Q 2706 997 2706 1503 
Q 2706 1984 2436 2262 
Q 2166 2541 1728 2541 
Q 1456 2541 1237 2417 
Q 1019 2294 894 2097 
L 366 2166 
L 809 4519 
L 3088 4519 
L 3088 3981 
L 1259 3981 
L 1013 2750 
Q 1425 3038 1878 3038 
Q 2478 3038 2890 2622 
Q 3303 2206 3303 1553 
Q 3303 931 2941 478 
Q 2500 -78 1738 -78 
Q 1113 -78 717 272 
Q 322 622 266 1200 
z
" id="ArialMT-35" transform="scale(0.015625)"/>
      <path d="M 266 2259 
Q 266 3072 433 3567 
Q 600 4063 929 4331 
Q 1259 4600 1759 4600 
Q 2128 4600 2406 4451 
Q 2684 4303 2865 4023 
Q 3047 3744 3150 3342 
Q 3253 2941 3253 2259 
Q 3253 1453 3087 958 
Q 2922 463 2592 192 
Q 2263 -78 1759 -78 
Q 1097 -78 719 397 
Q 266 969 266 2259 
z
M 844 2259 
Q 844 1131 1108 757 
Q 1372 384 1759 384 
Q 2147 384 2411 759 
Q 2675 1134 2675 2259 
Q 2675 3391 2411 3762 
Q 2147 4134 1753 4134 
Q 1366 4134 1134 3806 
Q 844 3388 844 2259 
z
" id="ArialMT-30" transform="scale(0.015625)"/>
      <path d="M 581 0 
L 581 641 
L 1222 641 
L 1222 0 
L 581 0 
z
" id="ArialMT-2e" transform="scale(0.015625)"/>
      <path d="M 2069 0 
L 2069 1097 
L 81 1097 
L 81 1613 
L 2172 4581 
L 2631 4581 
L 2631 1613 
L 3250 1613 
L 3250 1097 
L 2631 1097 
L 2631 0 
L 2069 0 
z
M 2069 1613 
L 2069 3678 
L 634 1613 
L 2069 1613 
z
" id="ArialMT-34" transform="scale(0.015625)"/>
      <path d="M 303 3981 
L 303 4522 
L 3269 4522 
L 3269 4084 
Q 2831 3619 2401 2847 
Q 1972 2075 1738 1259 
Q 1569 684 1522 0 
L 944 0 
Q 953 541 1156 1306 
Q 1359 2072 1739 2783 
Q 2119 3494 2547 3981 
L 303 3981 
z
" id="ArialMT-37" transform="scale(0.015625)"/>
      <path d="M 372 3481 
Q 372 3972 619 4315 
Q 866 4659 1334 4659 
Q 1766 4659 2048 4351 
Q 2331 4044 2331 3447 
Q 2331 2866 2045 2552 
Q 1759 2238 1341 2238 
Q 925 2238 648 2547 
Q 372 2856 372 3481 
z
M 1350 4272 
Q 1141 4272 1002 4090 
Q 863 3909 863 3425 
Q 863 2984 1003 2804 
Q 1144 2625 1350 2625 
Q 1563 2625 1702 2806 
Q 1841 2988 1841 3469 
Q 1841 3913 1700 4092 
Q 1559 4272 1350 4272 
z
M 1353 -169 
L 3859 4659 
L 4316 4659 
L 1819 -169 
L 1353 -169 
z
M 3334 1075 
Q 3334 1569 3581 1911 
Q 3828 2253 4300 2253 
Q 4731 2253 5014 1945 
Q 5297 1638 5297 1041 
Q 5297 459 5011 145 
Q 4725 -169 4303 -169 
Q 3888 -169 3611 142 
Q 3334 453 3334 1075 
z
M 4316 1866 
Q 4103 1866 3964 1684 
Q 3825 1503 3825 1019 
Q 3825 581 3965 400 
Q 4106 219 4313 219 
Q 4528 219 4667 400 
Q 4806 581 4806 1063 
Q 4806 1506 4665 1686 
Q 4525 1866 4316 1866 
z
" id="ArialMT-25" transform="scale(0.015625)"/>
     </defs>
     <use xlink:href="#ArialMT-35"/>
     <use x="55.615234" xlink:href="#ArialMT-30"/>
     <use x="111.230469" xlink:href="#ArialMT-2e"/>
     <use x="139.013672" xlink:href="#ArialMT-34"/>
     <use x="194.628906" xlink:href="#ArialMT-37"/>
     <use x="250.244141" xlink:href="#ArialMT-25"/>
    </g>
   </g>
   <g id="text_3">
    <!-- Female -->
    <g style="fill:#262626;" transform="translate(527.734423 261.747554)scale(0.15 -0.15)">
     <defs>
      <path d="M 525 0 
L 525 4581 
L 3616 4581 
L 3616 4041 
L 1131 4041 
L 1131 2622 
L 3281 2622 
L 3281 2081 
L 1131 2081 
L 1131 0 
L 525 0 
z
" id="ArialMT-46" transform="scale(0.015625)"/>
      <path d="M 422 0 
L 422 3319 
L 925 3319 
L 925 2853 
Q 1081 3097 1340 3245 
Q 1600 3394 1931 3394 
Q 2300 3394 2536 3241 
Q 2772 3088 2869 2813 
Q 3263 3394 3894 3394 
Q 4388 3394 4653 3120 
Q 4919 2847 4919 2278 
L 4919 0 
L 4359 0 
L 4359 2091 
Q 4359 2428 4304 2576 
Q 4250 2725 4106 2815 
Q 3963 2906 3769 2906 
Q 3419 2906 3187 2673 
Q 2956 2441 2956 1928 
L 2956 0 
L 2394 0 
L 2394 2156 
Q 2394 2531 2256 2718 
Q 2119 2906 1806 2906 
Q 1569 2906 1367 2781 
Q 1166 2656 1075 2415 
Q 984 2175 984 1722 
L 984 0 
L 422 0 
z
" id="ArialMT-6d" transform="scale(0.015625)"/>
     </defs>
     <use xlink:href="#ArialMT-46"/>
     <use x="61.083984" xlink:href="#ArialMT-65"/>
     <use x="116.699219" xlink:href="#ArialMT-6d"/>
     <use x="200" xlink:href="#ArialMT-61"/>
     <use x="255.615234" xlink:href="#ArialMT-6c"/>
     <use x="277.832031" xlink:href="#ArialMT-65"/>
    </g>
   </g>
   <g id="text_4">
    <!-- 49.53% -->
    <g style="fill:#262626;" transform="translate(457.940983 239.963752)scale(0.15 -0.15)">
     <defs>
      <path d="M 350 1059 
L 891 1109 
Q 959 728 1153 556 
Q 1347 384 1650 384 
Q 1909 384 2104 503 
Q 2300 622 2425 820 
Q 2550 1019 2634 1356 
Q 2719 1694 2719 2044 
Q 2719 2081 2716 2156 
Q 2547 1888 2255 1720 
Q 1963 1553 1622 1553 
Q 1053 1553 659 1965 
Q 266 2378 266 3053 
Q 266 3750 677 4175 
Q 1088 4600 1706 4600 
Q 2153 4600 2523 4359 
Q 2894 4119 3086 3673 
Q 3278 3228 3278 2384 
Q 3278 1506 3087 986 
Q 2897 466 2520 194 
Q 2144 -78 1638 -78 
Q 1100 -78 759 220 
Q 419 519 350 1059 
z
M 2653 3081 
Q 2653 3566 2395 3850 
Q 2138 4134 1775 4134 
Q 1400 4134 1122 3828 
Q 844 3522 844 3034 
Q 844 2597 1108 2323 
Q 1372 2050 1759 2050 
Q 2150 2050 2401 2323 
Q 2653 2597 2653 3081 
z
" id="ArialMT-39" transform="scale(0.015625)"/>
      <path d="M 269 1209 
L 831 1284 
Q 928 806 1161 595 
Q 1394 384 1728 384 
Q 2125 384 2398 659 
Q 2672 934 2672 1341 
Q 2672 1728 2419 1979 
Q 2166 2231 1775 2231 
Q 1616 2231 1378 2169 
L 1441 2663 
Q 1497 2656 1531 2656 
Q 1891 2656 2178 2843 
Q 2466 3031 2466 3422 
Q 2466 3731 2256 3934 
Q 2047 4138 1716 4138 
Q 1388 4138 1169 3931 
Q 950 3725 888 3313 
L 325 3413 
Q 428 3978 793 4289 
Q 1159 4600 1703 4600 
Q 2078 4600 2393 4439 
Q 2709 4278 2876 4000 
Q 3044 3722 3044 3409 
Q 3044 3113 2884 2869 
Q 2725 2625 2413 2481 
Q 2819 2388 3044 2092 
Q 3269 1797 3269 1353 
Q 3269 753 2831 336 
Q 2394 -81 1725 -81 
Q 1122 -81 723 278 
Q 325 638 269 1209 
z
" id="ArialMT-33" transform="scale(0.015625)"/>
     </defs>
     <use xlink:href="#ArialMT-34"/>
     <use x="55.615234" xlink:href="#ArialMT-39"/>
     <use x="111.230469" xlink:href="#ArialMT-2e"/>
     <use x="139.013672" xlink:href="#ArialMT-35"/>
     <use x="194.628906" xlink:href="#ArialMT-33"/>
     <use x="250.244141" xlink:href="#ArialMT-25"/>
    </g>
   </g>
   <g id="text_5">
    <!-- gender -->
    <g style="fill:#262626;" transform="translate(399.012684 80.4)scale(0.2 -0.2)">
     <defs>
      <path d="M 319 -275 
L 866 -356 
Q 900 -609 1056 -725 
Q 1266 -881 1628 -881 
Q 2019 -881 2231 -725 
Q 2444 -569 2519 -288 
Q 2563 -116 2559 434 
Q 2191 0 1641 0 
Q 956 0 581 494 
Q 206 988 206 1678 
Q 206 2153 378 2554 
Q 550 2956 876 3175 
Q 1203 3394 1644 3394 
Q 2231 3394 2613 2919 
L 2613 3319 
L 3131 3319 
L 3131 450 
Q 3131 -325 2973 -648 
Q 2816 -972 2473 -1159 
Q 2131 -1347 1631 -1347 
Q 1038 -1347 672 -1080 
Q 306 -813 319 -275 
z
M 784 1719 
Q 784 1066 1043 766 
Q 1303 466 1694 466 
Q 2081 466 2343 764 
Q 2606 1063 2606 1700 
Q 2606 2309 2336 2618 
Q 2066 2928 1684 2928 
Q 1309 2928 1046 2623 
Q 784 2319 784 1719 
z
" id="ArialMT-67" transform="scale(0.015625)"/>
      <path d="M 422 0 
L 422 3319 
L 928 3319 
L 928 2847 
Q 1294 3394 1984 3394 
Q 2284 3394 2536 3286 
Q 2788 3178 2913 3003 
Q 3038 2828 3088 2588 
Q 3119 2431 3119 2041 
L 3119 0 
L 2556 0 
L 2556 2019 
Q 2556 2363 2490 2533 
Q 2425 2703 2258 2804 
Q 2091 2906 1866 2906 
Q 1506 2906 1245 2678 
Q 984 2450 984 1813 
L 984 0 
L 422 0 
z
" id="ArialMT-6e" transform="scale(0.015625)"/>
      <path d="M 2575 0 
L 2575 419 
Q 2259 -75 1647 -75 
Q 1250 -75 917 144 
Q 584 363 401 755 
Q 219 1147 219 1656 
Q 219 2153 384 2558 
Q 550 2963 881 3178 
Q 1213 3394 1622 3394 
Q 1922 3394 2156 3267 
Q 2391 3141 2538 2938 
L 2538 4581 
L 3097 4581 
L 3097 0 
L 2575 0 
z
M 797 1656 
Q 797 1019 1065 703 
Q 1334 388 1700 388 
Q 2069 388 2326 689 
Q 2584 991 2584 1609 
Q 2584 2291 2321 2609 
Q 2059 2928 1675 2928 
Q 1300 2928 1048 2622 
Q 797 2316 797 1656 
z
" id="ArialMT-64" transform="scale(0.015625)"/>
      <path d="M 416 0 
L 416 3319 
L 922 3319 
L 922 2816 
Q 1116 3169 1280 3281 
Q 1444 3394 1641 3394 
Q 1925 3394 2219 3213 
L 2025 2691 
Q 1819 2813 1613 2813 
Q 1428 2813 1281 2702 
Q 1134 2591 1072 2394 
Q 978 2094 978 1738 
L 978 0 
L 416 0 
z
" id="ArialMT-72" transform="scale(0.015625)"/>
     </defs>
     <use xlink:href="#ArialMT-67"/>
     <use x="55.615234" xlink:href="#ArialMT-65"/>
     <use x="111.230469" xlink:href="#ArialMT-6e"/>
     <use x="166.845703" xlink:href="#ArialMT-64"/>
     <use x="222.460938" xlink:href="#ArialMT-65"/>
     <use x="278.076172" xlink:href="#ArialMT-72"/>
    </g>
   </g>
  </g>
  <g id="axes_2">
   <g id="matplotlib.axis_3"/>
   <g id="matplotlib.axis_4"/>
   <g id="patch_6">
    <path d="M 978.61783 131.961884 
C 969.831148 125.577986 960.051979 120.685851 949.674187 117.482514 
C 939.296396 114.279176 928.461201 112.808227 917.605001 113.12891 
C 906.7488 113.449594 896.019324 115.557545 885.848709 119.367866 
C 875.678095 123.178186 866.204745 128.639025 857.810205 135.530442 
C 849.415665 142.421859 842.214168 150.650077 836.49576 159.883697 
C 830.777352 169.117317 826.619849 179.230689 824.190697 189.816489 
C 821.761546 200.402288 821.093801 211.316465 822.214358 222.11944 
C 823.334915 232.922416 826.228525 243.467185 830.778645 253.329048 
C 835.328765 263.19091 841.473477 272.235668 848.965299 280.099034 
C 856.457121 287.962401 865.194104 294.537373 874.824359 299.559138 
C 884.454614 304.580903 894.847093 307.981125 905.58323 309.622857 
C 916.319368 311.264589 927.253067 311.125491 937.943964 309.211165 
C 948.634862 307.296839 958.937476 303.633335 968.436862 298.368204 
C 977.936247 293.103073 986.503136 286.307962 993.792491 278.25655 
C 1001.081846 270.205138 1006.994473 261.006988 1011.292237 251.032563 
C 1015.590001 241.058137 1018.214417 230.443169 1019.059786 219.615182 
L 920.523273 211.922182 
L 978.61783 131.961884 
z
" style="fill:#0d2228;opacity:0.5;stroke:#0d2228;stroke-linejoin:miter;"/>
   </g>
   <g id="patch_7">
    <path d="M 1019.059786 219.615182 
C 1020.375152 202.767194 1017.347739 185.860057 1010.267905 170.515325 
C 1003.18807 155.170592 992.289629 141.895032 978.617845 131.961895 
L 920.523273 211.922182 
L 1019.059786 219.615182 
z
" style="fill:#3b1a0d;opacity:0.5;stroke:#3b1a0d;stroke-linejoin:miter;"/>
   </g>
   <g id="patch_8">
    <path d="M 980.594557 129.985157 
C 971.807875 123.601259 962.028706 118.709124 951.650915 115.505786 
C 941.273123 112.302449 930.437929 110.8315 919.581728 111.152183 
C 908.725527 111.472866 897.996051 113.580818 887.825437 117.391138 
C 877.654823 121.201459 868.181472 126.662297 859.786932 133.553715 
C 851.392392 140.445132 844.190895 148.673349 838.472487 157.90697 
C 832.754079 167.14059 828.596576 177.253962 826.167424 187.839761 
C 823.738273 198.425561 823.070528 209.339737 824.191085 220.142713 
C 825.311642 230.945689 828.205252 241.490457 832.755372 251.35232 
C 837.305492 261.214183 843.450205 270.25894 850.942027 278.122307 
C 858.433848 285.985674 867.170831 292.560646 876.801086 297.582411 
C 886.431341 302.604175 896.82382 306.004397 907.559957 307.64613 
C 918.296095 309.287862 929.229794 309.148764 939.920691 307.234438 
C 950.611589 305.320112 960.914203 301.656608 970.413589 296.391477 
C 979.912974 291.126346 988.479864 284.331235 995.769219 276.279823 
C 1003.058573 268.228411 1008.971201 259.03026 1013.268964 249.055835 
C 1017.566728 239.08141 1020.191145 228.466441 1021.036514 217.638455 
L 922.5 209.945455 
L 980.594557 129.985157 
z
" style="fill:#2b7087;stroke:#ffffff;stroke-linejoin:miter;"/>
   </g>
   <g id="patch_9">
    <path d="M 1021.036514 217.638455 
C 1022.35188 200.790467 1019.324467 183.88333 1012.244632 168.538597 
C 1005.164797 153.193864 994.266356 139.918304 980.594572 129.985168 
L 922.5 209.945455 
L 1021.036514 217.638455 
z
" style="fill:#c6582b;stroke:#ffffff;stroke-linejoin:miter;"/>
   </g>
   <g id="text_6">
    <!-- No -->
    <g style="fill:#262626;" transform="translate(804.60669 259.370741)scale(0.15 -0.15)">
     <defs>
      <path d="M 488 0 
L 488 4581 
L 1109 4581 
L 3516 984 
L 3516 4581 
L 4097 4581 
L 4097 0 
L 3475 0 
L 1069 3600 
L 1069 0 
L 488 0 
z
" id="ArialMT-4e" transform="scale(0.015625)"/>
      <path d="M 213 1659 
Q 213 2581 725 3025 
Q 1153 3394 1769 3394 
Q 2453 3394 2887 2945 
Q 3322 2497 3322 1706 
Q 3322 1066 3130 698 
Q 2938 331 2570 128 
Q 2203 -75 1769 -75 
Q 1072 -75 642 372 
Q 213 819 213 1659 
z
M 791 1659 
Q 791 1022 1069 705 
Q 1347 388 1769 388 
Q 2188 388 2466 706 
Q 2744 1025 2744 1678 
Q 2744 2294 2464 2611 
Q 2184 2928 1769 2928 
Q 1347 2928 1069 2612 
Q 791 2297 791 1659 
z
" id="ArialMT-6f" transform="scale(0.015625)"/>
     </defs>
     <use xlink:href="#ArialMT-4e"/>
     <use x="72.216797" xlink:href="#ArialMT-6f"/>
    </g>
   </g>
   <g id="text_7">
    <!-- 83.76% -->
    <g style="fill:#262626;" transform="translate(843.217676 238.667308)scale(0.15 -0.15)">
     <defs>
      <path d="M 1131 2484 
Q 781 2613 612 2850 
Q 444 3088 444 3419 
Q 444 3919 803 4259 
Q 1163 4600 1759 4600 
Q 2359 4600 2725 4251 
Q 3091 3903 3091 3403 
Q 3091 3084 2923 2848 
Q 2756 2613 2416 2484 
Q 2838 2347 3058 2040 
Q 3278 1734 3278 1309 
Q 3278 722 2862 322 
Q 2447 -78 1769 -78 
Q 1091 -78 675 323 
Q 259 725 259 1325 
Q 259 1772 486 2073 
Q 713 2375 1131 2484 
z
M 1019 3438 
Q 1019 3113 1228 2906 
Q 1438 2700 1772 2700 
Q 2097 2700 2305 2904 
Q 2513 3109 2513 3406 
Q 2513 3716 2298 3927 
Q 2084 4138 1766 4138 
Q 1444 4138 1231 3931 
Q 1019 3725 1019 3438 
z
M 838 1322 
Q 838 1081 952 856 
Q 1066 631 1291 507 
Q 1516 384 1775 384 
Q 2178 384 2440 643 
Q 2703 903 2703 1303 
Q 2703 1709 2433 1975 
Q 2163 2241 1756 2241 
Q 1359 2241 1098 1978 
Q 838 1716 838 1322 
z
" id="ArialMT-38" transform="scale(0.015625)"/>
      <path d="M 3184 3459 
L 2625 3416 
Q 2550 3747 2413 3897 
Q 2184 4138 1850 4138 
Q 1581 4138 1378 3988 
Q 1113 3794 959 3422 
Q 806 3050 800 2363 
Q 1003 2672 1297 2822 
Q 1591 2972 1913 2972 
Q 2475 2972 2870 2558 
Q 3266 2144 3266 1488 
Q 3266 1056 3080 686 
Q 2894 316 2569 119 
Q 2244 -78 1831 -78 
Q 1128 -78 684 439 
Q 241 956 241 2144 
Q 241 3472 731 4075 
Q 1159 4600 1884 4600 
Q 2425 4600 2770 4297 
Q 3116 3994 3184 3459 
z
M 888 1484 
Q 888 1194 1011 928 
Q 1134 663 1356 523 
Q 1578 384 1822 384 
Q 2178 384 2434 671 
Q 2691 959 2691 1453 
Q 2691 1928 2437 2201 
Q 2184 2475 1800 2475 
Q 1419 2475 1153 2201 
Q 888 1928 888 1484 
z
" id="ArialMT-36" transform="scale(0.015625)"/>
     </defs>
     <use xlink:href="#ArialMT-38"/>
     <use x="55.615234" xlink:href="#ArialMT-33"/>
     <use x="111.230469" xlink:href="#ArialMT-2e"/>
     <use x="139.013672" xlink:href="#ArialMT-37"/>
     <use x="194.628906" xlink:href="#ArialMT-36"/>
     <use x="250.244141" xlink:href="#ArialMT-25"/>
    </g>
   </g>
   <g id="text_8">
    <!-- Yes -->
    <g style="fill:#262626;" transform="translate(1021.219095 168.275646)scale(0.15 -0.15)">
     <defs>
      <path d="M 1784 0 
L 1784 1941 
L 19 4581 
L 756 4581 
L 1659 3200 
Q 1909 2813 2125 2425 
Q 2331 2784 2625 3234 
L 3513 4581 
L 4219 4581 
L 2391 1941 
L 2391 0 
L 1784 0 
z
" id="ArialMT-59" transform="scale(0.015625)"/>
      <path d="M 197 991 
L 753 1078 
Q 800 744 1014 566 
Q 1228 388 1613 388 
Q 2000 388 2187 545 
Q 2375 703 2375 916 
Q 2375 1106 2209 1216 
Q 2094 1291 1634 1406 
Q 1016 1563 777 1677 
Q 538 1791 414 1992 
Q 291 2194 291 2438 
Q 291 2659 392 2848 
Q 494 3038 669 3163 
Q 800 3259 1026 3326 
Q 1253 3394 1513 3394 
Q 1903 3394 2198 3281 
Q 2494 3169 2634 2976 
Q 2775 2784 2828 2463 
L 2278 2388 
Q 2241 2644 2061 2787 
Q 1881 2931 1553 2931 
Q 1166 2931 1000 2803 
Q 834 2675 834 2503 
Q 834 2394 903 2306 
Q 972 2216 1119 2156 
Q 1203 2125 1616 2013 
Q 2213 1853 2448 1751 
Q 2684 1650 2818 1456 
Q 2953 1263 2953 975 
Q 2953 694 2789 445 
Q 2625 197 2315 61 
Q 2006 -75 1616 -75 
Q 969 -75 630 194 
Q 291 463 197 991 
z
" id="ArialMT-73" transform="scale(0.015625)"/>
     </defs>
     <use xlink:href="#ArialMT-59"/>
     <use x="57.574219" xlink:href="#ArialMT-65"/>
     <use x="113.189453" xlink:href="#ArialMT-73"/>
    </g>
   </g>
   <g id="text_9">
    <!-- 16.24% -->
    <g style="fill:#262626;" transform="translate(950.911232 188.979075)scale(0.15 -0.15)">
     <defs>
      <path d="M 2384 0 
L 1822 0 
L 1822 3584 
Q 1619 3391 1289 3197 
Q 959 3003 697 2906 
L 697 3450 
Q 1169 3672 1522 3987 
Q 1875 4303 2022 4600 
L 2384 4600 
L 2384 0 
z
" id="ArialMT-31" transform="scale(0.015625)"/>
      <path d="M 3222 541 
L 3222 0 
L 194 0 
Q 188 203 259 391 
Q 375 700 629 1000 
Q 884 1300 1366 1694 
Q 2113 2306 2375 2664 
Q 2638 3022 2638 3341 
Q 2638 3675 2398 3904 
Q 2159 4134 1775 4134 
Q 1369 4134 1125 3890 
Q 881 3647 878 3216 
L 300 3275 
Q 359 3922 746 4261 
Q 1134 4600 1788 4600 
Q 2447 4600 2831 4234 
Q 3216 3869 3216 3328 
Q 3216 3053 3103 2787 
Q 2991 2522 2730 2228 
Q 2469 1934 1863 1422 
Q 1356 997 1212 845 
Q 1069 694 975 541 
L 3222 541 
z
" id="ArialMT-32" transform="scale(0.015625)"/>
     </defs>
     <use xlink:href="#ArialMT-31"/>
     <use x="55.615234" xlink:href="#ArialMT-36"/>
     <use x="111.230469" xlink:href="#ArialMT-2e"/>
     <use x="139.013672" xlink:href="#ArialMT-32"/>
     <use x="194.628906" xlink:href="#ArialMT-34"/>
     <use x="250.244141" xlink:href="#ArialMT-25"/>
    </g>
   </g>
   <g id="text_10">
    <!-- SeniorCitizen -->
    <g style="fill:#262626;" transform="translate(863.029688 80.4)scale(0.2 -0.2)">
     <defs>
      <path d="M 288 1472 
L 859 1522 
Q 900 1178 1048 958 
Q 1197 738 1509 602 
Q 1822 466 2213 466 
Q 2559 466 2825 569 
Q 3091 672 3220 851 
Q 3350 1031 3350 1244 
Q 3350 1459 3225 1620 
Q 3100 1781 2813 1891 
Q 2628 1963 1997 2114 
Q 1366 2266 1113 2400 
Q 784 2572 623 2826 
Q 463 3081 463 3397 
Q 463 3744 659 4045 
Q 856 4347 1234 4503 
Q 1613 4659 2075 4659 
Q 2584 4659 2973 4495 
Q 3363 4331 3572 4012 
Q 3781 3694 3797 3291 
L 3216 3247 
Q 3169 3681 2898 3903 
Q 2628 4125 2100 4125 
Q 1550 4125 1298 3923 
Q 1047 3722 1047 3438 
Q 1047 3191 1225 3031 
Q 1400 2872 2139 2705 
Q 2878 2538 3153 2413 
Q 3553 2228 3743 1945 
Q 3934 1663 3934 1294 
Q 3934 928 3725 604 
Q 3516 281 3123 101 
Q 2731 -78 2241 -78 
Q 1619 -78 1198 103 
Q 778 284 539 648 
Q 300 1013 288 1472 
z
" id="ArialMT-53" transform="scale(0.015625)"/>
      <path d="M 425 3934 
L 425 4581 
L 988 4581 
L 988 3934 
L 425 3934 
z
M 425 0 
L 425 3319 
L 988 3319 
L 988 0 
L 425 0 
z
" id="ArialMT-69" transform="scale(0.015625)"/>
      <path d="M 3763 1606 
L 4369 1453 
Q 4178 706 3683 314 
Q 3188 -78 2472 -78 
Q 1731 -78 1267 223 
Q 803 525 561 1097 
Q 319 1669 319 2325 
Q 319 3041 592 3573 
Q 866 4106 1370 4382 
Q 1875 4659 2481 4659 
Q 3169 4659 3637 4309 
Q 4106 3959 4291 3325 
L 3694 3184 
Q 3534 3684 3231 3912 
Q 2928 4141 2469 4141 
Q 1941 4141 1586 3887 
Q 1231 3634 1087 3207 
Q 944 2781 944 2328 
Q 944 1744 1114 1308 
Q 1284 872 1643 656 
Q 2003 441 2422 441 
Q 2931 441 3284 734 
Q 3638 1028 3763 1606 
z
" id="ArialMT-43" transform="scale(0.015625)"/>
      <path d="M 1650 503 
L 1731 6 
Q 1494 -44 1306 -44 
Q 1000 -44 831 53 
Q 663 150 594 308 
Q 525 466 525 972 
L 525 2881 
L 113 2881 
L 113 3319 
L 525 3319 
L 525 4141 
L 1084 4478 
L 1084 3319 
L 1650 3319 
L 1650 2881 
L 1084 2881 
L 1084 941 
Q 1084 700 1114 631 
Q 1144 563 1211 522 
Q 1278 481 1403 481 
Q 1497 481 1650 503 
z
" id="ArialMT-74" transform="scale(0.015625)"/>
      <path d="M 125 0 
L 125 456 
L 2238 2881 
Q 1878 2863 1603 2863 
L 250 2863 
L 250 3319 
L 2963 3319 
L 2963 2947 
L 1166 841 
L 819 456 
Q 1197 484 1528 484 
L 3063 484 
L 3063 0 
L 125 0 
z
" id="ArialMT-7a" transform="scale(0.015625)"/>
     </defs>
     <use xlink:href="#ArialMT-53"/>
     <use x="66.699219" xlink:href="#ArialMT-65"/>
     <use x="122.314453" xlink:href="#ArialMT-6e"/>
     <use x="177.929688" xlink:href="#ArialMT-69"/>
     <use x="200.146484" xlink:href="#ArialMT-6f"/>
     <use x="255.761719" xlink:href="#ArialMT-72"/>
     <use x="289.0625" xlink:href="#ArialMT-43"/>
     <use x="361.279297" xlink:href="#ArialMT-69"/>
     <use x="383.496094" xlink:href="#ArialMT-74"/>
     <use x="411.279297" xlink:href="#ArialMT-69"/>
     <use x="433.496094" xlink:href="#ArialMT-7a"/>
     <use x="483.496094" xlink:href="#ArialMT-65"/>
     <use x="539.111328" xlink:href="#ArialMT-6e"/>
    </g>
   </g>
  </g>
  <g id="axes_3">
   <g id="matplotlib.axis_5"/>
   <g id="matplotlib.axis_6"/>
   <g id="patch_10">
    <path d="M 1460.793034 298.366413 
C 1472.544563 291.852434 1482.845312 283.010032 1491.064277 272.380875 
C 1499.283242 261.751718 1505.249098 249.557371 1508.596387 236.544838 
C 1511.943677 223.532305 1512.602626 209.972832 1510.532868 196.697048 
C 1508.46311 183.421263 1503.70779 170.7059 1496.55821 159.329879 
C 1489.408629 147.953857 1480.013822 138.154311 1468.949295 130.531541 
C 1457.884769 122.908772 1445.381164 117.621676 1432.204428 114.994132 
C 1419.027692 112.366587 1405.452494 112.453365 1392.310426 115.24915 
C 1379.168358 118.044934 1366.733367 123.491447 1355.767196 131.255046 
L 1412.876214 211.922182 
L 1460.793034 298.366413 
z
" style="fill:#17073b;opacity:0.5;stroke:#17073b;stroke-linejoin:miter;"/>
   </g>
   <g id="patch_11">
    <path d="M 1355.767196 131.255046 
C 1335.146773 145.853458 1320.888911 167.816872 1315.948164 192.593968 
C 1311.007416 217.371064 1315.750385 243.123393 1329.194218 264.514485 
C 1342.638051 285.905577 1363.785223 301.348223 1388.253557 307.642355 
C 1412.721892 313.936487 1438.695849 310.615083 1460.793034 298.366413 
L 1412.876214 211.922182 
L 1355.767196 131.255046 
z
" style="fill:#203b1d;opacity:0.5;stroke:#203b1d;stroke-linejoin:miter;"/>
   </g>
   <g id="patch_12">
    <path d="M 1462.769761 296.389686 
C 1474.52129 289.875707 1484.82204 281.033304 1493.041004 270.404147 
C 1501.259969 259.77499 1507.225825 247.580644 1510.573114 234.568111 
C 1513.920404 221.555578 1514.579353 207.996105 1512.509595 194.72032 
C 1510.439837 181.444535 1505.684517 168.729173 1498.534937 157.353151 
C 1491.385357 145.97713 1481.990549 136.177584 1470.926022 128.554814 
C 1459.861496 120.932045 1447.357891 115.644949 1434.181155 113.017404 
C 1421.004419 110.38986 1407.429222 110.476638 1394.287154 113.272422 
C 1381.145086 116.068207 1368.710094 121.51472 1357.743923 129.278318 
L 1414.852941 209.945455 
L 1462.769761 296.389686 
z
" style="fill:#4c18c4;stroke:#ffffff;stroke-linejoin:miter;"/>
   </g>
   <g id="patch_13">
    <path d="M 1357.743923 129.278318 
C 1337.1235 143.87673 1322.865638 165.840145 1317.924891 190.617241 
C 1312.984144 215.394337 1317.727112 241.146666 1331.170945 262.537758 
C 1344.614779 283.92885 1365.76195 299.371496 1390.230285 305.665628 
C 1414.698619 311.95976 1440.672576 308.638355 1462.769761 296.389686 
L 1414.852941 209.945455 
L 1357.743923 129.278318 
z
" style="fill:#6bc561;stroke:#ffffff;stroke-linejoin:miter;"/>
   </g>
   <g id="text_11">
    <!-- No -->
    <g style="fill:#262626;" transform="translate(1506.903137 155.971655)scale(0.15 -0.15)">
     <use xlink:href="#ArialMT-4e"/>
     <use x="72.216797" xlink:href="#ArialMT-6f"/>
    </g>
   </g>
   <g id="text_12">
    <!-- 51.75% -->
    <g style="fill:#262626;" transform="translate(1439.626592 182.267807)scale(0.15 -0.15)">
     <use xlink:href="#ArialMT-35"/>
     <use x="55.615234" xlink:href="#ArialMT-31"/>
     <use x="111.230469" xlink:href="#ArialMT-2e"/>
     <use x="139.013672" xlink:href="#ArialMT-37"/>
     <use x="194.628906" xlink:href="#ArialMT-35"/>
     <use x="250.244141" xlink:href="#ArialMT-25"/>
    </g>
   </g>
   <g id="text_13">
    <!-- Yes -->
    <g style="fill:#262626;" transform="translate(1298.324621 271.674722)scale(0.15 -0.15)">
     <use xlink:href="#ArialMT-59"/>
     <use x="57.574219" xlink:href="#ArialMT-65"/>
     <use x="113.189453" xlink:href="#ArialMT-73"/>
    </g>
   </g>
   <g id="text_14">
    <!-- 48.25% -->
    <g style="fill:#262626;" transform="translate(1339.208197 245.378571)scale(0.15 -0.15)">
     <use xlink:href="#ArialMT-34"/>
     <use x="55.615234" xlink:href="#ArialMT-38"/>
     <use x="111.230469" xlink:href="#ArialMT-2e"/>
     <use x="139.013672" xlink:href="#ArialMT-32"/>
     <use x="194.628906" xlink:href="#ArialMT-35"/>
     <use x="250.244141" xlink:href="#ArialMT-25"/>
    </g>
   </g>
   <g id="text_15">
    <!-- Partner -->
    <g style="fill:#262626;" transform="translate(1382.062316 80.4)scale(0.2 -0.2)">
     <defs>
      <path d="M 494 0 
L 494 4581 
L 2222 4581 
Q 2678 4581 2919 4538 
Q 3256 4481 3484 4323 
Q 3713 4166 3852 3881 
Q 3991 3597 3991 3256 
Q 3991 2672 3619 2267 
Q 3247 1863 2275 1863 
L 1100 1863 
L 1100 0 
L 494 0 
z
M 1100 2403 
L 2284 2403 
Q 2872 2403 3119 2622 
Q 3366 2841 3366 3238 
Q 3366 3525 3220 3729 
Q 3075 3934 2838 4000 
Q 2684 4041 2272 4041 
L 1100 4041 
L 1100 2403 
z
" id="ArialMT-50" transform="scale(0.015625)"/>
     </defs>
     <use xlink:href="#ArialMT-50"/>
     <use x="66.699219" xlink:href="#ArialMT-61"/>
     <use x="122.314453" xlink:href="#ArialMT-72"/>
     <use x="155.615234" xlink:href="#ArialMT-74"/>
     <use x="183.398438" xlink:href="#ArialMT-6e"/>
     <use x="239.013672" xlink:href="#ArialMT-65"/>
     <use x="294.628906" xlink:href="#ArialMT-72"/>
    </g>
   </g>
  </g>
  <g id="axes_4">
   <g id="matplotlib.axis_7"/>
   <g id="matplotlib.axis_8"/>
   <g id="patch_14">
    <path d="M 473.041102 596.495118 
C 489.315974 588.202656 502.977899 575.558696 512.503265 559.973325 
C 522.02863 544.387954 527.049668 526.462913 527.006418 508.197248 
C 526.963169 489.931583 521.857302 472.030521 512.258237 456.490432 
C 502.659172 440.950344 488.937524 428.371224 472.623565 420.155926 
C 456.309605 411.940628 438.033207 408.406342 419.8326 409.947218 
C 401.631993 411.488095 384.209893 418.044642 369.509255 428.885658 
C 354.808616 439.726674 343.397024 454.433593 336.547126 471.366262 
C 329.697229 488.298931 327.673497 506.803591 330.701622 524.816554 
L 428.170332 508.431273 
L 473.041102 596.495118 
z
" style="fill:#151924;opacity:0.5;stroke:#151924;stroke-linejoin:miter;"/>
   </g>
   <g id="patch_15">
    <path d="M 330.701622 524.816554 
C 333.274154 540.119398 339.414773 554.603478 348.624717 567.09235 
C 357.834661 579.581221 369.857636 589.727345 383.717098 596.706619 
C 397.576561 603.685894 412.88683 607.304102 428.404356 607.267359 
C 443.921882 607.230617 459.214846 603.539947 473.041102 596.495118 
L 428.170332 508.431273 
L 330.701622 524.816554 
z
" style="fill:#09372a;opacity:0.5;stroke:#09372a;stroke-linejoin:miter;"/>
   </g>
   <g id="patch_16">
    <path d="M 475.017829 594.51839 
C 491.292701 586.225929 504.954626 573.581969 514.479992 557.996598 
C 524.005358 542.411227 529.026395 524.486186 528.983145 506.220521 
C 528.939896 487.954856 523.834029 470.053793 514.234964 454.513705 
C 504.6359 438.973617 490.914251 426.394496 474.600292 418.179199 
C 458.286332 409.963901 440.009934 406.429614 421.809328 407.970491 
C 403.608721 409.511367 386.18662 416.067915 371.485982 426.908931 
C 356.785344 437.749947 345.373751 452.456865 338.523853 469.389535 
C 331.673956 486.322204 329.650224 504.826863 332.678349 522.839827 
L 430.147059 506.454545 
L 475.017829 594.51839 
z
" style="fill:#475279;stroke:#ffffff;stroke-linejoin:miter;"/>
   </g>
   <g id="patch_17">
    <path d="M 332.678349 522.839827 
C 335.250882 538.142671 341.3915 552.626751 350.601444 565.115622 
C 359.811388 577.604494 371.834364 587.750617 385.693826 594.729892 
C 399.553288 601.709167 414.863557 605.327375 430.381084 605.290632 
C 445.89861 605.25389 461.191573 601.563219 475.017829 594.51839 
L 430.147059 506.454545 
L 332.678349 522.839827 
z
" style="fill:#1db98d;stroke:#ffffff;stroke-linejoin:miter;"/>
   </g>
   <g id="text_16">
    <!-- No -->
    <g style="fill:#262626;" transform="translate(479.045615 413.229398)scale(0.15 -0.15)">
     <use xlink:href="#ArialMT-4e"/>
     <use x="72.216797" xlink:href="#ArialMT-6f"/>
    </g>
   </g>
   <g id="text_17">
    <!-- 70.15% -->
    <g style="fill:#262626;" transform="translate(431.383452 457.367072)scale(0.15 -0.15)">
     <use xlink:href="#ArialMT-37"/>
     <use x="55.615234" xlink:href="#ArialMT-30"/>
     <use x="111.230469" xlink:href="#ArialMT-2e"/>
     <use x="139.013672" xlink:href="#ArialMT-31"/>
     <use x="194.628906" xlink:href="#ArialMT-35"/>
     <use x="250.244141" xlink:href="#ArialMT-25"/>
    </g>
   </g>
   <g id="text_18">
    <!-- Yes -->
    <g style="fill:#262626;" transform="translate(356.770377 607.435161)scale(0.15 -0.15)">
     <use xlink:href="#ArialMT-59"/>
     <use x="57.574219" xlink:href="#ArialMT-65"/>
     <use x="113.189453" xlink:href="#ArialMT-73"/>
    </g>
   </g>
   <g id="text_19">
    <!-- 29.85% -->
    <g style="fill:#262626;" transform="translate(378.039572 563.297488)scale(0.15 -0.15)">
     <use xlink:href="#ArialMT-32"/>
     <use x="55.615234" xlink:href="#ArialMT-39"/>
     <use x="111.230469" xlink:href="#ArialMT-2e"/>
     <use x="139.013672" xlink:href="#ArialMT-38"/>
     <use x="194.628906" xlink:href="#ArialMT-35"/>
     <use x="250.244141" xlink:href="#ArialMT-25"/>
    </g>
   </g>
   <g id="text_20">
    <!-- Dependents -->
    <g style="fill:#262626;" transform="translate(376.220496 376.909091)scale(0.2 -0.2)">
     <defs>
      <path d="M 494 0 
L 494 4581 
L 2072 4581 
Q 2606 4581 2888 4516 
Q 3281 4425 3559 4188 
Q 3922 3881 4101 3404 
Q 4281 2928 4281 2316 
Q 4281 1794 4159 1391 
Q 4038 988 3847 723 
Q 3656 459 3429 307 
Q 3203 156 2883 78 
Q 2563 0 2147 0 
L 494 0 
z
M 1100 541 
L 2078 541 
Q 2531 541 2789 625 
Q 3047 709 3200 863 
Q 3416 1078 3536 1442 
Q 3656 1806 3656 2325 
Q 3656 3044 3420 3430 
Q 3184 3816 2847 3947 
Q 2603 4041 2063 4041 
L 1100 4041 
L 1100 541 
z
" id="ArialMT-44" transform="scale(0.015625)"/>
      <path d="M 422 -1272 
L 422 3319 
L 934 3319 
L 934 2888 
Q 1116 3141 1344 3267 
Q 1572 3394 1897 3394 
Q 2322 3394 2647 3175 
Q 2972 2956 3137 2557 
Q 3303 2159 3303 1684 
Q 3303 1175 3120 767 
Q 2938 359 2589 142 
Q 2241 -75 1856 -75 
Q 1575 -75 1351 44 
Q 1128 163 984 344 
L 984 -1272 
L 422 -1272 
z
M 931 1641 
Q 931 1000 1190 694 
Q 1450 388 1819 388 
Q 2194 388 2461 705 
Q 2728 1022 2728 1688 
Q 2728 2322 2467 2637 
Q 2206 2953 1844 2953 
Q 1484 2953 1207 2617 
Q 931 2281 931 1641 
z
" id="ArialMT-70" transform="scale(0.015625)"/>
     </defs>
     <use xlink:href="#ArialMT-44"/>
     <use x="72.216797" xlink:href="#ArialMT-65"/>
     <use x="127.832031" xlink:href="#ArialMT-70"/>
     <use x="183.447266" xlink:href="#ArialMT-65"/>
     <use x="239.0625" xlink:href="#ArialMT-6e"/>
     <use x="294.677734" xlink:href="#ArialMT-64"/>
     <use x="350.292969" xlink:href="#ArialMT-65"/>
     <use x="405.908203" xlink:href="#ArialMT-6e"/>
     <use x="461.523438" xlink:href="#ArialMT-74"/>
     <use x="489.306641" xlink:href="#ArialMT-73"/>
    </g>
   </g>
  </g>
  <g id="axes_5">
   <g id="matplotlib.axis_9"/>
   <g id="matplotlib.axis_10"/>
   <g id="patch_18">
    <path d="M 944.433953 604.331774 
C 955.803024 601.497146 966.577967 596.663256 976.254665 590.056261 
C 985.931364 583.449266 994.356515 575.173837 1001.13594 565.61715 
C 1007.915366 556.060463 1012.941662 545.373918 1015.979668 534.057497 
C 1019.017675 522.741075 1020.019262 510.974057 1018.93757 499.306974 
C 1017.855878 487.639892 1014.708044 476.257579 1009.641341 465.692571 
C 1004.574639 455.127563 997.669337 445.547234 989.248508 437.39981 
C 980.82768 429.252386 971.02473 422.666942 960.298301 417.951585 
C 949.571871 413.236228 938.091895 410.465661 926.395475 409.769507 
C 914.699055 409.073353 902.97149 410.462642 891.761468 413.872374 
C 880.551445 417.282106 870.036559 422.658262 860.708758 429.749314 
C 851.380958 436.840366 843.388019 445.533974 837.103899 455.423398 
C 830.819779 465.312822 826.344033 476.24139 823.886066 487.697798 
C 821.428098 499.154205 821.026848 510.956954 822.701088 522.553842 
C 824.375328 534.150729 828.098535 545.358031 833.696514 555.651403 
C 839.294493 565.944775 846.678559 575.161145 855.50324 582.869315 
C 864.327921 590.577484 874.453413 596.655338 885.405984 600.818517 
L 920.523273 508.431273 
L 944.433953 604.331774 
z
" style="fill:#37484b;opacity:0.5;stroke:#37484b;stroke-linejoin:miter;"/>
   </g>
   <g id="patch_19">
    <path d="M 885.405984 600.818517 
C 894.779515 604.381487 904.640935 606.49725 914.651073 607.093039 
C 924.661211 607.688827 934.703975 606.75773 944.433958 604.331773 
L 920.523273 508.431273 
L 885.405984 600.818517 
z
" style="fill:#463132;opacity:0.5;stroke:#463132;stroke-linejoin:miter;"/>
   </g>
   <g id="patch_20">
    <path d="M 946.41068 602.355047 
C 957.779751 599.520419 968.554694 594.686528 978.231392 588.079534 
C 987.908091 581.472539 996.333243 573.19711 1003.112668 563.640423 
C 1009.892093 554.083736 1014.918389 543.397191 1017.956395 532.080769 
C 1020.994402 520.764348 1021.995989 508.99733 1020.914298 497.330247 
C 1019.832606 485.663164 1016.684771 474.280852 1011.618069 463.715844 
C 1006.551366 453.150835 999.646065 443.570506 991.225236 435.423082 
C 982.804407 427.275658 973.001457 420.690214 962.275028 415.974858 
C 951.548599 411.259501 940.068622 408.488933 928.372202 407.79278 
C 916.675782 407.096626 904.948217 408.485915 893.738195 411.895647 
C 882.528172 415.305378 872.013286 420.681535 862.685486 427.772587 
C 853.357685 434.863639 845.364746 443.557246 839.080626 453.446671 
C 832.796506 463.336095 828.320761 474.264663 825.862793 485.72107 
C 823.404825 497.177478 823.003575 508.980227 824.677815 520.577114 
C 826.352056 532.174002 830.075262 543.381304 835.673241 553.674676 
C 841.27122 563.968048 848.655286 573.184418 857.479967 580.892587 
C 866.304648 588.600757 876.43014 594.678611 887.382712 598.841789 
L 922.5 506.454545 
L 946.41068 602.355047 
z
" style="fill:#b8f0fb;stroke:#ffffff;stroke-linejoin:miter;"/>
   </g>
   <g id="patch_21">
    <path d="M 887.382712 598.841789 
C 896.756242 602.404759 906.617662 604.520523 916.6278 605.116311 
C 926.637938 605.7121 936.680702 604.781003 946.410685 602.355046 
L 922.5 506.454545 
L 887.382712 598.841789 
z
" style="fill:#e8a2a7;stroke:#ffffff;stroke-linejoin:miter;"/>
   </g>
   <g id="text_21">
    <!-- Yes -->
    <g style="fill:#262626;" transform="translate(928.959423 401.804338)scale(0.15 -0.15)">
     <use xlink:href="#ArialMT-59"/>
     <use x="57.574219" xlink:href="#ArialMT-65"/>
     <use x="113.189453" xlink:href="#ArialMT-73"/>
    </g>
   </g>
   <g id="text_22">
    <!-- 90.33% -->
    <g style="fill:#262626;" transform="translate(900.587774 451.13522)scale(0.15 -0.15)">
     <use xlink:href="#ArialMT-39"/>
     <use x="55.615234" xlink:href="#ArialMT-30"/>
     <use x="111.230469" xlink:href="#ArialMT-2e"/>
     <use x="139.013672" xlink:href="#ArialMT-33"/>
     <use x="194.628906" xlink:href="#ArialMT-33"/>
     <use x="250.244141" xlink:href="#ArialMT-25"/>
    </g>
   </g>
   <g id="text_23">
    <!-- No -->
    <g style="fill:#262626;" transform="translate(896.866361 618.860222)scale(0.15 -0.15)">
     <use xlink:href="#ArialMT-4e"/>
     <use x="72.216797" xlink:href="#ArialMT-6f"/>
    </g>
   </g>
   <g id="text_24">
    <!-- 9.67% -->
    <g style="fill:#262626;" transform="translate(897.711836 569.529339)scale(0.15 -0.15)">
     <use xlink:href="#ArialMT-39"/>
     <use x="55.615234" xlink:href="#ArialMT-2e"/>
     <use x="83.398438" xlink:href="#ArialMT-36"/>
     <use x="139.013672" xlink:href="#ArialMT-37"/>
     <use x="194.628906" xlink:href="#ArialMT-25"/>
    </g>
   </g>
   <g id="text_25">
    <!-- PhoneService -->
    <g style="fill:#262626;" transform="translate(860.242188 376.909091)scale(0.2 -0.2)">
     <defs>
      <path d="M 422 0 
L 422 4581 
L 984 4581 
L 984 2938 
Q 1378 3394 1978 3394 
Q 2347 3394 2619 3248 
Q 2891 3103 3008 2847 
Q 3125 2591 3125 2103 
L 3125 0 
L 2563 0 
L 2563 2103 
Q 2563 2525 2380 2717 
Q 2197 2909 1863 2909 
Q 1613 2909 1392 2779 
Q 1172 2650 1078 2428 
Q 984 2206 984 1816 
L 984 0 
L 422 0 
z
" id="ArialMT-68" transform="scale(0.015625)"/>
      <path d="M 1344 0 
L 81 3319 
L 675 3319 
L 1388 1331 
Q 1503 1009 1600 663 
Q 1675 925 1809 1294 
L 2547 3319 
L 3125 3319 
L 1869 0 
L 1344 0 
z
" id="ArialMT-76" transform="scale(0.015625)"/>
      <path d="M 2588 1216 
L 3141 1144 
Q 3050 572 2676 248 
Q 2303 -75 1759 -75 
Q 1078 -75 664 370 
Q 250 816 250 1647 
Q 250 2184 428 2587 
Q 606 2991 970 3192 
Q 1334 3394 1763 3394 
Q 2303 3394 2647 3120 
Q 2991 2847 3088 2344 
L 2541 2259 
Q 2463 2594 2264 2762 
Q 2066 2931 1784 2931 
Q 1359 2931 1093 2626 
Q 828 2322 828 1663 
Q 828 994 1084 691 
Q 1341 388 1753 388 
Q 2084 388 2306 591 
Q 2528 794 2588 1216 
z
" id="ArialMT-63" transform="scale(0.015625)"/>
     </defs>
     <use xlink:href="#ArialMT-50"/>
     <use x="66.699219" xlink:href="#ArialMT-68"/>
     <use x="122.314453" xlink:href="#ArialMT-6f"/>
     <use x="177.929688" xlink:href="#ArialMT-6e"/>
     <use x="233.544922" xlink:href="#ArialMT-65"/>
     <use x="289.160156" xlink:href="#ArialMT-53"/>
     <use x="355.859375" xlink:href="#ArialMT-65"/>
     <use x="411.474609" xlink:href="#ArialMT-72"/>
     <use x="444.775391" xlink:href="#ArialMT-76"/>
     <use x="494.775391" xlink:href="#ArialMT-69"/>
     <use x="516.992188" xlink:href="#ArialMT-63"/>
     <use x="566.992188" xlink:href="#ArialMT-65"/>
    </g>
   </g>
  </g>
  <g id="axes_6">
   <g id="matplotlib.axis_11"/>
   <g id="matplotlib.axis_12"/>
   <g id="patch_22">
    <path d="M 1409.426875 607.207428 
C 1424.439438 607.731678 1439.375815 604.826552 1453.097424 598.713503 
C 1466.819032 592.600454 1478.968121 583.438862 1488.61858 571.927105 
C 1498.269039 560.415348 1505.16926 546.853561 1508.793249 532.275543 
C 1512.417237 517.697525 1512.670507 502.483355 1509.533753 487.79279 
C 1506.396999 473.102226 1499.952001 459.318281 1490.690056 447.49169 
C 1481.42811 435.665098 1469.590695 426.104203 1456.080161 419.537821 
C 1442.569627 412.971439 1427.738222 409.570768 1412.716527 409.595038 
C 1397.694832 409.619308 1382.874494 413.067886 1369.385249 419.677891 
L 1412.876214 508.431273 
L 1409.426875 607.207428 
z
" style="fill:#36192a;opacity:0.5;stroke:#36192a;stroke-linejoin:miter;"/>
   </g>
   <g id="patch_23">
    <path d="M 1369.385249 419.677891 
C 1349.60014 429.372998 1333.613889 445.410989 1323.982764 465.227322 
C 1314.35164 485.043655 1311.617897 507.522624 1316.218673 529.069746 
C 1320.819449 550.616868 1332.495709 570.01899 1349.380371 584.17363 
C 1366.265032 598.32827 1387.407447 606.438488 1409.426856 607.207427 
L 1412.876214 508.431273 
L 1369.385249 419.677891 
z
" style="fill:#2c4649;opacity:0.5;stroke:#2c4649;stroke-linejoin:miter;"/>
   </g>
   <g id="patch_24">
    <path d="M 1411.403602 605.230701 
C 1426.416165 605.754951 1441.352543 602.849824 1455.074151 596.736775 
C 1468.795759 590.623726 1480.944848 581.462135 1490.595307 569.950378 
C 1500.245766 558.438621 1507.145988 544.876834 1510.769976 530.298816 
C 1514.393964 515.720798 1514.647234 500.506627 1511.51048 485.816063 
C 1508.373726 471.125499 1501.928729 457.341554 1492.666783 445.514962 
C 1483.404838 433.688371 1471.567422 424.127476 1458.056888 417.561094 
C 1444.546354 410.994711 1429.714949 407.594041 1414.693254 407.618311 
C 1399.67156 407.642581 1384.851221 411.091159 1371.361976 417.701164 
L 1414.852941 506.454545 
L 1411.403602 605.230701 
z
" style="fill:#b4548c;stroke:#ffffff;stroke-linejoin:miter;"/>
   </g>
   <g id="patch_25">
    <path d="M 1371.361976 417.701164 
C 1351.576867 427.39627 1335.590616 443.434261 1325.959491 463.250595 
C 1316.328367 483.066928 1313.594624 505.545896 1318.1954 527.093019 
C 1322.796176 548.640141 1334.472437 568.042263 1351.357098 582.196903 
C 1368.241759 596.351543 1389.384175 604.461761 1411.403583 605.2307 
L 1414.852941 506.454545 
L 1371.361976 417.701164 
z
" style="fill:#92e8f4;stroke:#ffffff;stroke-linejoin:miter;"/>
   </g>
   <g id="text_26">
    <!-- No -->
    <g style="fill:#262626;" transform="translate(1521.176234 487.629949)scale(0.15 -0.15)">
     <use xlink:href="#ArialMT-4e"/>
     <use x="72.216797" xlink:href="#ArialMT-6f"/>
    </g>
   </g>
   <g id="text_27">
    <!-- 57.81% -->
    <g style="fill:#262626;" transform="translate(1447.411918 497.94919)scale(0.15 -0.15)">
     <use xlink:href="#ArialMT-35"/>
     <use x="55.615234" xlink:href="#ArialMT-37"/>
     <use x="111.230469" xlink:href="#ArialMT-2e"/>
     <use x="139.013672" xlink:href="#ArialMT-38"/>
     <use x="194.628906" xlink:href="#ArialMT-31"/>
     <use x="250.244141" xlink:href="#ArialMT-25"/>
    </g>
   </g>
   <g id="text_28">
    <!-- Yes -->
    <g style="fill:#262626;" transform="translate(1284.051521 533.0346)scale(0.15 -0.15)">
     <use xlink:href="#ArialMT-59"/>
     <use x="57.574219" xlink:href="#ArialMT-65"/>
     <use x="113.189453" xlink:href="#ArialMT-73"/>
    </g>
   </g>
   <g id="text_29">
    <!-- 42.19% -->
    <g style="fill:#262626;" transform="translate(1331.42287 522.715364)scale(0.15 -0.15)">
     <use xlink:href="#ArialMT-34"/>
     <use x="55.615234" xlink:href="#ArialMT-32"/>
     <use x="111.230469" xlink:href="#ArialMT-2e"/>
     <use x="139.013672" xlink:href="#ArialMT-31"/>
     <use x="194.628906" xlink:href="#ArialMT-39"/>
     <use x="250.244141" xlink:href="#ArialMT-25"/>
    </g>
   </g>
   <g id="text_30">
    <!-- MultipleLines -->
    <g style="fill:#262626;" transform="translate(1356.492004 376.909091)scale(0.2 -0.2)">
     <defs>
      <path d="M 2597 0 
L 2597 488 
Q 2209 -75 1544 -75 
Q 1250 -75 995 37 
Q 741 150 617 320 
Q 494 491 444 738 
Q 409 903 409 1263 
L 409 3319 
L 972 3319 
L 972 1478 
Q 972 1038 1006 884 
Q 1059 663 1231 536 
Q 1403 409 1656 409 
Q 1909 409 2131 539 
Q 2353 669 2445 892 
Q 2538 1116 2538 1541 
L 2538 3319 
L 3100 3319 
L 3100 0 
L 2597 0 
z
" id="ArialMT-75" transform="scale(0.015625)"/>
      <path d="M 469 0 
L 469 4581 
L 1075 4581 
L 1075 541 
L 3331 541 
L 3331 0 
L 469 0 
z
" id="ArialMT-4c" transform="scale(0.015625)"/>
     </defs>
     <use xlink:href="#ArialMT-4d"/>
     <use x="83.300781" xlink:href="#ArialMT-75"/>
     <use x="138.916016" xlink:href="#ArialMT-6c"/>
     <use x="161.132812" xlink:href="#ArialMT-74"/>
     <use x="188.916016" xlink:href="#ArialMT-69"/>
     <use x="211.132812" xlink:href="#ArialMT-70"/>
     <use x="266.748047" xlink:href="#ArialMT-6c"/>
     <use x="288.964844" xlink:href="#ArialMT-65"/>
     <use x="344.580078" xlink:href="#ArialMT-4c"/>
     <use x="400.195312" xlink:href="#ArialMT-69"/>
     <use x="422.412109" xlink:href="#ArialMT-6e"/>
     <use x="478.027344" xlink:href="#ArialMT-65"/>
     <use x="533.642578" xlink:href="#ArialMT-73"/>
    </g>
   </g>
  </g>
 </g>
</svg>
