<?xml version="1.0" encoding="utf-8" standalone="no"?>
<!DOCTYPE svg PUBLIC "-//W3C//DTD SVG 1.1//EN"
  "http://www.w3.org/Graphics/SVG/1.1/DTD/svg11.dtd">
<svg height="720pt" version="1.1" viewBox="0 0 1800 720" width="1800pt" xmlns="http://www.w3.org/2000/svg" xmlns:xlink="http://www.w3.org/1999/xlink">
 <metadata>
  <rdf:RDF xmlns:cc="http://creativecommons.org/ns#" xmlns:dc="http://purl.org/dc/elements/1.1/" xmlns:rdf="http://www.w3.org/1999/02/22-rdf-syntax-ns#">
   <cc:Work>
    <dc:type rdf:resource="http://purl.org/dc/dcmitype/StillImage"/>
    <dc:date>2022-03-10T09:41:16.151386</dc:date>
    <dc:format>image/svg+xml</dc:format>
    <dc:creator>
     <cc:Agent>
      <dc:title>Matplotlib v3.4.3, https://matplotlib.org/</dc:title>
     </cc:Agent>
    </dc:creator>
   </cc:Work>
  </rdf:RDF>
 </metadata>
 <defs>
  <style type="text/css">*{stroke-linecap:butt;stroke-linejoin:round;}</style>
 </defs>
 <g id="figure_1">
  <g id="patch_1">
   <path d="M 0 720 
L 1800 720 
L 1800 0 
L 0 0 
z
" style="fill:#ffffff;"/>
  </g>
  <g id="axes_1">
   <g id="matplotlib.axis_1"/>
   <g id="matplotlib.axis_2"/>
   <g id="patch_2">
    <path d="M 389.551888 302.901534 
C 402.536189 308.413043 416.55118 311.081604 430.652362 310.727376 
C 444.753545 310.373147 458.616872 307.004271 471.308069 300.847782 
C 483.999265 294.691293 495.226685 285.888668 504.233691 275.033132 
C 513.240698 264.177596 519.820309 251.518612 523.529112 237.909291 
C 527.237914 224.29997 527.99068 210.053058 525.736679 196.12868 
C 523.482677 182.204302 518.273706 168.922443 510.460807 157.178192 
C 502.647908 145.43394 492.410623 135.497182 480.438862 128.037573 
C 468.467101 120.577965 455.035977 115.766929 441.050638 113.92869 
L 428.170332 211.922182 
L 389.551888 302.901534 
z
" style="fill:#4a080e;opacity:0.5;stroke:#4a080e;stroke-linejoin:miter;"/>
   </g>
   <g id="patch_3">
    <path d="M 441.050638 113.92869 
C 417.358288 110.814557 393.322099 116.395993 373.426341 129.631707 
C 353.530584 142.86742 339.094578 162.87973 332.811552 185.935073 
C 326.528525 208.990415 328.815116 233.559956 339.244731 255.059919 
C 349.674346 276.559882 367.55538 293.564571 389.551888 302.901534 
L 428.170332 211.922182 
L 441.050638 113.92869 
z
" style="fill:#130649;opacity:0.5;stroke:#130649;stroke-linejoin:miter;"/>
   </g>
   <g id="patch_4">
    <path d="M 391.528615 300.924807 
C 404.512917 306.436316 418.527907 309.104876 432.62909 308.750648 
C 446.730272 308.39642 460.593599 305.027544 473.284796 298.871055 
C 485.975992 292.714566 497.203412 283.911941 506.210419 273.056405 
C 515.217425 262.200869 521.797036 249.541885 525.505839 235.932564 
C 529.214642 222.323243 529.967407 208.076331 527.713406 194.151953 
C 525.459404 180.227575 520.250433 166.945716 512.437534 155.201464 
C 504.624635 143.457213 494.38735 133.520455 482.415589 126.060846 
C 470.443828 118.601237 457.012704 113.790201 443.027365 111.951962 
L 430.147059 209.945455 
L 391.528615 300.924807 
z
" style="fill:#f51930;stroke:#ffffff;stroke-linejoin:miter;"/>
   </g>
   <g id="patch_5">
    <path d="M 443.027365 111.951962 
C 419.335015 108.83783 395.298826 114.419266 375.403069 127.654979 
C 355.507312 140.890693 341.071305 160.903002 334.788279 183.958345 
C 328.505253 207.013688 330.791844 231.583229 341.221458 253.083192 
C 351.651073 274.583154 369.532107 291.587843 391.528615 300.924807 
L 430.147059 209.945455 
L 443.027365 111.951962 
z
" style="fill:#3f13f3;stroke:#ffffff;stroke-linejoin:miter;"/>
   </g>
   <g id="text_1">
    <!-- No -->
    <g style="fill:#262626;" transform="translate(535.041717 242.409009)scale(0.15 -0.15)">
     <defs>
      <path d="M 488 0 
L 488 4581 
L 1109 4581 
L 3516 984 
L 3516 4581 
L 4097 4581 
L 4097 0 
L 3475 0 
L 1069 3600 
L 1069 0 
L 488 0 
z
" id="ArialMT-4e" transform="scale(0.015625)"/>
      <path d="M 213 1659 
Q 213 2581 725 3025 
Q 1153 3394 1769 3394 
Q 2453 3394 2887 2945 
Q 3322 2497 3322 1706 
Q 3322 1066 3130 698 
Q 2938 331 2570 128 
Q 2203 -75 1769 -75 
Q 1072 -75 642 372 
Q 213 819 213 1659 
z
M 791 1659 
Q 791 1022 1069 705 
Q 1347 388 1769 388 
Q 2188 388 2466 706 
Q 2744 1025 2744 1678 
Q 2744 2294 2464 2611 
Q 2184 2928 1769 2928 
Q 1347 2928 1069 2612 
Q 791 2297 791 1659 
z
" id="ArialMT-6f" transform="scale(0.015625)"/>
     </defs>
     <use xlink:href="#ArialMT-4e"/>
     <use x="72.216797" xlink:href="#ArialMT-6f"/>
    </g>
   </g>
   <g id="text_2">
    <!-- 54.31% -->
    <g style="fill:#262626;" transform="translate(461.92678 229.415455)scale(0.15 -0.15)">
     <defs>
      <path d="M 266 1200 
L 856 1250 
Q 922 819 1161 601 
Q 1400 384 1738 384 
Q 2144 384 2425 690 
Q 2706 997 2706 1503 
Q 2706 1984 2436 2262 
Q 2166 2541 1728 2541 
Q 1456 2541 1237 2417 
Q 1019 2294 894 2097 
L 366 2166 
L 809 4519 
L 3088 4519 
L 3088 3981 
L 1259 3981 
L 1013 2750 
Q 1425 3038 1878 3038 
Q 2478 3038 2890 2622 
Q 3303 2206 3303 1553 
Q 3303 931 2941 478 
Q 2500 -78 1738 -78 
Q 1113 -78 717 272 
Q 322 622 266 1200 
z
" id="ArialMT-35" transform="scale(0.015625)"/>
      <path d="M 2069 0 
L 2069 1097 
L 81 1097 
L 81 1613 
L 2172 4581 
L 2631 4581 
L 2631 1613 
L 3250 1613 
L 3250 1097 
L 2631 1097 
L 2631 0 
L 2069 0 
z
M 2069 1613 
L 2069 3678 
L 634 1613 
L 2069 1613 
z
" id="ArialMT-34" transform="scale(0.015625)"/>
      <path d="M 581 0 
L 581 641 
L 1222 641 
L 1222 0 
L 581 0 
z
" id="ArialMT-2e" transform="scale(0.015625)"/>
      <path d="M 269 1209 
L 831 1284 
Q 928 806 1161 595 
Q 1394 384 1728 384 
Q 2125 384 2398 659 
Q 2672 934 2672 1341 
Q 2672 1728 2419 1979 
Q 2166 2231 1775 2231 
Q 1616 2231 1378 2169 
L 1441 2663 
Q 1497 2656 1531 2656 
Q 1891 2656 2178 2843 
Q 2466 3031 2466 3422 
Q 2466 3731 2256 3934 
Q 2047 4138 1716 4138 
Q 1388 4138 1169 3931 
Q 950 3725 888 3313 
L 325 3413 
Q 428 3978 793 4289 
Q 1159 4600 1703 4600 
Q 2078 4600 2393 4439 
Q 2709 4278 2876 4000 
Q 3044 3722 3044 3409 
Q 3044 3113 2884 2869 
Q 2725 2625 2413 2481 
Q 2819 2388 3044 2092 
Q 3269 1797 3269 1353 
Q 3269 753 2831 336 
Q 2394 -81 1725 -81 
Q 1122 -81 723 278 
Q 325 638 269 1209 
z
" id="ArialMT-33" transform="scale(0.015625)"/>
      <path d="M 2384 0 
L 1822 0 
L 1822 3584 
Q 1619 3391 1289 3197 
Q 959 3003 697 2906 
L 697 3450 
Q 1169 3672 1522 3987 
Q 1875 4303 2022 4600 
L 2384 4600 
L 2384 0 
z
" id="ArialMT-31" transform="scale(0.015625)"/>
      <path d="M 372 3481 
Q 372 3972 619 4315 
Q 866 4659 1334 4659 
Q 1766 4659 2048 4351 
Q 2331 4044 2331 3447 
Q 2331 2866 2045 2552 
Q 1759 2238 1341 2238 
Q 925 2238 648 2547 
Q 372 2856 372 3481 
z
M 1350 4272 
Q 1141 4272 1002 4090 
Q 863 3909 863 3425 
Q 863 2984 1003 2804 
Q 1144 2625 1350 2625 
Q 1563 2625 1702 2806 
Q 1841 2988 1841 3469 
Q 1841 3913 1700 4092 
Q 1559 4272 1350 4272 
z
M 1353 -169 
L 3859 4659 
L 4316 4659 
L 1819 -169 
L 1353 -169 
z
M 3334 1075 
Q 3334 1569 3581 1911 
Q 3828 2253 4300 2253 
Q 4731 2253 5014 1945 
Q 5297 1638 5297 1041 
Q 5297 459 5011 145 
Q 4725 -169 4303 -169 
Q 3888 -169 3611 142 
Q 3334 453 3334 1075 
z
M 4316 1866 
Q 4103 1866 3964 1684 
Q 3825 1503 3825 1019 
Q 3825 581 3965 400 
Q 4106 219 4313 219 
Q 4528 219 4667 400 
Q 4806 581 4806 1063 
Q 4806 1506 4665 1686 
Q 4525 1866 4316 1866 
z
" id="ArialMT-25" transform="scale(0.015625)"/>
     </defs>
     <use xlink:href="#ArialMT-35"/>
     <use x="55.615234" xlink:href="#ArialMT-34"/>
     <use x="111.230469" xlink:href="#ArialMT-2e"/>
     <use x="139.013672" xlink:href="#ArialMT-33"/>
     <use x="194.628906" xlink:href="#ArialMT-31"/>
     <use x="250.244141" xlink:href="#ArialMT-25"/>
    </g>
   </g>
   <g id="text_3">
    <!-- Yes -->
    <g style="fill:#262626;" transform="translate(300.774276 185.237369)scale(0.15 -0.15)">
     <defs>
      <path d="M 1784 0 
L 1784 1941 
L 19 4581 
L 756 4581 
L 1659 3200 
Q 1909 2813 2125 2425 
Q 2331 2784 2625 3234 
L 3513 4581 
L 4219 4581 
L 2391 1941 
L 2391 0 
L 1784 0 
z
" id="ArialMT-59" transform="scale(0.015625)"/>
      <path d="M 2694 1069 
L 3275 997 
Q 3138 488 2766 206 
Q 2394 -75 1816 -75 
Q 1088 -75 661 373 
Q 234 822 234 1631 
Q 234 2469 665 2931 
Q 1097 3394 1784 3394 
Q 2450 3394 2872 2941 
Q 3294 2488 3294 1666 
Q 3294 1616 3291 1516 
L 816 1516 
Q 847 969 1125 678 
Q 1403 388 1819 388 
Q 2128 388 2347 550 
Q 2566 713 2694 1069 
z
M 847 1978 
L 2700 1978 
Q 2663 2397 2488 2606 
Q 2219 2931 1791 2931 
Q 1403 2931 1139 2672 
Q 875 2413 847 1978 
z
" id="ArialMT-65" transform="scale(0.015625)"/>
      <path d="M 197 991 
L 753 1078 
Q 800 744 1014 566 
Q 1228 388 1613 388 
Q 2000 388 2187 545 
Q 2375 703 2375 916 
Q 2375 1106 2209 1216 
Q 2094 1291 1634 1406 
Q 1016 1563 777 1677 
Q 538 1791 414 1992 
Q 291 2194 291 2438 
Q 291 2659 392 2848 
Q 494 3038 669 3163 
Q 800 3259 1026 3326 
Q 1253 3394 1513 3394 
Q 1903 3394 2198 3281 
Q 2494 3169 2634 2976 
Q 2775 2784 2828 2463 
L 2278 2388 
Q 2241 2644 2061 2787 
Q 1881 2931 1553 2931 
Q 1166 2931 1000 2803 
Q 834 2675 834 2503 
Q 834 2394 903 2306 
Q 972 2216 1119 2156 
Q 1203 2125 1616 2013 
Q 2213 1853 2448 1751 
Q 2684 1650 2818 1456 
Q 2953 1263 2953 975 
Q 2953 694 2789 445 
Q 2625 197 2315 61 
Q 2006 -75 1616 -75 
Q 969 -75 630 194 
Q 291 463 197 991 
z
" id="ArialMT-73" transform="scale(0.015625)"/>
     </defs>
     <use xlink:href="#ArialMT-59"/>
     <use x="57.574219" xlink:href="#ArialMT-65"/>
     <use x="113.189453" xlink:href="#ArialMT-73"/>
    </g>
   </g>
   <g id="text_4">
    <!-- 45.69% -->
    <g style="fill:#262626;" transform="translate(347.496244 198.230923)scale(0.15 -0.15)">
     <defs>
      <path d="M 3184 3459 
L 2625 3416 
Q 2550 3747 2413 3897 
Q 2184 4138 1850 4138 
Q 1581 4138 1378 3988 
Q 1113 3794 959 3422 
Q 806 3050 800 2363 
Q 1003 2672 1297 2822 
Q 1591 2972 1913 2972 
Q 2475 2972 2870 2558 
Q 3266 2144 3266 1488 
Q 3266 1056 3080 686 
Q 2894 316 2569 119 
Q 2244 -78 1831 -78 
Q 1128 -78 684 439 
Q 241 956 241 2144 
Q 241 3472 731 4075 
Q 1159 4600 1884 4600 
Q 2425 4600 2770 4297 
Q 3116 3994 3184 3459 
z
M 888 1484 
Q 888 1194 1011 928 
Q 1134 663 1356 523 
Q 1578 384 1822 384 
Q 2178 384 2434 671 
Q 2691 959 2691 1453 
Q 2691 1928 2437 2201 
Q 2184 2475 1800 2475 
Q 1419 2475 1153 2201 
Q 888 1928 888 1484 
z
" id="ArialMT-36" transform="scale(0.015625)"/>
      <path d="M 350 1059 
L 891 1109 
Q 959 728 1153 556 
Q 1347 384 1650 384 
Q 1909 384 2104 503 
Q 2300 622 2425 820 
Q 2550 1019 2634 1356 
Q 2719 1694 2719 2044 
Q 2719 2081 2716 2156 
Q 2547 1888 2255 1720 
Q 1963 1553 1622 1553 
Q 1053 1553 659 1965 
Q 266 2378 266 3053 
Q 266 3750 677 4175 
Q 1088 4600 1706 4600 
Q 2153 4600 2523 4359 
Q 2894 4119 3086 3673 
Q 3278 3228 3278 2384 
Q 3278 1506 3087 986 
Q 2897 466 2520 194 
Q 2144 -78 1638 -78 
Q 1100 -78 759 220 
Q 419 519 350 1059 
z
M 2653 3081 
Q 2653 3566 2395 3850 
Q 2138 4134 1775 4134 
Q 1400 4134 1122 3828 
Q 844 3522 844 3034 
Q 844 2597 1108 2323 
Q 1372 2050 1759 2050 
Q 2150 2050 2401 2323 
Q 2653 2597 2653 3081 
z
" id="ArialMT-39" transform="scale(0.015625)"/>
     </defs>
     <use xlink:href="#ArialMT-34"/>
     <use x="55.615234" xlink:href="#ArialMT-35"/>
     <use x="111.230469" xlink:href="#ArialMT-2e"/>
     <use x="139.013672" xlink:href="#ArialMT-36"/>
     <use x="194.628906" xlink:href="#ArialMT-39"/>
     <use x="250.244141" xlink:href="#ArialMT-25"/>
    </g>
   </g>
   <g id="text_5">
    <!-- Referred a Friend -->
    <g style="fill:#262626;" transform="translate(351.784559 80.4)scale(0.2 -0.2)">
     <defs>
      <path d="M 503 0 
L 503 4581 
L 2534 4581 
Q 3147 4581 3465 4457 
Q 3784 4334 3975 4021 
Q 4166 3709 4166 3331 
Q 4166 2844 3850 2509 
Q 3534 2175 2875 2084 
Q 3116 1969 3241 1856 
Q 3506 1613 3744 1247 
L 4541 0 
L 3778 0 
L 3172 953 
Q 2906 1366 2734 1584 
Q 2563 1803 2427 1890 
Q 2291 1978 2150 2013 
Q 2047 2034 1813 2034 
L 1109 2034 
L 1109 0 
L 503 0 
z
M 1109 2559 
L 2413 2559 
Q 2828 2559 3062 2645 
Q 3297 2731 3419 2920 
Q 3541 3109 3541 3331 
Q 3541 3656 3305 3865 
Q 3069 4075 2559 4075 
L 1109 4075 
L 1109 2559 
z
" id="ArialMT-52" transform="scale(0.015625)"/>
      <path d="M 556 0 
L 556 2881 
L 59 2881 
L 59 3319 
L 556 3319 
L 556 3672 
Q 556 4006 616 4169 
Q 697 4388 901 4523 
Q 1106 4659 1475 4659 
Q 1713 4659 2000 4603 
L 1916 4113 
Q 1741 4144 1584 4144 
Q 1328 4144 1222 4034 
Q 1116 3925 1116 3625 
L 1116 3319 
L 1763 3319 
L 1763 2881 
L 1116 2881 
L 1116 0 
L 556 0 
z
" id="ArialMT-66" transform="scale(0.015625)"/>
      <path d="M 416 0 
L 416 3319 
L 922 3319 
L 922 2816 
Q 1116 3169 1280 3281 
Q 1444 3394 1641 3394 
Q 1925 3394 2219 3213 
L 2025 2691 
Q 1819 2813 1613 2813 
Q 1428 2813 1281 2702 
Q 1134 2591 1072 2394 
Q 978 2094 978 1738 
L 978 0 
L 416 0 
z
" id="ArialMT-72" transform="scale(0.015625)"/>
      <path d="M 2575 0 
L 2575 419 
Q 2259 -75 1647 -75 
Q 1250 -75 917 144 
Q 584 363 401 755 
Q 219 1147 219 1656 
Q 219 2153 384 2558 
Q 550 2963 881 3178 
Q 1213 3394 1622 3394 
Q 1922 3394 2156 3267 
Q 2391 3141 2538 2938 
L 2538 4581 
L 3097 4581 
L 3097 0 
L 2575 0 
z
M 797 1656 
Q 797 1019 1065 703 
Q 1334 388 1700 388 
Q 2069 388 2326 689 
Q 2584 991 2584 1609 
Q 2584 2291 2321 2609 
Q 2059 2928 1675 2928 
Q 1300 2928 1048 2622 
Q 797 2316 797 1656 
z
" id="ArialMT-64" transform="scale(0.015625)"/>
      <path id="ArialMT-20" transform="scale(0.015625)"/>
      <path d="M 2588 409 
Q 2275 144 1986 34 
Q 1697 -75 1366 -75 
Q 819 -75 525 192 
Q 231 459 231 875 
Q 231 1119 342 1320 
Q 453 1522 633 1644 
Q 813 1766 1038 1828 
Q 1203 1872 1538 1913 
Q 2219 1994 2541 2106 
Q 2544 2222 2544 2253 
Q 2544 2597 2384 2738 
Q 2169 2928 1744 2928 
Q 1347 2928 1158 2789 
Q 969 2650 878 2297 
L 328 2372 
Q 403 2725 575 2942 
Q 747 3159 1072 3276 
Q 1397 3394 1825 3394 
Q 2250 3394 2515 3294 
Q 2781 3194 2906 3042 
Q 3031 2891 3081 2659 
Q 3109 2516 3109 2141 
L 3109 1391 
Q 3109 606 3145 398 
Q 3181 191 3288 0 
L 2700 0 
Q 2613 175 2588 409 
z
M 2541 1666 
Q 2234 1541 1622 1453 
Q 1275 1403 1131 1340 
Q 988 1278 909 1158 
Q 831 1038 831 891 
Q 831 666 1001 516 
Q 1172 366 1500 366 
Q 1825 366 2078 508 
Q 2331 650 2450 897 
Q 2541 1088 2541 1459 
L 2541 1666 
z
" id="ArialMT-61" transform="scale(0.015625)"/>
      <path d="M 525 0 
L 525 4581 
L 3616 4581 
L 3616 4041 
L 1131 4041 
L 1131 2622 
L 3281 2622 
L 3281 2081 
L 1131 2081 
L 1131 0 
L 525 0 
z
" id="ArialMT-46" transform="scale(0.015625)"/>
      <path d="M 425 3934 
L 425 4581 
L 988 4581 
L 988 3934 
L 425 3934 
z
M 425 0 
L 425 3319 
L 988 3319 
L 988 0 
L 425 0 
z
" id="ArialMT-69" transform="scale(0.015625)"/>
      <path d="M 422 0 
L 422 3319 
L 928 3319 
L 928 2847 
Q 1294 3394 1984 3394 
Q 2284 3394 2536 3286 
Q 2788 3178 2913 3003 
Q 3038 2828 3088 2588 
Q 3119 2431 3119 2041 
L 3119 0 
L 2556 0 
L 2556 2019 
Q 2556 2363 2490 2533 
Q 2425 2703 2258 2804 
Q 2091 2906 1866 2906 
Q 1506 2906 1245 2678 
Q 984 2450 984 1813 
L 984 0 
L 422 0 
z
" id="ArialMT-6e" transform="scale(0.015625)"/>
     </defs>
     <use xlink:href="#ArialMT-52"/>
     <use x="72.216797" xlink:href="#ArialMT-65"/>
     <use x="127.832031" xlink:href="#ArialMT-66"/>
     <use x="155.615234" xlink:href="#ArialMT-65"/>
     <use x="211.230469" xlink:href="#ArialMT-72"/>
     <use x="244.53125" xlink:href="#ArialMT-72"/>
     <use x="277.832031" xlink:href="#ArialMT-65"/>
     <use x="333.447266" xlink:href="#ArialMT-64"/>
     <use x="389.0625" xlink:href="#ArialMT-20"/>
     <use x="416.845703" xlink:href="#ArialMT-61"/>
     <use x="472.460938" xlink:href="#ArialMT-20"/>
     <use x="500.244141" xlink:href="#ArialMT-46"/>
     <use x="561.328125" xlink:href="#ArialMT-72"/>
     <use x="594.628906" xlink:href="#ArialMT-69"/>
     <use x="616.845703" xlink:href="#ArialMT-65"/>
     <use x="672.460938" xlink:href="#ArialMT-6e"/>
     <use x="728.076172" xlink:href="#ArialMT-64"/>
    </g>
   </g>
  </g>
  <g id="axes_2">
   <g id="matplotlib.axis_3"/>
   <g id="matplotlib.axis_4"/>
   <g id="patch_6">
    <path d="M 966.924135 299.189511 
C 981.76937 291.296159 994.357835 279.743787 1003.494094 265.62944 
C 1012.630353 251.515093 1018.01575 235.300154 1019.138875 218.524439 
C 1020.261999 201.748724 1017.086137 184.960614 1009.912876 169.754354 
C 1002.739614 154.548094 991.803442 141.420761 978.142886 131.618963 
C 964.482331 121.817165 948.543942 115.661313 931.841274 113.735983 
C 915.138606 111.810653 898.217651 114.178783 882.68527 120.615488 
C 867.15289 127.052193 853.516821 137.347064 843.071982 150.522472 
C 832.627144 163.69788 825.714967 179.323133 822.991851 195.914416 
L 920.523273 211.922182 
L 966.924135 299.189511 
z
" style="fill:#341b40;opacity:0.5;stroke:#341b40;stroke-linejoin:miter;"/>
   </g>
   <g id="patch_7">
    <path d="M 822.991851 195.914416 
C 820.008597 214.090657 822.164978 232.744002 829.216579 249.760184 
C 836.268179 266.776366 847.938117 281.487241 862.903659 292.2254 
C 877.869202 302.96356 895.542723 309.307368 913.921015 310.537784 
C 932.299307 311.7682 950.66074 307.836911 966.924135 299.189511 
L 920.523273 211.922182 
L 822.991851 195.914416 
z
" style="fill:#0f3f36;opacity:0.5;stroke:#0f3f36;stroke-linejoin:miter;"/>
   </g>
   <g id="patch_8">
    <path d="M 968.900862 297.212784 
C 983.746098 289.319432 996.334562 277.76706 1005.470821 263.652713 
C 1014.60708 249.538366 1019.992478 233.323427 1021.115602 216.547712 
C 1022.238726 199.771997 1019.062864 182.983887 1011.889603 167.777627 
C 1004.716342 152.571367 993.780169 139.444034 980.119613 129.642236 
C 966.459058 119.840438 950.520669 113.684586 933.818001 111.759256 
C 917.115333 109.833926 900.194378 112.202056 884.661998 118.638761 
C 869.129617 125.075466 855.493548 135.370337 845.04871 148.545744 
C 834.603871 161.721152 827.691694 177.346406 824.968578 193.937689 
L 922.5 209.945455 
L 968.900862 297.212784 
z
" style="fill:#af5bd4;stroke:#ffffff;stroke-linejoin:miter;"/>
   </g>
   <g id="patch_9">
    <path d="M 824.968578 193.937689 
C 821.985324 212.113929 824.141705 230.767275 831.193306 247.783457 
C 838.244907 264.799639 849.914844 279.510514 864.880387 290.248673 
C 879.845929 300.986833 897.519451 307.330641 915.897742 308.561057 
C 934.276034 309.791473 952.637468 305.860184 968.900862 297.212784 
L 922.5 209.945455 
L 824.968578 193.937689 
z
" style="fill:#33d3b4;stroke:#ffffff;stroke-linejoin:miter;"/>
   </g>
   <g id="text_6">
    <!-- No -->
    <g style="fill:#262626;" transform="translate(985.881575 125.489648)scale(0.15 -0.15)">
     <use xlink:href="#ArialMT-4e"/>
     <use x="72.216797" xlink:href="#ArialMT-6f"/>
    </g>
   </g>
   <g id="text_7">
    <!-- 64.63% -->
    <g style="fill:#262626;" transform="translate(931.636221 165.641258)scale(0.15 -0.15)">
     <use xlink:href="#ArialMT-36"/>
     <use x="55.615234" xlink:href="#ArialMT-34"/>
     <use x="111.230469" xlink:href="#ArialMT-2e"/>
     <use x="139.013672" xlink:href="#ArialMT-36"/>
     <use x="194.628906" xlink:href="#ArialMT-33"/>
     <use x="250.244141" xlink:href="#ArialMT-25"/>
    </g>
   </g>
   <g id="text_8">
    <!-- Yes -->
    <g style="fill:#262626;" transform="translate(834.6403 302.156729)scale(0.15 -0.15)">
     <use xlink:href="#ArialMT-59"/>
     <use x="57.574219" xlink:href="#ArialMT-65"/>
     <use x="113.189453" xlink:href="#ArialMT-73"/>
    </g>
   </g>
   <g id="text_9">
    <!-- 35.37% -->
    <g style="fill:#262626;" transform="translate(862.492685 262.00512)scale(0.15 -0.15)">
     <defs>
      <path d="M 303 3981 
L 303 4522 
L 3269 4522 
L 3269 4084 
Q 2831 3619 2401 2847 
Q 1972 2075 1738 1259 
Q 1569 684 1522 0 
L 944 0 
Q 953 541 1156 1306 
Q 1359 2072 1739 2783 
Q 2119 3494 2547 3981 
L 303 3981 
z
" id="ArialMT-37" transform="scale(0.015625)"/>
     </defs>
     <use xlink:href="#ArialMT-33"/>
     <use x="55.615234" xlink:href="#ArialMT-35"/>
     <use x="111.230469" xlink:href="#ArialMT-2e"/>
     <use x="139.013672" xlink:href="#ArialMT-33"/>
     <use x="194.628906" xlink:href="#ArialMT-37"/>
     <use x="250.244141" xlink:href="#ArialMT-25"/>
    </g>
   </g>
   <g id="text_10">
    <!-- Streaming Music -->
    <g style="fill:#262626;" transform="translate(848.035938 80.4)scale(0.2 -0.2)">
     <defs>
      <path d="M 288 1472 
L 859 1522 
Q 900 1178 1048 958 
Q 1197 738 1509 602 
Q 1822 466 2213 466 
Q 2559 466 2825 569 
Q 3091 672 3220 851 
Q 3350 1031 3350 1244 
Q 3350 1459 3225 1620 
Q 3100 1781 2813 1891 
Q 2628 1963 1997 2114 
Q 1366 2266 1113 2400 
Q 784 2572 623 2826 
Q 463 3081 463 3397 
Q 463 3744 659 4045 
Q 856 4347 1234 4503 
Q 1613 4659 2075 4659 
Q 2584 4659 2973 4495 
Q 3363 4331 3572 4012 
Q 3781 3694 3797 3291 
L 3216 3247 
Q 3169 3681 2898 3903 
Q 2628 4125 2100 4125 
Q 1550 4125 1298 3923 
Q 1047 3722 1047 3438 
Q 1047 3191 1225 3031 
Q 1400 2872 2139 2705 
Q 2878 2538 3153 2413 
Q 3553 2228 3743 1945 
Q 3934 1663 3934 1294 
Q 3934 928 3725 604 
Q 3516 281 3123 101 
Q 2731 -78 2241 -78 
Q 1619 -78 1198 103 
Q 778 284 539 648 
Q 300 1013 288 1472 
z
" id="ArialMT-53" transform="scale(0.015625)"/>
      <path d="M 1650 503 
L 1731 6 
Q 1494 -44 1306 -44 
Q 1000 -44 831 53 
Q 663 150 594 308 
Q 525 466 525 972 
L 525 2881 
L 113 2881 
L 113 3319 
L 525 3319 
L 525 4141 
L 1084 4478 
L 1084 3319 
L 1650 3319 
L 1650 2881 
L 1084 2881 
L 1084 941 
Q 1084 700 1114 631 
Q 1144 563 1211 522 
Q 1278 481 1403 481 
Q 1497 481 1650 503 
z
" id="ArialMT-74" transform="scale(0.015625)"/>
      <path d="M 422 0 
L 422 3319 
L 925 3319 
L 925 2853 
Q 1081 3097 1340 3245 
Q 1600 3394 1931 3394 
Q 2300 3394 2536 3241 
Q 2772 3088 2869 2813 
Q 3263 3394 3894 3394 
Q 4388 3394 4653 3120 
Q 4919 2847 4919 2278 
L 4919 0 
L 4359 0 
L 4359 2091 
Q 4359 2428 4304 2576 
Q 4250 2725 4106 2815 
Q 3963 2906 3769 2906 
Q 3419 2906 3187 2673 
Q 2956 2441 2956 1928 
L 2956 0 
L 2394 0 
L 2394 2156 
Q 2394 2531 2256 2718 
Q 2119 2906 1806 2906 
Q 1569 2906 1367 2781 
Q 1166 2656 1075 2415 
Q 984 2175 984 1722 
L 984 0 
L 422 0 
z
" id="ArialMT-6d" transform="scale(0.015625)"/>
      <path d="M 319 -275 
L 866 -356 
Q 900 -609 1056 -725 
Q 1266 -881 1628 -881 
Q 2019 -881 2231 -725 
Q 2444 -569 2519 -288 
Q 2563 -116 2559 434 
Q 2191 0 1641 0 
Q 956 0 581 494 
Q 206 988 206 1678 
Q 206 2153 378 2554 
Q 550 2956 876 3175 
Q 1203 3394 1644 3394 
Q 2231 3394 2613 2919 
L 2613 3319 
L 3131 3319 
L 3131 450 
Q 3131 -325 2973 -648 
Q 2816 -972 2473 -1159 
Q 2131 -1347 1631 -1347 
Q 1038 -1347 672 -1080 
Q 306 -813 319 -275 
z
M 784 1719 
Q 784 1066 1043 766 
Q 1303 466 1694 466 
Q 2081 466 2343 764 
Q 2606 1063 2606 1700 
Q 2606 2309 2336 2618 
Q 2066 2928 1684 2928 
Q 1309 2928 1046 2623 
Q 784 2319 784 1719 
z
" id="ArialMT-67" transform="scale(0.015625)"/>
      <path d="M 475 0 
L 475 4581 
L 1388 4581 
L 2472 1338 
Q 2622 884 2691 659 
Q 2769 909 2934 1394 
L 4031 4581 
L 4847 4581 
L 4847 0 
L 4263 0 
L 4263 3834 
L 2931 0 
L 2384 0 
L 1059 3900 
L 1059 0 
L 475 0 
z
" id="ArialMT-4d" transform="scale(0.015625)"/>
      <path d="M 2597 0 
L 2597 488 
Q 2209 -75 1544 -75 
Q 1250 -75 995 37 
Q 741 150 617 320 
Q 494 491 444 738 
Q 409 903 409 1263 
L 409 3319 
L 972 3319 
L 972 1478 
Q 972 1038 1006 884 
Q 1059 663 1231 536 
Q 1403 409 1656 409 
Q 1909 409 2131 539 
Q 2353 669 2445 892 
Q 2538 1116 2538 1541 
L 2538 3319 
L 3100 3319 
L 3100 0 
L 2597 0 
z
" id="ArialMT-75" transform="scale(0.015625)"/>
      <path d="M 2588 1216 
L 3141 1144 
Q 3050 572 2676 248 
Q 2303 -75 1759 -75 
Q 1078 -75 664 370 
Q 250 816 250 1647 
Q 250 2184 428 2587 
Q 606 2991 970 3192 
Q 1334 3394 1763 3394 
Q 2303 3394 2647 3120 
Q 2991 2847 3088 2344 
L 2541 2259 
Q 2463 2594 2264 2762 
Q 2066 2931 1784 2931 
Q 1359 2931 1093 2626 
Q 828 2322 828 1663 
Q 828 994 1084 691 
Q 1341 388 1753 388 
Q 2084 388 2306 591 
Q 2528 794 2588 1216 
z
" id="ArialMT-63" transform="scale(0.015625)"/>
     </defs>
     <use xlink:href="#ArialMT-53"/>
     <use x="66.699219" xlink:href="#ArialMT-74"/>
     <use x="94.482422" xlink:href="#ArialMT-72"/>
     <use x="127.783203" xlink:href="#ArialMT-65"/>
     <use x="183.398438" xlink:href="#ArialMT-61"/>
     <use x="239.013672" xlink:href="#ArialMT-6d"/>
     <use x="322.314453" xlink:href="#ArialMT-69"/>
     <use x="344.53125" xlink:href="#ArialMT-6e"/>
     <use x="400.146484" xlink:href="#ArialMT-67"/>
     <use x="455.761719" xlink:href="#ArialMT-20"/>
     <use x="483.544922" xlink:href="#ArialMT-4d"/>
     <use x="566.845703" xlink:href="#ArialMT-75"/>
     <use x="622.460938" xlink:href="#ArialMT-73"/>
     <use x="672.460938" xlink:href="#ArialMT-69"/>
     <use x="694.677734" xlink:href="#ArialMT-63"/>
    </g>
   </g>
  </g>
  <g id="axes_3">
   <g id="matplotlib.axis_5"/>
   <g id="matplotlib.axis_6"/>
   <g id="patch_10">
    <path d="M 1428.337628 309.541706 
C 1446.596958 306.649712 1463.683762 298.691915 1477.647582 286.576697 
C 1491.611402 274.461479 1501.8999 258.668057 1507.338646 240.999247 
C 1512.777391 223.330438 1513.151255 204.485131 1508.41756 186.614515 
C 1503.683865 168.743899 1494.029852 152.554846 1480.557527 139.895335 
C 1467.085201 127.235823 1450.32746 118.6066 1432.197197 114.99269 
C 1414.066934 111.37878 1395.281292 112.92313 1377.984648 119.449454 
C 1360.688004 125.975778 1345.564528 137.225927 1334.340562 151.915698 
C 1323.116596 166.605468 1316.236103 184.153807 1314.484492 202.557574 
L 1412.876214 211.922182 
L 1428.337628 309.541706 
z
" style="fill:#48113e;opacity:0.5;stroke:#48113e;stroke-linejoin:miter;"/>
   </g>
   <g id="patch_11">
    <path d="M 1314.484492 202.557574 
C 1313.055909 217.567362 1315.080732 232.706915 1320.403488 246.813752 
C 1325.726243 260.920589 1334.207116 273.624162 1345.194908 283.949035 
C 1356.1827 294.273908 1369.388792 301.948875 1383.799162 306.384618 
C 1398.209531 310.820361 1413.445659 311.900365 1428.337646 309.541703 
L 1412.876214 211.922182 
L 1314.484492 202.557574 
z
" style="fill:#10373c;opacity:0.5;stroke:#10373c;stroke-linejoin:miter;"/>
   </g>
   <g id="patch_12">
    <path d="M 1430.314355 307.564979 
C 1448.573686 304.672985 1465.660489 296.715188 1479.624309 284.59997 
C 1493.588129 272.484752 1503.876627 256.69133 1509.315373 239.02252 
C 1514.754119 221.353711 1515.127982 202.508403 1510.394287 184.637787 
C 1505.660592 166.767171 1496.00658 150.578119 1482.534254 137.918608 
C 1469.061928 125.259096 1452.304187 116.629873 1434.173924 113.015963 
C 1416.043661 109.402052 1397.258019 110.946403 1379.961375 117.472727 
C 1362.664732 123.999051 1347.541256 135.249199 1336.317289 149.93897 
C 1325.093323 164.628741 1318.212831 182.17708 1316.461219 200.580847 
L 1414.852941 209.945455 
L 1430.314355 307.564979 
z
" style="fill:#f138cd;stroke:#ffffff;stroke-linejoin:miter;"/>
   </g>
   <g id="patch_13">
    <path d="M 1316.461219 200.580847 
C 1315.032636 215.590634 1317.05746 230.730188 1322.380215 244.837025 
C 1327.70297 258.943862 1336.183843 271.647435 1347.171635 281.972308 
C 1358.159427 292.297181 1371.365519 299.972148 1385.775889 304.40789 
C 1400.186258 308.843633 1415.422386 309.923638 1430.314373 307.564976 
L 1414.852941 209.945455 
L 1316.461219 200.580847 
z
" style="fill:#35b9c9;stroke:#ffffff;stroke-linejoin:miter;"/>
   </g>
   <g id="text_11">
    <!-- No -->
    <g style="fill:#262626;" transform="translate(1489.302385 134.593657)scale(0.15 -0.15)">
     <use xlink:href="#ArialMT-4e"/>
     <use x="72.216797" xlink:href="#ArialMT-6f"/>
    </g>
   </g>
   <g id="text_12">
    <!-- 70.99% -->
    <g style="fill:#262626;" transform="translate(1430.026182 170.607081)scale(0.15 -0.15)">
     <defs>
      <path d="M 266 2259 
Q 266 3072 433 3567 
Q 600 4063 929 4331 
Q 1259 4600 1759 4600 
Q 2128 4600 2406 4451 
Q 2684 4303 2865 4023 
Q 3047 3744 3150 3342 
Q 3253 2941 3253 2259 
Q 3253 1453 3087 958 
Q 2922 463 2592 192 
Q 2263 -78 1759 -78 
Q 1097 -78 719 397 
Q 266 969 266 2259 
z
M 844 2259 
Q 844 1131 1108 757 
Q 1372 384 1759 384 
Q 2147 384 2411 759 
Q 2675 1134 2675 2259 
Q 2675 3391 2411 3762 
Q 2147 4134 1753 4134 
Q 1366 4134 1134 3806 
Q 844 3388 844 2259 
z
" id="ArialMT-30" transform="scale(0.015625)"/>
     </defs>
     <use xlink:href="#ArialMT-37"/>
     <use x="55.615234" xlink:href="#ArialMT-30"/>
     <use x="111.230469" xlink:href="#ArialMT-2e"/>
     <use x="139.013672" xlink:href="#ArialMT-39"/>
     <use x="194.628906" xlink:href="#ArialMT-39"/>
     <use x="250.244141" xlink:href="#ArialMT-25"/>
    </g>
   </g>
   <g id="text_13">
    <!-- Yes -->
    <g style="fill:#262626;" transform="translate(1315.92538 293.052728)scale(0.15 -0.15)">
     <use xlink:href="#ArialMT-59"/>
     <use x="57.574219" xlink:href="#ArialMT-65"/>
     <use x="113.189453" xlink:href="#ArialMT-73"/>
    </g>
   </g>
   <g id="text_14">
    <!-- 29.01% -->
    <g style="fill:#262626;" transform="translate(1348.808611 257.039301)scale(0.15 -0.15)">
     <defs>
      <path d="M 3222 541 
L 3222 0 
L 194 0 
Q 188 203 259 391 
Q 375 700 629 1000 
Q 884 1300 1366 1694 
Q 2113 2306 2375 2664 
Q 2638 3022 2638 3341 
Q 2638 3675 2398 3904 
Q 2159 4134 1775 4134 
Q 1369 4134 1125 3890 
Q 881 3647 878 3216 
L 300 3275 
Q 359 3922 746 4261 
Q 1134 4600 1788 4600 
Q 2447 4600 2831 4234 
Q 3216 3869 3216 3328 
Q 3216 3053 3103 2787 
Q 2991 2522 2730 2228 
Q 2469 1934 1863 1422 
Q 1356 997 1212 845 
Q 1069 694 975 541 
L 3222 541 
z
" id="ArialMT-32" transform="scale(0.015625)"/>
     </defs>
     <use xlink:href="#ArialMT-32"/>
     <use x="55.615234" xlink:href="#ArialMT-39"/>
     <use x="111.230469" xlink:href="#ArialMT-2e"/>
     <use x="139.013672" xlink:href="#ArialMT-30"/>
     <use x="194.628906" xlink:href="#ArialMT-31"/>
     <use x="250.244141" xlink:href="#ArialMT-25"/>
    </g>
   </g>
   <g id="text_15">
    <!-- Premium Tech Support -->
    <g style="fill:#262626;" transform="translate(1313.329504 80.4)scale(0.2 -0.2)">
     <defs>
      <path d="M 494 0 
L 494 4581 
L 2222 4581 
Q 2678 4581 2919 4538 
Q 3256 4481 3484 4323 
Q 3713 4166 3852 3881 
Q 3991 3597 3991 3256 
Q 3991 2672 3619 2267 
Q 3247 1863 2275 1863 
L 1100 1863 
L 1100 0 
L 494 0 
z
M 1100 2403 
L 2284 2403 
Q 2872 2403 3119 2622 
Q 3366 2841 3366 3238 
Q 3366 3525 3220 3729 
Q 3075 3934 2838 4000 
Q 2684 4041 2272 4041 
L 1100 4041 
L 1100 2403 
z
" id="ArialMT-50" transform="scale(0.015625)"/>
      <path d="M 1659 0 
L 1659 4041 
L 150 4041 
L 150 4581 
L 3781 4581 
L 3781 4041 
L 2266 4041 
L 2266 0 
L 1659 0 
z
" id="ArialMT-54" transform="scale(0.015625)"/>
      <path d="M 422 0 
L 422 4581 
L 984 4581 
L 984 2938 
Q 1378 3394 1978 3394 
Q 2347 3394 2619 3248 
Q 2891 3103 3008 2847 
Q 3125 2591 3125 2103 
L 3125 0 
L 2563 0 
L 2563 2103 
Q 2563 2525 2380 2717 
Q 2197 2909 1863 2909 
Q 1613 2909 1392 2779 
Q 1172 2650 1078 2428 
Q 984 2206 984 1816 
L 984 0 
L 422 0 
z
" id="ArialMT-68" transform="scale(0.015625)"/>
      <path d="M 422 -1272 
L 422 3319 
L 934 3319 
L 934 2888 
Q 1116 3141 1344 3267 
Q 1572 3394 1897 3394 
Q 2322 3394 2647 3175 
Q 2972 2956 3137 2557 
Q 3303 2159 3303 1684 
Q 3303 1175 3120 767 
Q 2938 359 2589 142 
Q 2241 -75 1856 -75 
Q 1575 -75 1351 44 
Q 1128 163 984 344 
L 984 -1272 
L 422 -1272 
z
M 931 1641 
Q 931 1000 1190 694 
Q 1450 388 1819 388 
Q 2194 388 2461 705 
Q 2728 1022 2728 1688 
Q 2728 2322 2467 2637 
Q 2206 2953 1844 2953 
Q 1484 2953 1207 2617 
Q 931 2281 931 1641 
z
" id="ArialMT-70" transform="scale(0.015625)"/>
     </defs>
     <use xlink:href="#ArialMT-50"/>
     <use x="66.699219" xlink:href="#ArialMT-72"/>
     <use x="100" xlink:href="#ArialMT-65"/>
     <use x="155.615234" xlink:href="#ArialMT-6d"/>
     <use x="238.916016" xlink:href="#ArialMT-69"/>
     <use x="261.132812" xlink:href="#ArialMT-75"/>
     <use x="316.748047" xlink:href="#ArialMT-6d"/>
     <use x="400.048828" xlink:href="#ArialMT-20"/>
     <use x="426.082031" xlink:href="#ArialMT-54"/>
     <use x="476.041016" xlink:href="#ArialMT-65"/>
     <use x="531.65625" xlink:href="#ArialMT-63"/>
     <use x="581.65625" xlink:href="#ArialMT-68"/>
     <use x="637.271484" xlink:href="#ArialMT-20"/>
     <use x="665.054688" xlink:href="#ArialMT-53"/>
     <use x="731.753906" xlink:href="#ArialMT-75"/>
     <use x="787.369141" xlink:href="#ArialMT-70"/>
     <use x="842.984375" xlink:href="#ArialMT-70"/>
     <use x="898.599609" xlink:href="#ArialMT-6f"/>
     <use x="954.214844" xlink:href="#ArialMT-72"/>
     <use x="987.515625" xlink:href="#ArialMT-74"/>
    </g>
   </g>
  </g>
  <g id="axes_4">
   <g id="matplotlib.axis_7"/>
   <g id="matplotlib.axis_8"/>
   <g id="patch_14">
    <path d="M 378.75215 422.836471 
C 363.559695 431.607839 350.972948 444.267901 342.289963 459.511041 
C 333.606978 474.754181 329.13687 492.037744 329.340636 509.579295 
C 329.544401 527.120847 334.414786 544.295908 343.449515 559.333237 
C 352.484243 574.370565 365.361677 586.734831 380.753784 595.150923 
C 396.14589 603.567015 413.50471 607.73532 431.040049 607.225966 
C 448.575388 606.716612 465.662988 601.547732 480.540625 592.252386 
C 495.418263 582.95704 507.556294 569.866143 515.702938 554.329743 
C 523.849583 538.793342 527.714819 521.364535 526.900032 503.840731 
L 428.170332 508.431273 
L 378.75215 422.836471 
z
" style="fill:#2d2f28;opacity:0.5;stroke:#2d2f28;stroke-linejoin:miter;"/>
   </g>
   <g id="patch_15">
    <path d="M 526.900032 503.840731 
C 526.112352 486.899951 520.977534 470.443637 511.991448 456.060983 
C 503.005362 441.678329 490.466893 429.847714 475.586888 421.711627 
C 460.706882 413.575539 443.980261 409.404593 427.022323 409.601577 
C 410.064384 409.79856 393.439164 414.356923 378.752166 422.836462 
L 428.170332 508.431273 
L 526.900032 503.840731 
z
" style="fill:#353514;opacity:0.5;stroke:#353514;stroke-linejoin:miter;"/>
   </g>
   <g id="patch_16">
    <path d="M 380.728877 420.859744 
C 365.536423 429.631111 352.949675 442.291173 344.26669 457.534314 
C 335.583705 472.777454 331.113597 490.061016 331.317363 507.602568 
C 331.521128 525.14412 336.391514 542.319181 345.426242 557.356509 
C 354.46097 572.393838 367.338404 584.758104 382.730511 593.174196 
C 398.122618 601.590288 415.481437 605.758593 433.016776 605.249239 
C 450.552115 604.739885 467.639715 599.571005 482.517353 590.275659 
C 497.39499 580.980313 509.533021 567.889416 517.679666 552.353015 
C 525.82631 536.816615 529.691547 519.387807 528.876759 501.864004 
L 430.147059 506.454545 
L 380.728877 420.859744 
z
" style="fill:#959c84;stroke:#ffffff;stroke-linejoin:miter;"/>
   </g>
   <g id="patch_17">
    <path d="M 528.876759 501.864004 
C 528.08908 484.923224 522.954261 468.466909 513.968175 454.084255 
C 504.982089 439.701601 492.44362 427.870987 477.563615 419.734899 
C 462.683609 411.598812 445.956989 407.427865 428.99905 407.624849 
C 412.041112 407.821833 395.415891 412.380196 380.728893 420.859734 
L 430.147059 506.454545 
L 528.876759 501.864004 
z
" style="fill:#b0b244;stroke:#ffffff;stroke-linejoin:miter;"/>
   </g>
   <g id="text_16">
    <!-- Yes -->
    <g style="fill:#262626;" transform="translate(353.510731 605.723895)scale(0.15 -0.15)">
     <use xlink:href="#ArialMT-59"/>
     <use x="57.574219" xlink:href="#ArialMT-65"/>
     <use x="113.189453" xlink:href="#ArialMT-73"/>
    </g>
   </g>
   <g id="text_17">
    <!-- 67.41% -->
    <g style="fill:#262626;" transform="translate(376.261583 562.36407)scale(0.15 -0.15)">
     <use xlink:href="#ArialMT-36"/>
     <use x="55.615234" xlink:href="#ArialMT-37"/>
     <use x="111.230469" xlink:href="#ArialMT-2e"/>
     <use x="139.013672" xlink:href="#ArialMT-34"/>
     <use x="194.628906" xlink:href="#ArialMT-31"/>
     <use x="250.244141" xlink:href="#ArialMT-25"/>
    </g>
   </g>
   <g id="text_18">
    <!-- No -->
    <g style="fill:#262626;" transform="translate(482.30527 414.940669)scale(0.15 -0.15)">
     <use xlink:href="#ArialMT-4e"/>
     <use x="72.216797" xlink:href="#ArialMT-6f"/>
    </g>
   </g>
   <g id="text_19">
    <!-- 32.59% -->
    <g style="fill:#262626;" transform="translate(433.161446 458.300492)scale(0.15 -0.15)">
     <use xlink:href="#ArialMT-33"/>
     <use x="55.615234" xlink:href="#ArialMT-32"/>
     <use x="111.230469" xlink:href="#ArialMT-2e"/>
     <use x="139.013672" xlink:href="#ArialMT-35"/>
     <use x="194.628906" xlink:href="#ArialMT-39"/>
     <use x="250.244141" xlink:href="#ArialMT-25"/>
    </g>
   </g>
   <g id="text_20">
    <!-- Unlimited Data -->
    <g style="fill:#262626;" transform="translate(364.568934 376.909091)scale(0.2 -0.2)">
     <defs>
      <path d="M 3500 4581 
L 4106 4581 
L 4106 1934 
Q 4106 1244 3950 837 
Q 3794 431 3386 176 
Q 2978 -78 2316 -78 
Q 1672 -78 1262 144 
Q 853 366 678 786 
Q 503 1206 503 1934 
L 503 4581 
L 1109 4581 
L 1109 1938 
Q 1109 1341 1220 1058 
Q 1331 775 1601 622 
Q 1872 469 2263 469 
Q 2931 469 3215 772 
Q 3500 1075 3500 1938 
L 3500 4581 
z
" id="ArialMT-55" transform="scale(0.015625)"/>
      <path d="M 409 0 
L 409 4581 
L 972 4581 
L 972 0 
L 409 0 
z
" id="ArialMT-6c" transform="scale(0.015625)"/>
      <path d="M 494 0 
L 494 4581 
L 2072 4581 
Q 2606 4581 2888 4516 
Q 3281 4425 3559 4188 
Q 3922 3881 4101 3404 
Q 4281 2928 4281 2316 
Q 4281 1794 4159 1391 
Q 4038 988 3847 723 
Q 3656 459 3429 307 
Q 3203 156 2883 78 
Q 2563 0 2147 0 
L 494 0 
z
M 1100 541 
L 2078 541 
Q 2531 541 2789 625 
Q 3047 709 3200 863 
Q 3416 1078 3536 1442 
Q 3656 1806 3656 2325 
Q 3656 3044 3420 3430 
Q 3184 3816 2847 3947 
Q 2603 4041 2063 4041 
L 1100 4041 
L 1100 541 
z
" id="ArialMT-44" transform="scale(0.015625)"/>
     </defs>
     <use xlink:href="#ArialMT-55"/>
     <use x="72.216797" xlink:href="#ArialMT-6e"/>
     <use x="127.832031" xlink:href="#ArialMT-6c"/>
     <use x="150.048828" xlink:href="#ArialMT-69"/>
     <use x="172.265625" xlink:href="#ArialMT-6d"/>
     <use x="255.566406" xlink:href="#ArialMT-69"/>
     <use x="277.783203" xlink:href="#ArialMT-74"/>
     <use x="305.566406" xlink:href="#ArialMT-65"/>
     <use x="361.181641" xlink:href="#ArialMT-64"/>
     <use x="416.796875" xlink:href="#ArialMT-20"/>
     <use x="444.580078" xlink:href="#ArialMT-44"/>
     <use x="516.796875" xlink:href="#ArialMT-61"/>
     <use x="572.412109" xlink:href="#ArialMT-74"/>
     <use x="600.195312" xlink:href="#ArialMT-61"/>
    </g>
   </g>
  </g>
 </g>
</svg>
