<?xml version="1.0" encoding="utf-8" standalone="no"?>
<!DOCTYPE svg PUBLIC "-//W3C//DTD SVG 1.1//EN"
  "http://www.w3.org/Graphics/SVG/1.1/DTD/svg11.dtd">
<svg height="360pt" version="1.1" viewBox="0 0 1080 360" width="1080pt" xmlns="http://www.w3.org/2000/svg" xmlns:xlink="http://www.w3.org/1999/xlink">
 <metadata>
  <rdf:RDF xmlns:cc="http://creativecommons.org/ns#" xmlns:dc="http://purl.org/dc/elements/1.1/" xmlns:rdf="http://www.w3.org/1999/02/22-rdf-syntax-ns#">
   <cc:Work>
    <dc:type rdf:resource="http://purl.org/dc/dcmitype/StillImage"/>
    <dc:date>2022-02-23T15:09:55.426772</dc:date>
    <dc:format>image/svg+xml</dc:format>
    <dc:creator>
     <cc:Agent>
      <dc:title>Matplotlib v3.4.3, https://matplotlib.org/</dc:title>
     </cc:Agent>
    </dc:creator>
   </cc:Work>
  </rdf:RDF>
 </metadata>
 <defs>
  <style type="text/css">*{stroke-linecap:butt;stroke-linejoin:round;}</style>
 </defs>
 <g id="figure_1">
  <g id="patch_1">
   <path d="M 0 360 
L 1080 360 
L 1080 0 
L 0 0 
z
" style="fill:#ffffff;"/>
  </g>
  <g id="axes_1">
   <g id="patch_2">
    <path d="M 135 315 
L 972 315 
L 972 43.2 
L 135 43.2 
z
" style="fill:#eaeaf2;"/>
   </g>
   <g id="matplotlib.axis_1">
    <g id="xtick_1">
     <g id="line2d_1">
      <path clip-path="url(#p9852616fe1)" d="M 173.045455 315 
L 173.045455 43.2 
" style="fill:none;stroke:#ffffff;stroke-linecap:round;"/>
     </g>
     <g id="text_1">
      <!-- 0 -->
      <g style="fill:#262626;" transform="translate(168.457681 336.310391)scale(0.165 -0.165)">
       <defs>
        <path d="M 266 2259 
Q 266 3072 433 3567 
Q 600 4063 929 4331 
Q 1259 4600 1759 4600 
Q 2128 4600 2406 4451 
Q 2684 4303 2865 4023 
Q 3047 3744 3150 3342 
Q 3253 2941 3253 2259 
Q 3253 1453 3087 958 
Q 2922 463 2592 192 
Q 2263 -78 1759 -78 
Q 1097 -78 719 397 
Q 266 969 266 2259 
z
M 844 2259 
Q 844 1131 1108 757 
Q 1372 384 1759 384 
Q 2147 384 2411 759 
Q 2675 1134 2675 2259 
Q 2675 3391 2411 3762 
Q 2147 4134 1753 4134 
Q 1366 4134 1134 3806 
Q 844 3388 844 2259 
z
" id="ArialMT-30" transform="scale(0.015625)"/>
       </defs>
       <use xlink:href="#ArialMT-30"/>
      </g>
     </g>
    </g>
    <g id="xtick_2">
     <g id="line2d_2">
      <path clip-path="url(#p9852616fe1)" d="M 311.392562 315 
L 311.392562 43.2 
" style="fill:none;stroke:#ffffff;stroke-linecap:round;"/>
     </g>
     <g id="text_2">
      <!-- 2 -->
      <g style="fill:#262626;" transform="translate(306.804789 336.310391)scale(0.165 -0.165)">
       <defs>
        <path d="M 3222 541 
L 3222 0 
L 194 0 
Q 188 203 259 391 
Q 375 700 629 1000 
Q 884 1300 1366 1694 
Q 2113 2306 2375 2664 
Q 2638 3022 2638 3341 
Q 2638 3675 2398 3904 
Q 2159 4134 1775 4134 
Q 1369 4134 1125 3890 
Q 881 3647 878 3216 
L 300 3275 
Q 359 3922 746 4261 
Q 1134 4600 1788 4600 
Q 2447 4600 2831 4234 
Q 3216 3869 3216 3328 
Q 3216 3053 3103 2787 
Q 2991 2522 2730 2228 
Q 2469 1934 1863 1422 
Q 1356 997 1212 845 
Q 1069 694 975 541 
L 3222 541 
z
" id="ArialMT-32" transform="scale(0.015625)"/>
       </defs>
       <use xlink:href="#ArialMT-32"/>
      </g>
     </g>
    </g>
    <g id="xtick_3">
     <g id="line2d_3">
      <path clip-path="url(#p9852616fe1)" d="M 449.739669 315 
L 449.739669 43.2 
" style="fill:none;stroke:#ffffff;stroke-linecap:round;"/>
     </g>
     <g id="text_3">
      <!-- 4 -->
      <g style="fill:#262626;" transform="translate(445.151896 336.310391)scale(0.165 -0.165)">
       <defs>
        <path d="M 2069 0 
L 2069 1097 
L 81 1097 
L 81 1613 
L 2172 4581 
L 2631 4581 
L 2631 1613 
L 3250 1613 
L 3250 1097 
L 2631 1097 
L 2631 0 
L 2069 0 
z
M 2069 1613 
L 2069 3678 
L 634 1613 
L 2069 1613 
z
" id="ArialMT-34" transform="scale(0.015625)"/>
       </defs>
       <use xlink:href="#ArialMT-34"/>
      </g>
     </g>
    </g>
    <g id="xtick_4">
     <g id="line2d_4">
      <path clip-path="url(#p9852616fe1)" d="M 588.086777 315 
L 588.086777 43.2 
" style="fill:none;stroke:#ffffff;stroke-linecap:round;"/>
     </g>
     <g id="text_4">
      <!-- 6 -->
      <g style="fill:#262626;" transform="translate(583.499003 336.310391)scale(0.165 -0.165)">
       <defs>
        <path d="M 3184 3459 
L 2625 3416 
Q 2550 3747 2413 3897 
Q 2184 4138 1850 4138 
Q 1581 4138 1378 3988 
Q 1113 3794 959 3422 
Q 806 3050 800 2363 
Q 1003 2672 1297 2822 
Q 1591 2972 1913 2972 
Q 2475 2972 2870 2558 
Q 3266 2144 3266 1488 
Q 3266 1056 3080 686 
Q 2894 316 2569 119 
Q 2244 -78 1831 -78 
Q 1128 -78 684 439 
Q 241 956 241 2144 
Q 241 3472 731 4075 
Q 1159 4600 1884 4600 
Q 2425 4600 2770 4297 
Q 3116 3994 3184 3459 
z
M 888 1484 
Q 888 1194 1011 928 
Q 1134 663 1356 523 
Q 1578 384 1822 384 
Q 2178 384 2434 671 
Q 2691 959 2691 1453 
Q 2691 1928 2437 2201 
Q 2184 2475 1800 2475 
Q 1419 2475 1153 2201 
Q 888 1928 888 1484 
z
" id="ArialMT-36" transform="scale(0.015625)"/>
       </defs>
       <use xlink:href="#ArialMT-36"/>
      </g>
     </g>
    </g>
    <g id="xtick_5">
     <g id="line2d_5">
      <path clip-path="url(#p9852616fe1)" d="M 726.433884 315 
L 726.433884 43.2 
" style="fill:none;stroke:#ffffff;stroke-linecap:round;"/>
     </g>
     <g id="text_5">
      <!-- 8 -->
      <g style="fill:#262626;" transform="translate(721.846111 336.310391)scale(0.165 -0.165)">
       <defs>
        <path d="M 1131 2484 
Q 781 2613 612 2850 
Q 444 3088 444 3419 
Q 444 3919 803 4259 
Q 1163 4600 1759 4600 
Q 2359 4600 2725 4251 
Q 3091 3903 3091 3403 
Q 3091 3084 2923 2848 
Q 2756 2613 2416 2484 
Q 2838 2347 3058 2040 
Q 3278 1734 3278 1309 
Q 3278 722 2862 322 
Q 2447 -78 1769 -78 
Q 1091 -78 675 323 
Q 259 725 259 1325 
Q 259 1772 486 2073 
Q 713 2375 1131 2484 
z
M 1019 3438 
Q 1019 3113 1228 2906 
Q 1438 2700 1772 2700 
Q 2097 2700 2305 2904 
Q 2513 3109 2513 3406 
Q 2513 3716 2298 3927 
Q 2084 4138 1766 4138 
Q 1444 4138 1231 3931 
Q 1019 3725 1019 3438 
z
M 838 1322 
Q 838 1081 952 856 
Q 1066 631 1291 507 
Q 1516 384 1775 384 
Q 2178 384 2440 643 
Q 2703 903 2703 1303 
Q 2703 1709 2433 1975 
Q 2163 2241 1756 2241 
Q 1359 2241 1098 1978 
Q 838 1716 838 1322 
z
" id="ArialMT-38" transform="scale(0.015625)"/>
       </defs>
       <use xlink:href="#ArialMT-38"/>
      </g>
     </g>
    </g>
    <g id="xtick_6">
     <g id="line2d_6">
      <path clip-path="url(#p9852616fe1)" d="M 864.780992 315 
L 864.780992 43.2 
" style="fill:none;stroke:#ffffff;stroke-linecap:round;"/>
     </g>
     <g id="text_6">
      <!-- 10 -->
      <g style="fill:#262626;" transform="translate(855.605445 336.310391)scale(0.165 -0.165)">
       <defs>
        <path d="M 2384 0 
L 1822 0 
L 1822 3584 
Q 1619 3391 1289 3197 
Q 959 3003 697 2906 
L 697 3450 
Q 1169 3672 1522 3987 
Q 1875 4303 2022 4600 
L 2384 4600 
L 2384 0 
z
" id="ArialMT-31" transform="scale(0.015625)"/>
       </defs>
       <use xlink:href="#ArialMT-31"/>
       <use x="55.615234" xlink:href="#ArialMT-30"/>
      </g>
     </g>
    </g>
    <g id="text_7">
     <!-- Number of Referrals -->
     <g style="fill:#262626;" transform="translate(472.478906 356.473828)scale(0.18 -0.18)">
      <defs>
       <path d="M 488 0 
L 488 4581 
L 1109 4581 
L 3516 984 
L 3516 4581 
L 4097 4581 
L 4097 0 
L 3475 0 
L 1069 3600 
L 1069 0 
L 488 0 
z
" id="ArialMT-4e" transform="scale(0.015625)"/>
       <path d="M 2597 0 
L 2597 488 
Q 2209 -75 1544 -75 
Q 1250 -75 995 37 
Q 741 150 617 320 
Q 494 491 444 738 
Q 409 903 409 1263 
L 409 3319 
L 972 3319 
L 972 1478 
Q 972 1038 1006 884 
Q 1059 663 1231 536 
Q 1403 409 1656 409 
Q 1909 409 2131 539 
Q 2353 669 2445 892 
Q 2538 1116 2538 1541 
L 2538 3319 
L 3100 3319 
L 3100 0 
L 2597 0 
z
" id="ArialMT-75" transform="scale(0.015625)"/>
       <path d="M 422 0 
L 422 3319 
L 925 3319 
L 925 2853 
Q 1081 3097 1340 3245 
Q 1600 3394 1931 3394 
Q 2300 3394 2536 3241 
Q 2772 3088 2869 2813 
Q 3263 3394 3894 3394 
Q 4388 3394 4653 3120 
Q 4919 2847 4919 2278 
L 4919 0 
L 4359 0 
L 4359 2091 
Q 4359 2428 4304 2576 
Q 4250 2725 4106 2815 
Q 3963 2906 3769 2906 
Q 3419 2906 3187 2673 
Q 2956 2441 2956 1928 
L 2956 0 
L 2394 0 
L 2394 2156 
Q 2394 2531 2256 2718 
Q 2119 2906 1806 2906 
Q 1569 2906 1367 2781 
Q 1166 2656 1075 2415 
Q 984 2175 984 1722 
L 984 0 
L 422 0 
z
" id="ArialMT-6d" transform="scale(0.015625)"/>
       <path d="M 941 0 
L 419 0 
L 419 4581 
L 981 4581 
L 981 2947 
Q 1338 3394 1891 3394 
Q 2197 3394 2470 3270 
Q 2744 3147 2920 2923 
Q 3097 2700 3197 2384 
Q 3297 2069 3297 1709 
Q 3297 856 2875 390 
Q 2453 -75 1863 -75 
Q 1275 -75 941 416 
L 941 0 
z
M 934 1684 
Q 934 1088 1097 822 
Q 1363 388 1816 388 
Q 2184 388 2453 708 
Q 2722 1028 2722 1663 
Q 2722 2313 2464 2622 
Q 2206 2931 1841 2931 
Q 1472 2931 1203 2611 
Q 934 2291 934 1684 
z
" id="ArialMT-62" transform="scale(0.015625)"/>
       <path d="M 2694 1069 
L 3275 997 
Q 3138 488 2766 206 
Q 2394 -75 1816 -75 
Q 1088 -75 661 373 
Q 234 822 234 1631 
Q 234 2469 665 2931 
Q 1097 3394 1784 3394 
Q 2450 3394 2872 2941 
Q 3294 2488 3294 1666 
Q 3294 1616 3291 1516 
L 816 1516 
Q 847 969 1125 678 
Q 1403 388 1819 388 
Q 2128 388 2347 550 
Q 2566 713 2694 1069 
z
M 847 1978 
L 2700 1978 
Q 2663 2397 2488 2606 
Q 2219 2931 1791 2931 
Q 1403 2931 1139 2672 
Q 875 2413 847 1978 
z
" id="ArialMT-65" transform="scale(0.015625)"/>
       <path d="M 416 0 
L 416 3319 
L 922 3319 
L 922 2816 
Q 1116 3169 1280 3281 
Q 1444 3394 1641 3394 
Q 1925 3394 2219 3213 
L 2025 2691 
Q 1819 2813 1613 2813 
Q 1428 2813 1281 2702 
Q 1134 2591 1072 2394 
Q 978 2094 978 1738 
L 978 0 
L 416 0 
z
" id="ArialMT-72" transform="scale(0.015625)"/>
       <path id="ArialMT-20" transform="scale(0.015625)"/>
       <path d="M 213 1659 
Q 213 2581 725 3025 
Q 1153 3394 1769 3394 
Q 2453 3394 2887 2945 
Q 3322 2497 3322 1706 
Q 3322 1066 3130 698 
Q 2938 331 2570 128 
Q 2203 -75 1769 -75 
Q 1072 -75 642 372 
Q 213 819 213 1659 
z
M 791 1659 
Q 791 1022 1069 705 
Q 1347 388 1769 388 
Q 2188 388 2466 706 
Q 2744 1025 2744 1678 
Q 2744 2294 2464 2611 
Q 2184 2928 1769 2928 
Q 1347 2928 1069 2612 
Q 791 2297 791 1659 
z
" id="ArialMT-6f" transform="scale(0.015625)"/>
       <path d="M 556 0 
L 556 2881 
L 59 2881 
L 59 3319 
L 556 3319 
L 556 3672 
Q 556 4006 616 4169 
Q 697 4388 901 4523 
Q 1106 4659 1475 4659 
Q 1713 4659 2000 4603 
L 1916 4113 
Q 1741 4144 1584 4144 
Q 1328 4144 1222 4034 
Q 1116 3925 1116 3625 
L 1116 3319 
L 1763 3319 
L 1763 2881 
L 1116 2881 
L 1116 0 
L 556 0 
z
" id="ArialMT-66" transform="scale(0.015625)"/>
       <path d="M 503 0 
L 503 4581 
L 2534 4581 
Q 3147 4581 3465 4457 
Q 3784 4334 3975 4021 
Q 4166 3709 4166 3331 
Q 4166 2844 3850 2509 
Q 3534 2175 2875 2084 
Q 3116 1969 3241 1856 
Q 3506 1613 3744 1247 
L 4541 0 
L 3778 0 
L 3172 953 
Q 2906 1366 2734 1584 
Q 2563 1803 2427 1890 
Q 2291 1978 2150 2013 
Q 2047 2034 1813 2034 
L 1109 2034 
L 1109 0 
L 503 0 
z
M 1109 2559 
L 2413 2559 
Q 2828 2559 3062 2645 
Q 3297 2731 3419 2920 
Q 3541 3109 3541 3331 
Q 3541 3656 3305 3865 
Q 3069 4075 2559 4075 
L 1109 4075 
L 1109 2559 
z
" id="ArialMT-52" transform="scale(0.015625)"/>
       <path d="M 2588 409 
Q 2275 144 1986 34 
Q 1697 -75 1366 -75 
Q 819 -75 525 192 
Q 231 459 231 875 
Q 231 1119 342 1320 
Q 453 1522 633 1644 
Q 813 1766 1038 1828 
Q 1203 1872 1538 1913 
Q 2219 1994 2541 2106 
Q 2544 2222 2544 2253 
Q 2544 2597 2384 2738 
Q 2169 2928 1744 2928 
Q 1347 2928 1158 2789 
Q 969 2650 878 2297 
L 328 2372 
Q 403 2725 575 2942 
Q 747 3159 1072 3276 
Q 1397 3394 1825 3394 
Q 2250 3394 2515 3294 
Q 2781 3194 2906 3042 
Q 3031 2891 3081 2659 
Q 3109 2516 3109 2141 
L 3109 1391 
Q 3109 606 3145 398 
Q 3181 191 3288 0 
L 2700 0 
Q 2613 175 2588 409 
z
M 2541 1666 
Q 2234 1541 1622 1453 
Q 1275 1403 1131 1340 
Q 988 1278 909 1158 
Q 831 1038 831 891 
Q 831 666 1001 516 
Q 1172 366 1500 366 
Q 1825 366 2078 508 
Q 2331 650 2450 897 
Q 2541 1088 2541 1459 
L 2541 1666 
z
" id="ArialMT-61" transform="scale(0.015625)"/>
       <path d="M 409 0 
L 409 4581 
L 972 4581 
L 972 0 
L 409 0 
z
" id="ArialMT-6c" transform="scale(0.015625)"/>
       <path d="M 197 991 
L 753 1078 
Q 800 744 1014 566 
Q 1228 388 1613 388 
Q 2000 388 2187 545 
Q 2375 703 2375 916 
Q 2375 1106 2209 1216 
Q 2094 1291 1634 1406 
Q 1016 1563 777 1677 
Q 538 1791 414 1992 
Q 291 2194 291 2438 
Q 291 2659 392 2848 
Q 494 3038 669 3163 
Q 800 3259 1026 3326 
Q 1253 3394 1513 3394 
Q 1903 3394 2198 3281 
Q 2494 3169 2634 2976 
Q 2775 2784 2828 2463 
L 2278 2388 
Q 2241 2644 2061 2787 
Q 1881 2931 1553 2931 
Q 1166 2931 1000 2803 
Q 834 2675 834 2503 
Q 834 2394 903 2306 
Q 972 2216 1119 2156 
Q 1203 2125 1616 2013 
Q 2213 1853 2448 1751 
Q 2684 1650 2818 1456 
Q 2953 1263 2953 975 
Q 2953 694 2789 445 
Q 2625 197 2315 61 
Q 2006 -75 1616 -75 
Q 969 -75 630 194 
Q 291 463 197 991 
z
" id="ArialMT-73" transform="scale(0.015625)"/>
      </defs>
      <use xlink:href="#ArialMT-4e"/>
      <use x="72.216797" xlink:href="#ArialMT-75"/>
      <use x="127.832031" xlink:href="#ArialMT-6d"/>
      <use x="211.132812" xlink:href="#ArialMT-62"/>
      <use x="266.748047" xlink:href="#ArialMT-65"/>
      <use x="322.363281" xlink:href="#ArialMT-72"/>
      <use x="355.664062" xlink:href="#ArialMT-20"/>
      <use x="383.447266" xlink:href="#ArialMT-6f"/>
      <use x="439.0625" xlink:href="#ArialMT-66"/>
      <use x="466.845703" xlink:href="#ArialMT-20"/>
      <use x="494.628906" xlink:href="#ArialMT-52"/>
      <use x="566.845703" xlink:href="#ArialMT-65"/>
      <use x="622.460938" xlink:href="#ArialMT-66"/>
      <use x="650.244141" xlink:href="#ArialMT-65"/>
      <use x="705.859375" xlink:href="#ArialMT-72"/>
      <use x="739.160156" xlink:href="#ArialMT-72"/>
      <use x="772.460938" xlink:href="#ArialMT-61"/>
      <use x="828.076172" xlink:href="#ArialMT-6c"/>
      <use x="850.292969" xlink:href="#ArialMT-73"/>
     </g>
    </g>
   </g>
   <g id="matplotlib.axis_2">
    <g id="ytick_1">
     <g id="text_8">
      <!-- Yes -->
      <g style="fill:#262626;" transform="translate(98.574062 117.055195)scale(0.165 -0.165)">
       <defs>
        <path d="M 1784 0 
L 1784 1941 
L 19 4581 
L 756 4581 
L 1659 3200 
Q 1909 2813 2125 2425 
Q 2331 2784 2625 3234 
L 3513 4581 
L 4219 4581 
L 2391 1941 
L 2391 0 
L 1784 0 
z
" id="ArialMT-59" transform="scale(0.015625)"/>
       </defs>
       <use xlink:href="#ArialMT-59"/>
       <use x="57.574219" xlink:href="#ArialMT-65"/>
       <use x="113.189453" xlink:href="#ArialMT-73"/>
      </g>
     </g>
    </g>
    <g id="ytick_2">
     <g id="text_9">
      <!-- No -->
      <g style="fill:#262626;" transform="translate(104.408359 252.955195)scale(0.165 -0.165)">
       <use xlink:href="#ArialMT-4e"/>
       <use x="72.216797" xlink:href="#ArialMT-6f"/>
      </g>
     </g>
    </g>
    <g id="text_10">
     <!-- Churn -->
     <g style="fill:#262626;" transform="translate(90.996562 203.610938)rotate(-90)scale(0.18 -0.18)">
      <defs>
       <path d="M 3763 1606 
L 4369 1453 
Q 4178 706 3683 314 
Q 3188 -78 2472 -78 
Q 1731 -78 1267 223 
Q 803 525 561 1097 
Q 319 1669 319 2325 
Q 319 3041 592 3573 
Q 866 4106 1370 4382 
Q 1875 4659 2481 4659 
Q 3169 4659 3637 4309 
Q 4106 3959 4291 3325 
L 3694 3184 
Q 3534 3684 3231 3912 
Q 2928 4141 2469 4141 
Q 1941 4141 1586 3887 
Q 1231 3634 1087 3207 
Q 944 2781 944 2328 
Q 944 1744 1114 1308 
Q 1284 872 1643 656 
Q 2003 441 2422 441 
Q 2931 441 3284 734 
Q 3638 1028 3763 1606 
z
" id="ArialMT-43" transform="scale(0.015625)"/>
       <path d="M 422 0 
L 422 4581 
L 984 4581 
L 984 2938 
Q 1378 3394 1978 3394 
Q 2347 3394 2619 3248 
Q 2891 3103 3008 2847 
Q 3125 2591 3125 2103 
L 3125 0 
L 2563 0 
L 2563 2103 
Q 2563 2525 2380 2717 
Q 2197 2909 1863 2909 
Q 1613 2909 1392 2779 
Q 1172 2650 1078 2428 
Q 984 2206 984 1816 
L 984 0 
L 422 0 
z
" id="ArialMT-68" transform="scale(0.015625)"/>
       <path d="M 422 0 
L 422 3319 
L 928 3319 
L 928 2847 
Q 1294 3394 1984 3394 
Q 2284 3394 2536 3286 
Q 2788 3178 2913 3003 
Q 3038 2828 3088 2588 
Q 3119 2431 3119 2041 
L 3119 0 
L 2556 0 
L 2556 2019 
Q 2556 2363 2490 2533 
Q 2425 2703 2258 2804 
Q 2091 2906 1866 2906 
Q 1506 2906 1245 2678 
Q 984 2450 984 1813 
L 984 0 
L 422 0 
z
" id="ArialMT-6e" transform="scale(0.015625)"/>
      </defs>
      <use xlink:href="#ArialMT-43"/>
      <use x="72.216797" xlink:href="#ArialMT-68"/>
      <use x="127.832031" xlink:href="#ArialMT-75"/>
      <use x="183.447266" xlink:href="#ArialMT-72"/>
      <use x="216.748047" xlink:href="#ArialMT-6e"/>
     </g>
    </g>
   </g>
   <g id="patch_3">
    <path clip-path="url(#p9852616fe1)" d="M 173.045455 56.79 
L 173.045455 165.51 
L 242.219008 165.51 
L 242.219008 56.79 
L 173.045455 56.79 
z
" style="fill:#5a5e6b;stroke:#3b3b3b;stroke-linejoin:miter;stroke-width:1.5;"/>
   </g>
   <g id="patch_4">
    <path clip-path="url(#p9852616fe1)" d="M 173.045455 192.69 
L 173.045455 301.41 
L 518.913223 301.41 
L 518.913223 192.69 
L 173.045455 192.69 
z
" style="fill:#9f987a;stroke:#3b3b3b;stroke-linejoin:miter;stroke-width:1.5;"/>
   </g>
   <g id="line2d_7">
    <path clip-path="url(#p9852616fe1)" d="M 173.045455 111.15 
L 173.045455 111.15 
" style="fill:none;stroke:#3b3b3b;stroke-linecap:round;stroke-width:1.5;"/>
   </g>
   <g id="line2d_8">
    <path clip-path="url(#p9852616fe1)" d="M 242.219008 111.15 
L 311.392562 111.15 
" style="fill:none;stroke:#3b3b3b;stroke-linecap:round;stroke-width:1.5;"/>
   </g>
   <g id="line2d_9">
    <path clip-path="url(#p9852616fe1)" d="M 173.045455 83.97 
L 173.045455 138.33 
" style="fill:none;stroke:#3b3b3b;stroke-linecap:round;stroke-width:1.5;"/>
   </g>
   <g id="line2d_10">
    <path clip-path="url(#p9852616fe1)" d="M 311.392562 83.97 
L 311.392562 138.33 
" style="fill:none;stroke:#3b3b3b;stroke-linecap:round;stroke-width:1.5;"/>
   </g>
   <g id="line2d_11">
    <defs>
     <path d="M 0 3.535534 
L 2.12132 0 
L 0 -3.535534 
L -2.12132 0 
z
" id="m5bd5d6ca31" style="stroke:#3b3b3b;stroke-linejoin:miter;"/>
    </defs>
    <g clip-path="url(#p9852616fe1)">
     <use style="fill:#3b3b3b;stroke:#3b3b3b;stroke-linejoin:miter;" x="588.086777" xlink:href="#m5bd5d6ca31" y="111.15"/>
     <use style="fill:#3b3b3b;stroke:#3b3b3b;stroke-linejoin:miter;" x="449.739669" xlink:href="#m5bd5d6ca31" y="111.15"/>
     <use style="fill:#3b3b3b;stroke:#3b3b3b;stroke-linejoin:miter;" x="588.086777" xlink:href="#m5bd5d6ca31" y="111.15"/>
     <use style="fill:#3b3b3b;stroke:#3b3b3b;stroke-linejoin:miter;" x="518.913223" xlink:href="#m5bd5d6ca31" y="111.15"/>
     <use style="fill:#3b3b3b;stroke:#3b3b3b;stroke-linejoin:miter;" x="588.086777" xlink:href="#m5bd5d6ca31" y="111.15"/>
     <use style="fill:#3b3b3b;stroke:#3b3b3b;stroke-linejoin:miter;" x="518.913223" xlink:href="#m5bd5d6ca31" y="111.15"/>
     <use style="fill:#3b3b3b;stroke:#3b3b3b;stroke-linejoin:miter;" x="449.739669" xlink:href="#m5bd5d6ca31" y="111.15"/>
     <use style="fill:#3b3b3b;stroke:#3b3b3b;stroke-linejoin:miter;" x="518.913223" xlink:href="#m5bd5d6ca31" y="111.15"/>
     <use style="fill:#3b3b3b;stroke:#3b3b3b;stroke-linejoin:miter;" x="380.566116" xlink:href="#m5bd5d6ca31" y="111.15"/>
     <use style="fill:#3b3b3b;stroke:#3b3b3b;stroke-linejoin:miter;" x="588.086777" xlink:href="#m5bd5d6ca31" y="111.15"/>
     <use style="fill:#3b3b3b;stroke:#3b3b3b;stroke-linejoin:miter;" x="588.086777" xlink:href="#m5bd5d6ca31" y="111.15"/>
     <use style="fill:#3b3b3b;stroke:#3b3b3b;stroke-linejoin:miter;" x="518.913223" xlink:href="#m5bd5d6ca31" y="111.15"/>
     <use style="fill:#3b3b3b;stroke:#3b3b3b;stroke-linejoin:miter;" x="449.739669" xlink:href="#m5bd5d6ca31" y="111.15"/>
     <use style="fill:#3b3b3b;stroke:#3b3b3b;stroke-linejoin:miter;" x="380.566116" xlink:href="#m5bd5d6ca31" y="111.15"/>
     <use style="fill:#3b3b3b;stroke:#3b3b3b;stroke-linejoin:miter;" x="380.566116" xlink:href="#m5bd5d6ca31" y="111.15"/>
     <use style="fill:#3b3b3b;stroke:#3b3b3b;stroke-linejoin:miter;" x="380.566116" xlink:href="#m5bd5d6ca31" y="111.15"/>
     <use style="fill:#3b3b3b;stroke:#3b3b3b;stroke-linejoin:miter;" x="380.566116" xlink:href="#m5bd5d6ca31" y="111.15"/>
     <use style="fill:#3b3b3b;stroke:#3b3b3b;stroke-linejoin:miter;" x="449.739669" xlink:href="#m5bd5d6ca31" y="111.15"/>
     <use style="fill:#3b3b3b;stroke:#3b3b3b;stroke-linejoin:miter;" x="449.739669" xlink:href="#m5bd5d6ca31" y="111.15"/>
     <use style="fill:#3b3b3b;stroke:#3b3b3b;stroke-linejoin:miter;" x="518.913223" xlink:href="#m5bd5d6ca31" y="111.15"/>
     <use style="fill:#3b3b3b;stroke:#3b3b3b;stroke-linejoin:miter;" x="380.566116" xlink:href="#m5bd5d6ca31" y="111.15"/>
     <use style="fill:#3b3b3b;stroke:#3b3b3b;stroke-linejoin:miter;" x="380.566116" xlink:href="#m5bd5d6ca31" y="111.15"/>
     <use style="fill:#3b3b3b;stroke:#3b3b3b;stroke-linejoin:miter;" x="657.260331" xlink:href="#m5bd5d6ca31" y="111.15"/>
     <use style="fill:#3b3b3b;stroke:#3b3b3b;stroke-linejoin:miter;" x="380.566116" xlink:href="#m5bd5d6ca31" y="111.15"/>
     <use style="fill:#3b3b3b;stroke:#3b3b3b;stroke-linejoin:miter;" x="657.260331" xlink:href="#m5bd5d6ca31" y="111.15"/>
     <use style="fill:#3b3b3b;stroke:#3b3b3b;stroke-linejoin:miter;" x="380.566116" xlink:href="#m5bd5d6ca31" y="111.15"/>
     <use style="fill:#3b3b3b;stroke:#3b3b3b;stroke-linejoin:miter;" x="588.086777" xlink:href="#m5bd5d6ca31" y="111.15"/>
     <use style="fill:#3b3b3b;stroke:#3b3b3b;stroke-linejoin:miter;" x="518.913223" xlink:href="#m5bd5d6ca31" y="111.15"/>
     <use style="fill:#3b3b3b;stroke:#3b3b3b;stroke-linejoin:miter;" x="449.739669" xlink:href="#m5bd5d6ca31" y="111.15"/>
     <use style="fill:#3b3b3b;stroke:#3b3b3b;stroke-linejoin:miter;" x="795.607438" xlink:href="#m5bd5d6ca31" y="111.15"/>
     <use style="fill:#3b3b3b;stroke:#3b3b3b;stroke-linejoin:miter;" x="380.566116" xlink:href="#m5bd5d6ca31" y="111.15"/>
     <use style="fill:#3b3b3b;stroke:#3b3b3b;stroke-linejoin:miter;" x="449.739669" xlink:href="#m5bd5d6ca31" y="111.15"/>
     <use style="fill:#3b3b3b;stroke:#3b3b3b;stroke-linejoin:miter;" x="449.739669" xlink:href="#m5bd5d6ca31" y="111.15"/>
     <use style="fill:#3b3b3b;stroke:#3b3b3b;stroke-linejoin:miter;" x="449.739669" xlink:href="#m5bd5d6ca31" y="111.15"/>
     <use style="fill:#3b3b3b;stroke:#3b3b3b;stroke-linejoin:miter;" x="380.566116" xlink:href="#m5bd5d6ca31" y="111.15"/>
     <use style="fill:#3b3b3b;stroke:#3b3b3b;stroke-linejoin:miter;" x="449.739669" xlink:href="#m5bd5d6ca31" y="111.15"/>
     <use style="fill:#3b3b3b;stroke:#3b3b3b;stroke-linejoin:miter;" x="380.566116" xlink:href="#m5bd5d6ca31" y="111.15"/>
     <use style="fill:#3b3b3b;stroke:#3b3b3b;stroke-linejoin:miter;" x="518.913223" xlink:href="#m5bd5d6ca31" y="111.15"/>
     <use style="fill:#3b3b3b;stroke:#3b3b3b;stroke-linejoin:miter;" x="726.433884" xlink:href="#m5bd5d6ca31" y="111.15"/>
     <use style="fill:#3b3b3b;stroke:#3b3b3b;stroke-linejoin:miter;" x="380.566116" xlink:href="#m5bd5d6ca31" y="111.15"/>
     <use style="fill:#3b3b3b;stroke:#3b3b3b;stroke-linejoin:miter;" x="449.739669" xlink:href="#m5bd5d6ca31" y="111.15"/>
     <use style="fill:#3b3b3b;stroke:#3b3b3b;stroke-linejoin:miter;" x="518.913223" xlink:href="#m5bd5d6ca31" y="111.15"/>
     <use style="fill:#3b3b3b;stroke:#3b3b3b;stroke-linejoin:miter;" x="449.739669" xlink:href="#m5bd5d6ca31" y="111.15"/>
     <use style="fill:#3b3b3b;stroke:#3b3b3b;stroke-linejoin:miter;" x="380.566116" xlink:href="#m5bd5d6ca31" y="111.15"/>
     <use style="fill:#3b3b3b;stroke:#3b3b3b;stroke-linejoin:miter;" x="795.607438" xlink:href="#m5bd5d6ca31" y="111.15"/>
     <use style="fill:#3b3b3b;stroke:#3b3b3b;stroke-linejoin:miter;" x="726.433884" xlink:href="#m5bd5d6ca31" y="111.15"/>
     <use style="fill:#3b3b3b;stroke:#3b3b3b;stroke-linejoin:miter;" x="380.566116" xlink:href="#m5bd5d6ca31" y="111.15"/>
     <use style="fill:#3b3b3b;stroke:#3b3b3b;stroke-linejoin:miter;" x="518.913223" xlink:href="#m5bd5d6ca31" y="111.15"/>
     <use style="fill:#3b3b3b;stroke:#3b3b3b;stroke-linejoin:miter;" x="657.260331" xlink:href="#m5bd5d6ca31" y="111.15"/>
     <use style="fill:#3b3b3b;stroke:#3b3b3b;stroke-linejoin:miter;" x="588.086777" xlink:href="#m5bd5d6ca31" y="111.15"/>
     <use style="fill:#3b3b3b;stroke:#3b3b3b;stroke-linejoin:miter;" x="380.566116" xlink:href="#m5bd5d6ca31" y="111.15"/>
     <use style="fill:#3b3b3b;stroke:#3b3b3b;stroke-linejoin:miter;" x="518.913223" xlink:href="#m5bd5d6ca31" y="111.15"/>
     <use style="fill:#3b3b3b;stroke:#3b3b3b;stroke-linejoin:miter;" x="657.260331" xlink:href="#m5bd5d6ca31" y="111.15"/>
     <use style="fill:#3b3b3b;stroke:#3b3b3b;stroke-linejoin:miter;" x="795.607438" xlink:href="#m5bd5d6ca31" y="111.15"/>
     <use style="fill:#3b3b3b;stroke:#3b3b3b;stroke-linejoin:miter;" x="380.566116" xlink:href="#m5bd5d6ca31" y="111.15"/>
     <use style="fill:#3b3b3b;stroke:#3b3b3b;stroke-linejoin:miter;" x="518.913223" xlink:href="#m5bd5d6ca31" y="111.15"/>
     <use style="fill:#3b3b3b;stroke:#3b3b3b;stroke-linejoin:miter;" x="449.739669" xlink:href="#m5bd5d6ca31" y="111.15"/>
     <use style="fill:#3b3b3b;stroke:#3b3b3b;stroke-linejoin:miter;" x="449.739669" xlink:href="#m5bd5d6ca31" y="111.15"/>
     <use style="fill:#3b3b3b;stroke:#3b3b3b;stroke-linejoin:miter;" x="380.566116" xlink:href="#m5bd5d6ca31" y="111.15"/>
     <use style="fill:#3b3b3b;stroke:#3b3b3b;stroke-linejoin:miter;" x="518.913223" xlink:href="#m5bd5d6ca31" y="111.15"/>
     <use style="fill:#3b3b3b;stroke:#3b3b3b;stroke-linejoin:miter;" x="380.566116" xlink:href="#m5bd5d6ca31" y="111.15"/>
     <use style="fill:#3b3b3b;stroke:#3b3b3b;stroke-linejoin:miter;" x="449.739669" xlink:href="#m5bd5d6ca31" y="111.15"/>
     <use style="fill:#3b3b3b;stroke:#3b3b3b;stroke-linejoin:miter;" x="380.566116" xlink:href="#m5bd5d6ca31" y="111.15"/>
     <use style="fill:#3b3b3b;stroke:#3b3b3b;stroke-linejoin:miter;" x="380.566116" xlink:href="#m5bd5d6ca31" y="111.15"/>
     <use style="fill:#3b3b3b;stroke:#3b3b3b;stroke-linejoin:miter;" x="518.913223" xlink:href="#m5bd5d6ca31" y="111.15"/>
     <use style="fill:#3b3b3b;stroke:#3b3b3b;stroke-linejoin:miter;" x="657.260331" xlink:href="#m5bd5d6ca31" y="111.15"/>
     <use style="fill:#3b3b3b;stroke:#3b3b3b;stroke-linejoin:miter;" x="380.566116" xlink:href="#m5bd5d6ca31" y="111.15"/>
     <use style="fill:#3b3b3b;stroke:#3b3b3b;stroke-linejoin:miter;" x="380.566116" xlink:href="#m5bd5d6ca31" y="111.15"/>
     <use style="fill:#3b3b3b;stroke:#3b3b3b;stroke-linejoin:miter;" x="795.607438" xlink:href="#m5bd5d6ca31" y="111.15"/>
     <use style="fill:#3b3b3b;stroke:#3b3b3b;stroke-linejoin:miter;" x="449.739669" xlink:href="#m5bd5d6ca31" y="111.15"/>
     <use style="fill:#3b3b3b;stroke:#3b3b3b;stroke-linejoin:miter;" x="518.913223" xlink:href="#m5bd5d6ca31" y="111.15"/>
     <use style="fill:#3b3b3b;stroke:#3b3b3b;stroke-linejoin:miter;" x="518.913223" xlink:href="#m5bd5d6ca31" y="111.15"/>
     <use style="fill:#3b3b3b;stroke:#3b3b3b;stroke-linejoin:miter;" x="657.260331" xlink:href="#m5bd5d6ca31" y="111.15"/>
     <use style="fill:#3b3b3b;stroke:#3b3b3b;stroke-linejoin:miter;" x="380.566116" xlink:href="#m5bd5d6ca31" y="111.15"/>
     <use style="fill:#3b3b3b;stroke:#3b3b3b;stroke-linejoin:miter;" x="380.566116" xlink:href="#m5bd5d6ca31" y="111.15"/>
     <use style="fill:#3b3b3b;stroke:#3b3b3b;stroke-linejoin:miter;" x="380.566116" xlink:href="#m5bd5d6ca31" y="111.15"/>
     <use style="fill:#3b3b3b;stroke:#3b3b3b;stroke-linejoin:miter;" x="380.566116" xlink:href="#m5bd5d6ca31" y="111.15"/>
     <use style="fill:#3b3b3b;stroke:#3b3b3b;stroke-linejoin:miter;" x="449.739669" xlink:href="#m5bd5d6ca31" y="111.15"/>
     <use style="fill:#3b3b3b;stroke:#3b3b3b;stroke-linejoin:miter;" x="380.566116" xlink:href="#m5bd5d6ca31" y="111.15"/>
     <use style="fill:#3b3b3b;stroke:#3b3b3b;stroke-linejoin:miter;" x="449.739669" xlink:href="#m5bd5d6ca31" y="111.15"/>
     <use style="fill:#3b3b3b;stroke:#3b3b3b;stroke-linejoin:miter;" x="588.086777" xlink:href="#m5bd5d6ca31" y="111.15"/>
     <use style="fill:#3b3b3b;stroke:#3b3b3b;stroke-linejoin:miter;" x="518.913223" xlink:href="#m5bd5d6ca31" y="111.15"/>
     <use style="fill:#3b3b3b;stroke:#3b3b3b;stroke-linejoin:miter;" x="518.913223" xlink:href="#m5bd5d6ca31" y="111.15"/>
     <use style="fill:#3b3b3b;stroke:#3b3b3b;stroke-linejoin:miter;" x="380.566116" xlink:href="#m5bd5d6ca31" y="111.15"/>
     <use style="fill:#3b3b3b;stroke:#3b3b3b;stroke-linejoin:miter;" x="518.913223" xlink:href="#m5bd5d6ca31" y="111.15"/>
     <use style="fill:#3b3b3b;stroke:#3b3b3b;stroke-linejoin:miter;" x="518.913223" xlink:href="#m5bd5d6ca31" y="111.15"/>
     <use style="fill:#3b3b3b;stroke:#3b3b3b;stroke-linejoin:miter;" x="380.566116" xlink:href="#m5bd5d6ca31" y="111.15"/>
     <use style="fill:#3b3b3b;stroke:#3b3b3b;stroke-linejoin:miter;" x="518.913223" xlink:href="#m5bd5d6ca31" y="111.15"/>
     <use style="fill:#3b3b3b;stroke:#3b3b3b;stroke-linejoin:miter;" x="380.566116" xlink:href="#m5bd5d6ca31" y="111.15"/>
     <use style="fill:#3b3b3b;stroke:#3b3b3b;stroke-linejoin:miter;" x="380.566116" xlink:href="#m5bd5d6ca31" y="111.15"/>
     <use style="fill:#3b3b3b;stroke:#3b3b3b;stroke-linejoin:miter;" x="518.913223" xlink:href="#m5bd5d6ca31" y="111.15"/>
    </g>
   </g>
   <g id="line2d_12">
    <path clip-path="url(#p9852616fe1)" d="M 173.045455 247.05 
L 173.045455 247.05 
" style="fill:none;stroke:#3b3b3b;stroke-linecap:round;stroke-width:1.5;"/>
   </g>
   <g id="line2d_13">
    <path clip-path="url(#p9852616fe1)" d="M 518.913223 247.05 
L 933.954545 247.05 
" style="fill:none;stroke:#3b3b3b;stroke-linecap:round;stroke-width:1.5;"/>
   </g>
   <g id="line2d_14">
    <path clip-path="url(#p9852616fe1)" d="M 173.045455 219.87 
L 173.045455 274.23 
" style="fill:none;stroke:#3b3b3b;stroke-linecap:round;stroke-width:1.5;"/>
   </g>
   <g id="line2d_15">
    <path clip-path="url(#p9852616fe1)" d="M 933.954545 219.87 
L 933.954545 274.23 
" style="fill:none;stroke:#3b3b3b;stroke-linecap:round;stroke-width:1.5;"/>
   </g>
   <g id="line2d_16"/>
   <g id="line2d_17">
    <path clip-path="url(#p9852616fe1)" d="M 173.045455 56.79 
L 173.045455 165.51 
" style="fill:none;stroke:#3b3b3b;stroke-linecap:round;stroke-width:1.5;"/>
   </g>
   <g id="line2d_18">
    <path clip-path="url(#p9852616fe1)" d="M 242.219008 192.69 
L 242.219008 301.41 
" style="fill:none;stroke:#3b3b3b;stroke-linecap:round;stroke-width:1.5;"/>
   </g>
   <g id="patch_5">
    <path d="M 135 315 
L 135 43.2 
" style="fill:none;stroke:#ffffff;stroke-linecap:square;stroke-linejoin:miter;stroke-width:1.25;"/>
   </g>
   <g id="patch_6">
    <path d="M 972 315 
L 972 43.2 
" style="fill:none;stroke:#ffffff;stroke-linecap:square;stroke-linejoin:miter;stroke-width:1.25;"/>
   </g>
   <g id="patch_7">
    <path d="M 135 315 
L 972 315 
" style="fill:none;stroke:#ffffff;stroke-linecap:square;stroke-linejoin:miter;stroke-width:1.25;"/>
   </g>
   <g id="patch_8">
    <path d="M 135 43.2 
L 972 43.2 
" style="fill:none;stroke:#ffffff;stroke-linecap:square;stroke-linejoin:miter;stroke-width:1.25;"/>
   </g>
   <g id="text_11">
    <!-- Number of Referrals vs Churn -->
    <g style="fill:#262626;" transform="translate(420.685938 37.2)scale(0.2 -0.2)">
     <defs>
      <path d="M 1344 0 
L 81 3319 
L 675 3319 
L 1388 1331 
Q 1503 1009 1600 663 
Q 1675 925 1809 1294 
L 2547 3319 
L 3125 3319 
L 1869 0 
L 1344 0 
z
" id="ArialMT-76" transform="scale(0.015625)"/>
     </defs>
     <use xlink:href="#ArialMT-4e"/>
     <use x="72.216797" xlink:href="#ArialMT-75"/>
     <use x="127.832031" xlink:href="#ArialMT-6d"/>
     <use x="211.132812" xlink:href="#ArialMT-62"/>
     <use x="266.748047" xlink:href="#ArialMT-65"/>
     <use x="322.363281" xlink:href="#ArialMT-72"/>
     <use x="355.664062" xlink:href="#ArialMT-20"/>
     <use x="383.447266" xlink:href="#ArialMT-6f"/>
     <use x="439.0625" xlink:href="#ArialMT-66"/>
     <use x="466.845703" xlink:href="#ArialMT-20"/>
     <use x="494.628906" xlink:href="#ArialMT-52"/>
     <use x="566.845703" xlink:href="#ArialMT-65"/>
     <use x="622.460938" xlink:href="#ArialMT-66"/>
     <use x="650.244141" xlink:href="#ArialMT-65"/>
     <use x="705.859375" xlink:href="#ArialMT-72"/>
     <use x="739.160156" xlink:href="#ArialMT-72"/>
     <use x="772.460938" xlink:href="#ArialMT-61"/>
     <use x="828.076172" xlink:href="#ArialMT-6c"/>
     <use x="850.292969" xlink:href="#ArialMT-73"/>
     <use x="900.292969" xlink:href="#ArialMT-20"/>
     <use x="928.076172" xlink:href="#ArialMT-76"/>
     <use x="978.076172" xlink:href="#ArialMT-73"/>
     <use x="1028.076172" xlink:href="#ArialMT-20"/>
     <use x="1055.859375" xlink:href="#ArialMT-43"/>
     <use x="1128.076172" xlink:href="#ArialMT-68"/>
     <use x="1183.691406" xlink:href="#ArialMT-75"/>
     <use x="1239.306641" xlink:href="#ArialMT-72"/>
     <use x="1272.607422" xlink:href="#ArialMT-6e"/>
    </g>
   </g>
  </g>
 </g>
 <defs>
  <clipPath id="p9852616fe1">
   <rect height="271.8" width="837" x="135" y="43.2"/>
  </clipPath>
 </defs>
</svg>
