<?xml version="1.0" encoding="utf-8" standalone="no"?>
<!DOCTYPE svg PUBLIC "-//W3C//DTD SVG 1.1//EN"
  "http://www.w3.org/Graphics/SVG/1.1/DTD/svg11.dtd">
<svg height="360pt" version="1.1" viewBox="0 0 1080 360" width="1080pt" xmlns="http://www.w3.org/2000/svg" xmlns:xlink="http://www.w3.org/1999/xlink">
 <metadata>
  <rdf:RDF xmlns:cc="http://creativecommons.org/ns#" xmlns:dc="http://purl.org/dc/elements/1.1/" xmlns:rdf="http://www.w3.org/1999/02/22-rdf-syntax-ns#">
   <cc:Work>
    <dc:type rdf:resource="http://purl.org/dc/dcmitype/StillImage"/>
    <dc:date>2022-02-23T15:09:54.033913</dc:date>
    <dc:format>image/svg+xml</dc:format>
    <dc:creator>
     <cc:Agent>
      <dc:title>Matplotlib v3.4.3, https://matplotlib.org/</dc:title>
     </cc:Agent>
    </dc:creator>
   </cc:Work>
  </rdf:RDF>
 </metadata>
 <defs>
  <style type="text/css">*{stroke-linecap:butt;stroke-linejoin:round;}</style>
 </defs>
 <g id="figure_1">
  <g id="patch_1">
   <path d="M 0 360 
L 1080 360 
L 1080 0 
L 0 0 
z
" style="fill:#ffffff;"/>
  </g>
  <g id="axes_1">
   <g id="patch_2">
    <path d="M 135 315 
L 972 315 
L 972 43.2 
L 135 43.2 
z
" style="fill:#eaeaf2;"/>
   </g>
   <g id="matplotlib.axis_1">
    <g id="xtick_1">
     <g id="line2d_1">
      <path clip-path="url(#pfe7ad6afaf)" d="M 171.39474 315 
L 171.39474 43.2 
" style="fill:none;stroke:#ffffff;stroke-linecap:round;"/>
     </g>
     <g id="text_1">
      <!-- 0 -->
      <g style="fill:#262626;" transform="translate(166.806967 336.310391)scale(0.165 -0.165)">
       <defs>
        <path d="M 266 2259 
Q 266 3072 433 3567 
Q 600 4063 929 4331 
Q 1259 4600 1759 4600 
Q 2128 4600 2406 4451 
Q 2684 4303 2865 4023 
Q 3047 3744 3150 3342 
Q 3253 2941 3253 2259 
Q 3253 1453 3087 958 
Q 2922 463 2592 192 
Q 2263 -78 1759 -78 
Q 1097 -78 719 397 
Q 266 969 266 2259 
z
M 844 2259 
Q 844 1131 1108 757 
Q 1372 384 1759 384 
Q 2147 384 2411 759 
Q 2675 1134 2675 2259 
Q 2675 3391 2411 3762 
Q 2147 4134 1753 4134 
Q 1366 4134 1134 3806 
Q 844 3388 844 2259 
z
" id="ArialMT-30" transform="scale(0.015625)"/>
       </defs>
       <use xlink:href="#ArialMT-30"/>
      </g>
     </g>
    </g>
    <g id="xtick_2">
     <g id="line2d_2">
      <path clip-path="url(#pfe7ad6afaf)" d="M 317.734668 315 
L 317.734668 43.2 
" style="fill:none;stroke:#ffffff;stroke-linecap:round;"/>
     </g>
     <g id="text_2">
      <!-- 50000 -->
      <g style="fill:#262626;" transform="translate(294.795801 336.310391)scale(0.165 -0.165)">
       <defs>
        <path d="M 266 1200 
L 856 1250 
Q 922 819 1161 601 
Q 1400 384 1738 384 
Q 2144 384 2425 690 
Q 2706 997 2706 1503 
Q 2706 1984 2436 2262 
Q 2166 2541 1728 2541 
Q 1456 2541 1237 2417 
Q 1019 2294 894 2097 
L 366 2166 
L 809 4519 
L 3088 4519 
L 3088 3981 
L 1259 3981 
L 1013 2750 
Q 1425 3038 1878 3038 
Q 2478 3038 2890 2622 
Q 3303 2206 3303 1553 
Q 3303 931 2941 478 
Q 2500 -78 1738 -78 
Q 1113 -78 717 272 
Q 322 622 266 1200 
z
" id="ArialMT-35" transform="scale(0.015625)"/>
       </defs>
       <use xlink:href="#ArialMT-35"/>
       <use x="55.615234" xlink:href="#ArialMT-30"/>
       <use x="111.230469" xlink:href="#ArialMT-30"/>
       <use x="166.845703" xlink:href="#ArialMT-30"/>
       <use x="222.460938" xlink:href="#ArialMT-30"/>
      </g>
     </g>
    </g>
    <g id="xtick_3">
     <g id="line2d_3">
      <path clip-path="url(#pfe7ad6afaf)" d="M 464.074597 315 
L 464.074597 43.2 
" style="fill:none;stroke:#ffffff;stroke-linecap:round;"/>
     </g>
     <g id="text_3">
      <!-- 100000 -->
      <g style="fill:#262626;" transform="translate(436.547956 336.310391)scale(0.165 -0.165)">
       <defs>
        <path d="M 2384 0 
L 1822 0 
L 1822 3584 
Q 1619 3391 1289 3197 
Q 959 3003 697 2906 
L 697 3450 
Q 1169 3672 1522 3987 
Q 1875 4303 2022 4600 
L 2384 4600 
L 2384 0 
z
" id="ArialMT-31" transform="scale(0.015625)"/>
       </defs>
       <use xlink:href="#ArialMT-31"/>
       <use x="55.615234" xlink:href="#ArialMT-30"/>
       <use x="111.230469" xlink:href="#ArialMT-30"/>
       <use x="166.845703" xlink:href="#ArialMT-30"/>
       <use x="222.460938" xlink:href="#ArialMT-30"/>
       <use x="278.076172" xlink:href="#ArialMT-30"/>
      </g>
     </g>
    </g>
    <g id="xtick_4">
     <g id="line2d_4">
      <path clip-path="url(#pfe7ad6afaf)" d="M 610.414525 315 
L 610.414525 43.2 
" style="fill:none;stroke:#ffffff;stroke-linecap:round;"/>
     </g>
     <g id="text_4">
      <!-- 150000 -->
      <g style="fill:#262626;" transform="translate(582.887884 336.310391)scale(0.165 -0.165)">
       <use xlink:href="#ArialMT-31"/>
       <use x="55.615234" xlink:href="#ArialMT-35"/>
       <use x="111.230469" xlink:href="#ArialMT-30"/>
       <use x="166.845703" xlink:href="#ArialMT-30"/>
       <use x="222.460938" xlink:href="#ArialMT-30"/>
       <use x="278.076172" xlink:href="#ArialMT-30"/>
      </g>
     </g>
    </g>
    <g id="xtick_5">
     <g id="line2d_5">
      <path clip-path="url(#pfe7ad6afaf)" d="M 756.754453 315 
L 756.754453 43.2 
" style="fill:none;stroke:#ffffff;stroke-linecap:round;"/>
     </g>
     <g id="text_5">
      <!-- 200000 -->
      <g style="fill:#262626;" transform="translate(729.227813 336.310391)scale(0.165 -0.165)">
       <defs>
        <path d="M 3222 541 
L 3222 0 
L 194 0 
Q 188 203 259 391 
Q 375 700 629 1000 
Q 884 1300 1366 1694 
Q 2113 2306 2375 2664 
Q 2638 3022 2638 3341 
Q 2638 3675 2398 3904 
Q 2159 4134 1775 4134 
Q 1369 4134 1125 3890 
Q 881 3647 878 3216 
L 300 3275 
Q 359 3922 746 4261 
Q 1134 4600 1788 4600 
Q 2447 4600 2831 4234 
Q 3216 3869 3216 3328 
Q 3216 3053 3103 2787 
Q 2991 2522 2730 2228 
Q 2469 1934 1863 1422 
Q 1356 997 1212 845 
Q 1069 694 975 541 
L 3222 541 
z
" id="ArialMT-32" transform="scale(0.015625)"/>
       </defs>
       <use xlink:href="#ArialMT-32"/>
       <use x="55.615234" xlink:href="#ArialMT-30"/>
       <use x="111.230469" xlink:href="#ArialMT-30"/>
       <use x="166.845703" xlink:href="#ArialMT-30"/>
       <use x="222.460938" xlink:href="#ArialMT-30"/>
       <use x="278.076172" xlink:href="#ArialMT-30"/>
      </g>
     </g>
    </g>
    <g id="xtick_6">
     <g id="line2d_6">
      <path clip-path="url(#pfe7ad6afaf)" d="M 903.094381 315 
L 903.094381 43.2 
" style="fill:none;stroke:#ffffff;stroke-linecap:round;"/>
     </g>
     <g id="text_6">
      <!-- 250000 -->
      <g style="fill:#262626;" transform="translate(875.567741 336.310391)scale(0.165 -0.165)">
       <use xlink:href="#ArialMT-32"/>
       <use x="55.615234" xlink:href="#ArialMT-35"/>
       <use x="111.230469" xlink:href="#ArialMT-30"/>
       <use x="166.845703" xlink:href="#ArialMT-30"/>
       <use x="222.460938" xlink:href="#ArialMT-30"/>
       <use x="278.076172" xlink:href="#ArialMT-30"/>
      </g>
     </g>
    </g>
    <g id="text_7">
     <!-- TotalCharges -->
     <g style="fill:#262626;" transform="translate(500.47875 356.693203)scale(0.18 -0.18)">
      <defs>
       <path d="M 1659 0 
L 1659 4041 
L 150 4041 
L 150 4581 
L 3781 4581 
L 3781 4041 
L 2266 4041 
L 2266 0 
L 1659 0 
z
" id="ArialMT-54" transform="scale(0.015625)"/>
       <path d="M 213 1659 
Q 213 2581 725 3025 
Q 1153 3394 1769 3394 
Q 2453 3394 2887 2945 
Q 3322 2497 3322 1706 
Q 3322 1066 3130 698 
Q 2938 331 2570 128 
Q 2203 -75 1769 -75 
Q 1072 -75 642 372 
Q 213 819 213 1659 
z
M 791 1659 
Q 791 1022 1069 705 
Q 1347 388 1769 388 
Q 2188 388 2466 706 
Q 2744 1025 2744 1678 
Q 2744 2294 2464 2611 
Q 2184 2928 1769 2928 
Q 1347 2928 1069 2612 
Q 791 2297 791 1659 
z
" id="ArialMT-6f" transform="scale(0.015625)"/>
       <path d="M 1650 503 
L 1731 6 
Q 1494 -44 1306 -44 
Q 1000 -44 831 53 
Q 663 150 594 308 
Q 525 466 525 972 
L 525 2881 
L 113 2881 
L 113 3319 
L 525 3319 
L 525 4141 
L 1084 4478 
L 1084 3319 
L 1650 3319 
L 1650 2881 
L 1084 2881 
L 1084 941 
Q 1084 700 1114 631 
Q 1144 563 1211 522 
Q 1278 481 1403 481 
Q 1497 481 1650 503 
z
" id="ArialMT-74" transform="scale(0.015625)"/>
       <path d="M 2588 409 
Q 2275 144 1986 34 
Q 1697 -75 1366 -75 
Q 819 -75 525 192 
Q 231 459 231 875 
Q 231 1119 342 1320 
Q 453 1522 633 1644 
Q 813 1766 1038 1828 
Q 1203 1872 1538 1913 
Q 2219 1994 2541 2106 
Q 2544 2222 2544 2253 
Q 2544 2597 2384 2738 
Q 2169 2928 1744 2928 
Q 1347 2928 1158 2789 
Q 969 2650 878 2297 
L 328 2372 
Q 403 2725 575 2942 
Q 747 3159 1072 3276 
Q 1397 3394 1825 3394 
Q 2250 3394 2515 3294 
Q 2781 3194 2906 3042 
Q 3031 2891 3081 2659 
Q 3109 2516 3109 2141 
L 3109 1391 
Q 3109 606 3145 398 
Q 3181 191 3288 0 
L 2700 0 
Q 2613 175 2588 409 
z
M 2541 1666 
Q 2234 1541 1622 1453 
Q 1275 1403 1131 1340 
Q 988 1278 909 1158 
Q 831 1038 831 891 
Q 831 666 1001 516 
Q 1172 366 1500 366 
Q 1825 366 2078 508 
Q 2331 650 2450 897 
Q 2541 1088 2541 1459 
L 2541 1666 
z
" id="ArialMT-61" transform="scale(0.015625)"/>
       <path d="M 409 0 
L 409 4581 
L 972 4581 
L 972 0 
L 409 0 
z
" id="ArialMT-6c" transform="scale(0.015625)"/>
       <path d="M 3763 1606 
L 4369 1453 
Q 4178 706 3683 314 
Q 3188 -78 2472 -78 
Q 1731 -78 1267 223 
Q 803 525 561 1097 
Q 319 1669 319 2325 
Q 319 3041 592 3573 
Q 866 4106 1370 4382 
Q 1875 4659 2481 4659 
Q 3169 4659 3637 4309 
Q 4106 3959 4291 3325 
L 3694 3184 
Q 3534 3684 3231 3912 
Q 2928 4141 2469 4141 
Q 1941 4141 1586 3887 
Q 1231 3634 1087 3207 
Q 944 2781 944 2328 
Q 944 1744 1114 1308 
Q 1284 872 1643 656 
Q 2003 441 2422 441 
Q 2931 441 3284 734 
Q 3638 1028 3763 1606 
z
" id="ArialMT-43" transform="scale(0.015625)"/>
       <path d="M 422 0 
L 422 4581 
L 984 4581 
L 984 2938 
Q 1378 3394 1978 3394 
Q 2347 3394 2619 3248 
Q 2891 3103 3008 2847 
Q 3125 2591 3125 2103 
L 3125 0 
L 2563 0 
L 2563 2103 
Q 2563 2525 2380 2717 
Q 2197 2909 1863 2909 
Q 1613 2909 1392 2779 
Q 1172 2650 1078 2428 
Q 984 2206 984 1816 
L 984 0 
L 422 0 
z
" id="ArialMT-68" transform="scale(0.015625)"/>
       <path d="M 416 0 
L 416 3319 
L 922 3319 
L 922 2816 
Q 1116 3169 1280 3281 
Q 1444 3394 1641 3394 
Q 1925 3394 2219 3213 
L 2025 2691 
Q 1819 2813 1613 2813 
Q 1428 2813 1281 2702 
Q 1134 2591 1072 2394 
Q 978 2094 978 1738 
L 978 0 
L 416 0 
z
" id="ArialMT-72" transform="scale(0.015625)"/>
       <path d="M 319 -275 
L 866 -356 
Q 900 -609 1056 -725 
Q 1266 -881 1628 -881 
Q 2019 -881 2231 -725 
Q 2444 -569 2519 -288 
Q 2563 -116 2559 434 
Q 2191 0 1641 0 
Q 956 0 581 494 
Q 206 988 206 1678 
Q 206 2153 378 2554 
Q 550 2956 876 3175 
Q 1203 3394 1644 3394 
Q 2231 3394 2613 2919 
L 2613 3319 
L 3131 3319 
L 3131 450 
Q 3131 -325 2973 -648 
Q 2816 -972 2473 -1159 
Q 2131 -1347 1631 -1347 
Q 1038 -1347 672 -1080 
Q 306 -813 319 -275 
z
M 784 1719 
Q 784 1066 1043 766 
Q 1303 466 1694 466 
Q 2081 466 2343 764 
Q 2606 1063 2606 1700 
Q 2606 2309 2336 2618 
Q 2066 2928 1684 2928 
Q 1309 2928 1046 2623 
Q 784 2319 784 1719 
z
" id="ArialMT-67" transform="scale(0.015625)"/>
       <path d="M 2694 1069 
L 3275 997 
Q 3138 488 2766 206 
Q 2394 -75 1816 -75 
Q 1088 -75 661 373 
Q 234 822 234 1631 
Q 234 2469 665 2931 
Q 1097 3394 1784 3394 
Q 2450 3394 2872 2941 
Q 3294 2488 3294 1666 
Q 3294 1616 3291 1516 
L 816 1516 
Q 847 969 1125 678 
Q 1403 388 1819 388 
Q 2128 388 2347 550 
Q 2566 713 2694 1069 
z
M 847 1978 
L 2700 1978 
Q 2663 2397 2488 2606 
Q 2219 2931 1791 2931 
Q 1403 2931 1139 2672 
Q 875 2413 847 1978 
z
" id="ArialMT-65" transform="scale(0.015625)"/>
       <path d="M 197 991 
L 753 1078 
Q 800 744 1014 566 
Q 1228 388 1613 388 
Q 2000 388 2187 545 
Q 2375 703 2375 916 
Q 2375 1106 2209 1216 
Q 2094 1291 1634 1406 
Q 1016 1563 777 1677 
Q 538 1791 414 1992 
Q 291 2194 291 2438 
Q 291 2659 392 2848 
Q 494 3038 669 3163 
Q 800 3259 1026 3326 
Q 1253 3394 1513 3394 
Q 1903 3394 2198 3281 
Q 2494 3169 2634 2976 
Q 2775 2784 2828 2463 
L 2278 2388 
Q 2241 2644 2061 2787 
Q 1881 2931 1553 2931 
Q 1166 2931 1000 2803 
Q 834 2675 834 2503 
Q 834 2394 903 2306 
Q 972 2216 1119 2156 
Q 1203 2125 1616 2013 
Q 2213 1853 2448 1751 
Q 2684 1650 2818 1456 
Q 2953 1263 2953 975 
Q 2953 694 2789 445 
Q 2625 197 2315 61 
Q 2006 -75 1616 -75 
Q 969 -75 630 194 
Q 291 463 197 991 
z
" id="ArialMT-73" transform="scale(0.015625)"/>
      </defs>
      <use xlink:href="#ArialMT-54"/>
      <use x="49.958984" xlink:href="#ArialMT-6f"/>
      <use x="105.574219" xlink:href="#ArialMT-74"/>
      <use x="133.357422" xlink:href="#ArialMT-61"/>
      <use x="188.972656" xlink:href="#ArialMT-6c"/>
      <use x="211.189453" xlink:href="#ArialMT-43"/>
      <use x="283.40625" xlink:href="#ArialMT-68"/>
      <use x="339.021484" xlink:href="#ArialMT-61"/>
      <use x="394.636719" xlink:href="#ArialMT-72"/>
      <use x="427.9375" xlink:href="#ArialMT-67"/>
      <use x="483.552734" xlink:href="#ArialMT-65"/>
      <use x="539.167969" xlink:href="#ArialMT-73"/>
     </g>
    </g>
   </g>
   <g id="matplotlib.axis_2">
    <g id="ytick_1">
     <g id="text_8">
      <!-- Yes -->
      <g style="fill:#262626;" transform="translate(98.574062 117.055195)scale(0.165 -0.165)">
       <defs>
        <path d="M 1784 0 
L 1784 1941 
L 19 4581 
L 756 4581 
L 1659 3200 
Q 1909 2813 2125 2425 
Q 2331 2784 2625 3234 
L 3513 4581 
L 4219 4581 
L 2391 1941 
L 2391 0 
L 1784 0 
z
" id="ArialMT-59" transform="scale(0.015625)"/>
       </defs>
       <use xlink:href="#ArialMT-59"/>
       <use x="57.574219" xlink:href="#ArialMT-65"/>
       <use x="113.189453" xlink:href="#ArialMT-73"/>
      </g>
     </g>
    </g>
    <g id="ytick_2">
     <g id="text_9">
      <!-- No -->
      <g style="fill:#262626;" transform="translate(104.408359 252.955195)scale(0.165 -0.165)">
       <defs>
        <path d="M 488 0 
L 488 4581 
L 1109 4581 
L 3516 984 
L 3516 4581 
L 4097 4581 
L 4097 0 
L 3475 0 
L 1069 3600 
L 1069 0 
L 488 0 
z
" id="ArialMT-4e" transform="scale(0.015625)"/>
       </defs>
       <use xlink:href="#ArialMT-4e"/>
       <use x="72.216797" xlink:href="#ArialMT-6f"/>
      </g>
     </g>
    </g>
    <g id="text_10">
     <!-- Churn -->
     <g style="fill:#262626;" transform="translate(90.996562 203.610938)rotate(-90)scale(0.18 -0.18)">
      <defs>
       <path d="M 2597 0 
L 2597 488 
Q 2209 -75 1544 -75 
Q 1250 -75 995 37 
Q 741 150 617 320 
Q 494 491 444 738 
Q 409 903 409 1263 
L 409 3319 
L 972 3319 
L 972 1478 
Q 972 1038 1006 884 
Q 1059 663 1231 536 
Q 1403 409 1656 409 
Q 1909 409 2131 539 
Q 2353 669 2445 892 
Q 2538 1116 2538 1541 
L 2538 3319 
L 3100 3319 
L 3100 0 
L 2597 0 
z
" id="ArialMT-75" transform="scale(0.015625)"/>
       <path d="M 422 0 
L 422 3319 
L 928 3319 
L 928 2847 
Q 1294 3394 1984 3394 
Q 2284 3394 2536 3286 
Q 2788 3178 2913 3003 
Q 3038 2828 3088 2588 
Q 3119 2431 3119 2041 
L 3119 0 
L 2556 0 
L 2556 2019 
Q 2556 2363 2490 2533 
Q 2425 2703 2258 2804 
Q 2091 2906 1866 2906 
Q 1506 2906 1245 2678 
Q 984 2450 984 1813 
L 984 0 
L 422 0 
z
" id="ArialMT-6e" transform="scale(0.015625)"/>
      </defs>
      <use xlink:href="#ArialMT-43"/>
      <use x="72.216797" xlink:href="#ArialMT-68"/>
      <use x="127.832031" xlink:href="#ArialMT-75"/>
      <use x="183.447266" xlink:href="#ArialMT-72"/>
      <use x="216.748047" xlink:href="#ArialMT-6e"/>
     </g>
    </g>
   </g>
   <g id="patch_3">
    <path clip-path="url(#pfe7ad6afaf)" d="M 183.204372 56.79 
L 183.204372 165.51 
L 376.092105 165.51 
L 376.092105 56.79 
L 183.204372 56.79 
z
" style="fill:#ecbd81;stroke:#666666;stroke-linejoin:miter;stroke-width:1.5;"/>
   </g>
   <g id="patch_4">
    <path clip-path="url(#pfe7ad6afaf)" d="M 222.130062 192.69 
L 222.130062 301.41 
L 545.801788 301.41 
L 545.801788 192.69 
L 222.130062 192.69 
z
" style="fill:#b4d382;stroke:#666666;stroke-linejoin:miter;stroke-width:1.5;"/>
   </g>
   <g id="line2d_7">
    <path clip-path="url(#pfe7ad6afaf)" d="M 183.204372 111.15 
L 173.049845 111.15 
" style="fill:none;stroke:#666666;stroke-linecap:round;stroke-width:1.5;"/>
   </g>
   <g id="line2d_8">
    <path clip-path="url(#pfe7ad6afaf)" d="M 376.092105 111.15 
L 665.278827 111.15 
" style="fill:none;stroke:#666666;stroke-linecap:round;stroke-width:1.5;"/>
   </g>
   <g id="line2d_9">
    <path clip-path="url(#pfe7ad6afaf)" d="M 173.049845 83.97 
L 173.049845 138.33 
" style="fill:none;stroke:#666666;stroke-linecap:round;stroke-width:1.5;"/>
   </g>
   <g id="line2d_10">
    <path clip-path="url(#pfe7ad6afaf)" d="M 665.278827 83.97 
L 665.278827 138.33 
" style="fill:none;stroke:#666666;stroke-linecap:round;stroke-width:1.5;"/>
   </g>
   <g id="line2d_11">
    <defs>
     <path d="M 0 3.535534 
L 2.12132 0 
L 0 -3.535534 
L -2.12132 0 
z
" id="m7954dddc22" style="stroke:#666666;stroke-linejoin:miter;"/>
    </defs>
    <g clip-path="url(#pfe7ad6afaf)">
     <use style="fill:#666666;stroke:#666666;stroke-linejoin:miter;" x="839.74529" xlink:href="#m7954dddc22" y="111.15"/>
     <use style="fill:#666666;stroke:#666666;stroke-linejoin:miter;" x="751.164268" xlink:href="#m7954dddc22" y="111.15"/>
     <use style="fill:#666666;stroke:#666666;stroke-linejoin:miter;" x="786.689749" xlink:href="#m7954dddc22" y="111.15"/>
     <use style="fill:#666666;stroke:#666666;stroke-linejoin:miter;" x="733.028361" xlink:href="#m7954dddc22" y="111.15"/>
     <use style="fill:#666666;stroke:#666666;stroke-linejoin:miter;" x="767.267514" xlink:href="#m7954dddc22" y="111.15"/>
     <use style="fill:#666666;stroke:#666666;stroke-linejoin:miter;" x="784.762452" xlink:href="#m7954dddc22" y="111.15"/>
     <use style="fill:#666666;stroke:#666666;stroke-linejoin:miter;" x="680.187939" xlink:href="#m7954dddc22" y="111.15"/>
     <use style="fill:#666666;stroke:#666666;stroke-linejoin:miter;" x="709.229098" xlink:href="#m7954dddc22" y="111.15"/>
     <use style="fill:#666666;stroke:#666666;stroke-linejoin:miter;" x="699.768222" xlink:href="#m7954dddc22" y="111.15"/>
     <use style="fill:#666666;stroke:#666666;stroke-linejoin:miter;" x="807.986599" xlink:href="#m7954dddc22" y="111.15"/>
     <use style="fill:#666666;stroke:#666666;stroke-linejoin:miter;" x="734.538589" xlink:href="#m7954dddc22" y="111.15"/>
     <use style="fill:#666666;stroke:#666666;stroke-linejoin:miter;" x="717.127064" xlink:href="#m7954dddc22" y="111.15"/>
     <use style="fill:#666666;stroke:#666666;stroke-linejoin:miter;" x="832.747314" xlink:href="#m7954dddc22" y="111.15"/>
     <use style="fill:#666666;stroke:#666666;stroke-linejoin:miter;" x="731.878129" xlink:href="#m7954dddc22" y="111.15"/>
     <use style="fill:#666666;stroke:#666666;stroke-linejoin:miter;" x="709.422267" xlink:href="#m7954dddc22" y="111.15"/>
     <use style="fill:#666666;stroke:#666666;stroke-linejoin:miter;" x="737.559045" xlink:href="#m7954dddc22" y="111.15"/>
     <use style="fill:#666666;stroke:#666666;stroke-linejoin:miter;" x="885.030181" xlink:href="#m7954dddc22" y="111.15"/>
     <use style="fill:#666666;stroke:#666666;stroke-linejoin:miter;" x="694.802908" xlink:href="#m7954dddc22" y="111.15"/>
     <use style="fill:#666666;stroke:#666666;stroke-linejoin:miter;" x="797.722316" xlink:href="#m7954dddc22" y="111.15"/>
     <use style="fill:#666666;stroke:#666666;stroke-linejoin:miter;" x="720.538248" xlink:href="#m7954dddc22" y="111.15"/>
     <use style="fill:#666666;stroke:#666666;stroke-linejoin:miter;" x="746.308709" xlink:href="#m7954dddc22" y="111.15"/>
     <use style="fill:#666666;stroke:#666666;stroke-linejoin:miter;" x="774.937189" xlink:href="#m7954dddc22" y="111.15"/>
     <use style="fill:#666666;stroke:#666666;stroke-linejoin:miter;" x="678.001621" xlink:href="#m7954dddc22" y="111.15"/>
     <use style="fill:#666666;stroke:#666666;stroke-linejoin:miter;" x="760.603193" xlink:href="#m7954dddc22" y="111.15"/>
     <use style="fill:#666666;stroke:#666666;stroke-linejoin:miter;" x="691.088801" xlink:href="#m7954dddc22" y="111.15"/>
     <use style="fill:#666666;stroke:#666666;stroke-linejoin:miter;" x="752.231086" xlink:href="#m7954dddc22" y="111.15"/>
     <use style="fill:#666666;stroke:#666666;stroke-linejoin:miter;" x="780.574203" xlink:href="#m7954dddc22" y="111.15"/>
     <use style="fill:#666666;stroke:#666666;stroke-linejoin:miter;" x="693.024878" xlink:href="#m7954dddc22" y="111.15"/>
     <use style="fill:#666666;stroke:#666666;stroke-linejoin:miter;" x="688.156148" xlink:href="#m7954dddc22" y="111.15"/>
     <use style="fill:#666666;stroke:#666666;stroke-linejoin:miter;" x="723.440168" xlink:href="#m7954dddc22" y="111.15"/>
     <use style="fill:#666666;stroke:#666666;stroke-linejoin:miter;" x="789.60923" xlink:href="#m7954dddc22" y="111.15"/>
     <use style="fill:#666666;stroke:#666666;stroke-linejoin:miter;" x="703.148674" xlink:href="#m7954dddc22" y="111.15"/>
     <use style="fill:#666666;stroke:#666666;stroke-linejoin:miter;" x="828.352726" xlink:href="#m7954dddc22" y="111.15"/>
     <use style="fill:#666666;stroke:#666666;stroke-linejoin:miter;" x="780.859566" xlink:href="#m7954dddc22" y="111.15"/>
     <use style="fill:#666666;stroke:#666666;stroke-linejoin:miter;" x="770.406505" xlink:href="#m7954dddc22" y="111.15"/>
     <use style="fill:#666666;stroke:#666666;stroke-linejoin:miter;" x="813.961658" xlink:href="#m7954dddc22" y="111.15"/>
     <use style="fill:#666666;stroke:#666666;stroke-linejoin:miter;" x="688.836629" xlink:href="#m7954dddc22" y="111.15"/>
     <use style="fill:#666666;stroke:#666666;stroke-linejoin:miter;" x="739.047322" xlink:href="#m7954dddc22" y="111.15"/>
     <use style="fill:#666666;stroke:#666666;stroke-linejoin:miter;" x="675.644085" xlink:href="#m7954dddc22" y="111.15"/>
     <use style="fill:#666666;stroke:#666666;stroke-linejoin:miter;" x="722.930906" xlink:href="#m7954dddc22" y="111.15"/>
     <use style="fill:#666666;stroke:#666666;stroke-linejoin:miter;" x="728.199143" xlink:href="#m7954dddc22" y="111.15"/>
     <use style="fill:#666666;stroke:#666666;stroke-linejoin:miter;" x="776.364004" xlink:href="#m7954dddc22" y="111.15"/>
     <use style="fill:#666666;stroke:#666666;stroke-linejoin:miter;" x="699.100912" xlink:href="#m7954dddc22" y="111.15"/>
     <use style="fill:#666666;stroke:#666666;stroke-linejoin:miter;" x="794.93454" xlink:href="#m7954dddc22" y="111.15"/>
     <use style="fill:#666666;stroke:#666666;stroke-linejoin:miter;" x="723.093343" xlink:href="#m7954dddc22" y="111.15"/>
     <use style="fill:#666666;stroke:#666666;stroke-linejoin:miter;" x="710.787618" xlink:href="#m7954dddc22" y="111.15"/>
     <use style="fill:#666666;stroke:#666666;stroke-linejoin:miter;" x="846.686193" xlink:href="#m7954dddc22" y="111.15"/>
     <use style="fill:#666666;stroke:#666666;stroke-linejoin:miter;" x="818.742583" xlink:href="#m7954dddc22" y="111.15"/>
     <use style="fill:#666666;stroke:#666666;stroke-linejoin:miter;" x="677.435285" xlink:href="#m7954dddc22" y="111.15"/>
     <use style="fill:#666666;stroke:#666666;stroke-linejoin:miter;" x="670.630479" xlink:href="#m7954dddc22" y="111.15"/>
     <use style="fill:#666666;stroke:#666666;stroke-linejoin:miter;" x="846.602779" xlink:href="#m7954dddc22" y="111.15"/>
     <use style="fill:#666666;stroke:#666666;stroke-linejoin:miter;" x="832.966824" xlink:href="#m7954dddc22" y="111.15"/>
     <use style="fill:#666666;stroke:#666666;stroke-linejoin:miter;" x="799.737417" xlink:href="#m7954dddc22" y="111.15"/>
     <use style="fill:#666666;stroke:#666666;stroke-linejoin:miter;" x="691.312701" xlink:href="#m7954dddc22" y="111.15"/>
     <use style="fill:#666666;stroke:#666666;stroke-linejoin:miter;" x="707.894478" xlink:href="#m7954dddc22" y="111.15"/>
     <use style="fill:#666666;stroke:#666666;stroke-linejoin:miter;" x="666.459791" xlink:href="#m7954dddc22" y="111.15"/>
     <use style="fill:#666666;stroke:#666666;stroke-linejoin:miter;" x="710.910544" xlink:href="#m7954dddc22" y="111.15"/>
     <use style="fill:#666666;stroke:#666666;stroke-linejoin:miter;" x="883.46727" xlink:href="#m7954dddc22" y="111.15"/>
     <use style="fill:#666666;stroke:#666666;stroke-linejoin:miter;" x="681.76402" xlink:href="#m7954dddc22" y="111.15"/>
     <use style="fill:#666666;stroke:#666666;stroke-linejoin:miter;" x="772.996722" xlink:href="#m7954dddc22" y="111.15"/>
     <use style="fill:#666666;stroke:#666666;stroke-linejoin:miter;" x="710.247624" xlink:href="#m7954dddc22" y="111.15"/>
     <use style="fill:#666666;stroke:#666666;stroke-linejoin:miter;" x="675.657255" xlink:href="#m7954dddc22" y="111.15"/>
     <use style="fill:#666666;stroke:#666666;stroke-linejoin:miter;" x="774.774752" xlink:href="#m7954dddc22" y="111.15"/>
     <use style="fill:#666666;stroke:#666666;stroke-linejoin:miter;" x="744.688726" xlink:href="#m7954dddc22" y="111.15"/>
     <use style="fill:#666666;stroke:#666666;stroke-linejoin:miter;" x="783.849291" xlink:href="#m7954dddc22" y="111.15"/>
     <use style="fill:#666666;stroke:#666666;stroke-linejoin:miter;" x="825.262027" xlink:href="#m7954dddc22" y="111.15"/>
     <use style="fill:#666666;stroke:#666666;stroke-linejoin:miter;" x="736.874174" xlink:href="#m7954dddc22" y="111.15"/>
     <use style="fill:#666666;stroke:#666666;stroke-linejoin:miter;" x="933.954545" xlink:href="#m7954dddc22" y="111.15"/>
     <use style="fill:#666666;stroke:#666666;stroke-linejoin:miter;" x="809.027076" xlink:href="#m7954dddc22" y="111.15"/>
     <use style="fill:#666666;stroke:#666666;stroke-linejoin:miter;" x="670.828037" xlink:href="#m7954dddc22" y="111.15"/>
     <use style="fill:#666666;stroke:#666666;stroke-linejoin:miter;" x="784.248799" xlink:href="#m7954dddc22" y="111.15"/>
     <use style="fill:#666666;stroke:#666666;stroke-linejoin:miter;" x="733.779084" xlink:href="#m7954dddc22" y="111.15"/>
     <use style="fill:#666666;stroke:#666666;stroke-linejoin:miter;" x="711.024689" xlink:href="#m7954dddc22" y="111.15"/>
     <use style="fill:#666666;stroke:#666666;stroke-linejoin:miter;" x="784.384895" xlink:href="#m7954dddc22" y="111.15"/>
     <use style="fill:#666666;stroke:#666666;stroke-linejoin:miter;" x="856.629991" xlink:href="#m7954dddc22" y="111.15"/>
     <use style="fill:#666666;stroke:#666666;stroke-linejoin:miter;" x="805.370041" xlink:href="#m7954dddc22" y="111.15"/>
     <use style="fill:#666666;stroke:#666666;stroke-linejoin:miter;" x="666.525644" xlink:href="#m7954dddc22" y="111.15"/>
     <use style="fill:#666666;stroke:#666666;stroke-linejoin:miter;" x="777.514235" xlink:href="#m7954dddc22" y="111.15"/>
     <use style="fill:#666666;stroke:#666666;stroke-linejoin:miter;" x="735.833697" xlink:href="#m7954dddc22" y="111.15"/>
     <use style="fill:#666666;stroke:#666666;stroke-linejoin:miter;" x="720.424103" xlink:href="#m7954dddc22" y="111.15"/>
     <use style="fill:#666666;stroke:#666666;stroke-linejoin:miter;" x="749.061363" xlink:href="#m7954dddc22" y="111.15"/>
     <use style="fill:#666666;stroke:#666666;stroke-linejoin:miter;" x="861.182626" xlink:href="#m7954dddc22" y="111.15"/>
     <use style="fill:#666666;stroke:#666666;stroke-linejoin:miter;" x="716.262195" xlink:href="#m7954dddc22" y="111.15"/>
     <use style="fill:#666666;stroke:#666666;stroke-linejoin:miter;" x="845.250598" xlink:href="#m7954dddc22" y="111.15"/>
     <use style="fill:#666666;stroke:#666666;stroke-linejoin:miter;" x="834.147788" xlink:href="#m7954dddc22" y="111.15"/>
     <use style="fill:#666666;stroke:#666666;stroke-linejoin:miter;" x="749.311604" xlink:href="#m7954dddc22" y="111.15"/>
     <use style="fill:#666666;stroke:#666666;stroke-linejoin:miter;" x="679.384533" xlink:href="#m7954dddc22" y="111.15"/>
     <use style="fill:#666666;stroke:#666666;stroke-linejoin:miter;" x="801.524227" xlink:href="#m7954dddc22" y="111.15"/>
     <use style="fill:#666666;stroke:#666666;stroke-linejoin:miter;" x="812.332894" xlink:href="#m7954dddc22" y="111.15"/>
     <use style="fill:#666666;stroke:#666666;stroke-linejoin:miter;" x="829.200035" xlink:href="#m7954dddc22" y="111.15"/>
     <use style="fill:#666666;stroke:#666666;stroke-linejoin:miter;" x="849.583723" xlink:href="#m7954dddc22" y="111.15"/>
     <use style="fill:#666666;stroke:#666666;stroke-linejoin:miter;" x="701.72186" xlink:href="#m7954dddc22" y="111.15"/>
     <use style="fill:#666666;stroke:#666666;stroke-linejoin:miter;" x="690.882461" xlink:href="#m7954dddc22" y="111.15"/>
     <use style="fill:#666666;stroke:#666666;stroke-linejoin:miter;" x="852.077356" xlink:href="#m7954dddc22" y="111.15"/>
     <use style="fill:#666666;stroke:#666666;stroke-linejoin:miter;" x="749.614528" xlink:href="#m7954dddc22" y="111.15"/>
     <use style="fill:#666666;stroke:#666666;stroke-linejoin:miter;" x="666.907591" xlink:href="#m7954dddc22" y="111.15"/>
     <use style="fill:#666666;stroke:#666666;stroke-linejoin:miter;" x="736.975148" xlink:href="#m7954dddc22" y="111.15"/>
     <use style="fill:#666666;stroke:#666666;stroke-linejoin:miter;" x="677.98845" xlink:href="#m7954dddc22" y="111.15"/>
     <use style="fill:#666666;stroke:#666666;stroke-linejoin:miter;" x="849.566162" xlink:href="#m7954dddc22" y="111.15"/>
     <use style="fill:#666666;stroke:#666666;stroke-linejoin:miter;" x="816.648459" xlink:href="#m7954dddc22" y="111.15"/>
     <use style="fill:#666666;stroke:#666666;stroke-linejoin:miter;" x="717.500231" xlink:href="#m7954dddc22" y="111.15"/>
     <use style="fill:#666666;stroke:#666666;stroke-linejoin:miter;" x="871.091302" xlink:href="#m7954dddc22" y="111.15"/>
     <use style="fill:#666666;stroke:#666666;stroke-linejoin:miter;" x="823.958138" xlink:href="#m7954dddc22" y="111.15"/>
     <use style="fill:#666666;stroke:#666666;stroke-linejoin:miter;" x="675.929447" xlink:href="#m7954dddc22" y="111.15"/>
     <use style="fill:#666666;stroke:#666666;stroke-linejoin:miter;" x="775.139138" xlink:href="#m7954dddc22" y="111.15"/>
     <use style="fill:#666666;stroke:#666666;stroke-linejoin:miter;" x="699.522371" xlink:href="#m7954dddc22" y="111.15"/>
     <use style="fill:#666666;stroke:#666666;stroke-linejoin:miter;" x="773.685983" xlink:href="#m7954dddc22" y="111.15"/>
     <use style="fill:#666666;stroke:#666666;stroke-linejoin:miter;" x="734.999559" xlink:href="#m7954dddc22" y="111.15"/>
     <use style="fill:#666666;stroke:#666666;stroke-linejoin:miter;" x="776.034739" xlink:href="#m7954dddc22" y="111.15"/>
    </g>
   </g>
   <g id="line2d_12">
    <path clip-path="url(#pfe7ad6afaf)" d="M 222.130062 247.05 
L 173.045455 247.05 
" style="fill:none;stroke:#666666;stroke-linecap:round;stroke-width:1.5;"/>
   </g>
   <g id="line2d_13">
    <path clip-path="url(#pfe7ad6afaf)" d="M 545.801788 247.05 
L 932.870167 247.05 
" style="fill:none;stroke:#666666;stroke-linecap:round;stroke-width:1.5;"/>
   </g>
   <g id="line2d_14">
    <path clip-path="url(#pfe7ad6afaf)" d="M 173.045455 219.87 
L 173.045455 274.23 
" style="fill:none;stroke:#666666;stroke-linecap:round;stroke-width:1.5;"/>
   </g>
   <g id="line2d_15">
    <path clip-path="url(#pfe7ad6afaf)" d="M 932.870167 219.87 
L 932.870167 274.23 
" style="fill:none;stroke:#666666;stroke-linecap:round;stroke-width:1.5;"/>
   </g>
   <g id="line2d_16"/>
   <g id="line2d_17">
    <path clip-path="url(#pfe7ad6afaf)" d="M 233.169214 56.79 
L 233.169214 165.51 
" style="fill:none;stroke:#666666;stroke-linecap:round;stroke-width:1.5;"/>
   </g>
   <g id="line2d_18">
    <path clip-path="url(#pfe7ad6afaf)" d="M 319.221482 192.69 
L 319.221482 301.41 
" style="fill:none;stroke:#666666;stroke-linecap:round;stroke-width:1.5;"/>
   </g>
   <g id="patch_5">
    <path d="M 135 315 
L 135 43.2 
" style="fill:none;stroke:#ffffff;stroke-linecap:square;stroke-linejoin:miter;stroke-width:1.25;"/>
   </g>
   <g id="patch_6">
    <path d="M 972 315 
L 972 43.2 
" style="fill:none;stroke:#ffffff;stroke-linecap:square;stroke-linejoin:miter;stroke-width:1.25;"/>
   </g>
   <g id="patch_7">
    <path d="M 135 315 
L 972 315 
" style="fill:none;stroke:#ffffff;stroke-linecap:square;stroke-linejoin:miter;stroke-width:1.25;"/>
   </g>
   <g id="patch_8">
    <path d="M 135 43.2 
L 972 43.2 
" style="fill:none;stroke:#ffffff;stroke-linecap:square;stroke-linejoin:miter;stroke-width:1.25;"/>
   </g>
   <g id="text_11">
    <!-- TotalCharges vs Churn -->
    <g style="fill:#262626;" transform="translate(451.796875 37.2)scale(0.2 -0.2)">
     <defs>
      <path id="ArialMT-20" transform="scale(0.015625)"/>
      <path d="M 1344 0 
L 81 3319 
L 675 3319 
L 1388 1331 
Q 1503 1009 1600 663 
Q 1675 925 1809 1294 
L 2547 3319 
L 3125 3319 
L 1869 0 
L 1344 0 
z
" id="ArialMT-76" transform="scale(0.015625)"/>
     </defs>
     <use xlink:href="#ArialMT-54"/>
     <use x="49.958984" xlink:href="#ArialMT-6f"/>
     <use x="105.574219" xlink:href="#ArialMT-74"/>
     <use x="133.357422" xlink:href="#ArialMT-61"/>
     <use x="188.972656" xlink:href="#ArialMT-6c"/>
     <use x="211.189453" xlink:href="#ArialMT-43"/>
     <use x="283.40625" xlink:href="#ArialMT-68"/>
     <use x="339.021484" xlink:href="#ArialMT-61"/>
     <use x="394.636719" xlink:href="#ArialMT-72"/>
     <use x="427.9375" xlink:href="#ArialMT-67"/>
     <use x="483.552734" xlink:href="#ArialMT-65"/>
     <use x="539.167969" xlink:href="#ArialMT-73"/>
     <use x="589.167969" xlink:href="#ArialMT-20"/>
     <use x="616.951172" xlink:href="#ArialMT-76"/>
     <use x="666.951172" xlink:href="#ArialMT-73"/>
     <use x="716.951172" xlink:href="#ArialMT-20"/>
     <use x="744.734375" xlink:href="#ArialMT-43"/>
     <use x="816.951172" xlink:href="#ArialMT-68"/>
     <use x="872.566406" xlink:href="#ArialMT-75"/>
     <use x="928.181641" xlink:href="#ArialMT-72"/>
     <use x="961.482422" xlink:href="#ArialMT-6e"/>
    </g>
   </g>
  </g>
 </g>
 <defs>
  <clipPath id="pfe7ad6afaf">
   <rect height="271.8" width="837" x="135" y="43.2"/>
  </clipPath>
 </defs>
</svg>
